<svg width="1062" height="870" viewBox="0 0 1062 870" fill="none" xmlns="http://www.w3.org/2000/svg">
<g id="No Results">
<g id="circle">
<path id="Stroke 1" d="M34.0371 399V408" stroke="#D2D8DF" stroke-opacity="0.2" stroke-width="2.921" stroke-linecap="round"/>
<g id="Group 8">
<path id="Stroke 2" d="M13.8223 403.875L21.1766 411.446" stroke="#D2D8DF" stroke-opacity="0.2" stroke-width="2.921" stroke-linecap="round"/>
<path id="Stroke 4" d="M5.2207 424.028H15.6196" stroke="#D2D8DF" stroke-opacity="0.2" stroke-width="2.921" stroke-linecap="round"/>
<path id="Stroke 6" d="M12.9785 444.539L20.3328 436.969" stroke="#D2D8DF" stroke-opacity="0.2" stroke-width="2.921" stroke-linecap="round"/>
</g>
<path id="Stroke 9" d="M34.0371 447V438" stroke="#D2D8DF" stroke-opacity="0.2" stroke-width="2.921" stroke-linecap="round"/>
<path id="Stroke 10" d="M49.0371 441L43.0371 435" stroke="#D2D8DF" stroke-opacity="0.2" stroke-width="2.921" stroke-linecap="round"/>
<path id="Stroke 11" d="M61.0371 426H52.0371" stroke="#D2D8DF" stroke-opacity="0.2" stroke-width="2.921" stroke-linecap="round"/>
<path id="Stroke 12" d="M55.0371 405L49.0371 411" stroke="#D2D8DF" stroke-opacity="0.2" stroke-width="2.921" stroke-linecap="round"/>
<path id="Stroke 13" d="M517.037 6V12" stroke="#D2D8DF" stroke-opacity="0.2" stroke-width="2.921" stroke-linecap="round"/>
<path id="Stroke 15" d="M499.037 24H505.037" stroke="#D2D8DF" stroke-opacity="0.2" stroke-width="2.921" stroke-linecap="round"/>
<path id="Stroke 16" d="M517.037 42V36" stroke="#D2D8DF" stroke-opacity="0.2" stroke-width="2.921" stroke-linecap="round"/>
<path id="Stroke 17" d="M532.037 24H526.037" stroke="#D2D8DF" stroke-opacity="0.2" stroke-width="2.921" stroke-linecap="round"/>
<path id="Stroke 18" d="M169.037 258V267" stroke="#D2D8DF" stroke-opacity="0.2" stroke-width="2.921" stroke-linecap="round"/>
<path id="Stroke 19" d="M142.037 285H151.037" stroke="#D2D8DF" stroke-opacity="0.2" stroke-width="2.921" stroke-linecap="round"/>
<path id="Stroke 20" d="M169.037 309V300" stroke="#D2D8DF" stroke-opacity="0.2" stroke-width="2.921" stroke-linecap="round"/>
<path id="Stroke 21" d="M193.037 285H184.037" stroke="#D2D8DF" stroke-opacity="0.2" stroke-width="2.921" stroke-linecap="round"/>
<g id="Group 42">
<path id="Stroke 22" d="M814.798 585.117C821.968 585.117 827.782 590.933 827.782 598.105C827.782 605.278 821.968 611.092 814.798 611.092C807.629 611.092 801.814 605.278 801.814 598.105" stroke="#D2D8DF" stroke-opacity="0.2" stroke-width="2.921" stroke-linecap="round"/>
<path id="Fill 26" fill-rule="evenodd" clip-rule="evenodd" d="M874.219 467.29C881.928 464.885 893.746 455.457 896.481 445.312C898.962 454.28 909.361 464.885 918.743 465.688C908.181 469.428 898.083 480.537 896.481 489.265C895.391 480.369 881.424 468.587 874.219 467.29Z" fill="#EBECEE" fill-opacity="0.2"/>
<path id="Fill 28" fill-rule="evenodd" clip-rule="evenodd" d="M82.8516 581.116C86.7075 579.914 92.6137 575.201 93.9814 570.129C95.2217 574.61 100.42 579.914 105.111 580.317C99.8316 582.184 94.7837 587.74 93.9814 592.104C93.4364 587.656 86.4528 581.764 82.8516 581.116Z" fill="#EBECEE" fill-opacity="0.2"/>
<path id="Fill 30" fill-rule="evenodd" clip-rule="evenodd" d="M154.409 163.791C154.409 169.355 149.901 173.862 144.341 173.862C138.779 173.862 134.273 169.355 134.273 163.791C134.273 158.23 138.779 153.721 144.341 153.721C149.901 153.721 154.409 158.23 154.409 163.791Z" fill="#484848"/>
<path id="Fill 32" fill-rule="evenodd" clip-rule="evenodd" d="M826.694 190.832C826.694 200.128 819.158 207.663 809.867 207.663C800.571 207.663 793.037 200.128 793.037 190.832C793.037 181.536 800.571 174 809.867 174C819.158 174 826.694 181.536 826.694 190.832Z" fill="#EBECEE" fill-opacity="0.2"/>
<path id="Fill 34" fill-rule="evenodd" clip-rule="evenodd" d="M1059.78 145.229C1059.78 152.604 1053.8 158.58 1046.43 158.58C1039.06 158.58 1033.08 152.604 1033.08 145.229C1033.08 137.853 1039.06 131.877 1046.43 131.877C1053.8 131.877 1059.78 137.853 1059.78 145.229Z" fill="#EBECEE" fill-opacity="0.2"/>
<path id="Stroke 36" fill-rule="evenodd" clip-rule="evenodd" d="M342.567 768.803C342.567 773.452 338.801 777.22 334.153 777.22C329.507 777.22 325.74 773.452 325.74 768.803C325.74 764.154 329.507 760.386 334.153 760.386C338.801 760.386 342.567 764.154 342.567 768.803Z" stroke="#D2D8DF" stroke-opacity="0.2" stroke-width="2.921" stroke-linecap="round"/>
<path id="Stroke 38" fill-rule="evenodd" clip-rule="evenodd" d="M337.561 99.0948C337.561 104.659 333.053 109.165 327.494 109.165C321.934 109.165 317.426 104.659 317.426 99.0948C317.426 93.5336 321.934 89.0244 327.494 89.0244C333.053 89.0244 337.561 93.5336 337.561 99.0948Z" stroke="#D2D8DF" stroke-opacity="0.2" stroke-width="2.921" stroke-linecap="round"/>
<path id="Stroke 40" fill-rule="evenodd" clip-rule="evenodd" d="M594.37 862.008C587.936 864.457 580.736 861.224 578.289 854.791C575.841 848.356 579.071 841.152 585.507 838.706C591.937 836.258 599.138 839.488 601.585 845.923C604.035 852.358 600.803 859.56 594.37 862.008Z" stroke="#D2D8DF" stroke-opacity="0.2" stroke-width="2.921" stroke-linecap="round"/>
</g>
</g>
<g id="search">
<g id="documents">
<g id="Fill 1" filter="url(#filter0_b_506_9574)">
<mask id="path-26-inside-1_506_9574" fill="white">
<path fill-rule="evenodd" clip-rule="evenodd" d="M590.535 624H344.521C327.205 624 313.031 609.784 313.031 592.41V241.582C313.031 224.209 327.205 210 344.521 210H590.535C607.857 210 622.031 224.209 622.031 241.582V592.41C622.031 609.784 607.857 624 590.535 624Z"/>
</mask>
<path fill-rule="evenodd" clip-rule="evenodd" d="M590.535 624H344.521C327.205 624 313.031 609.784 313.031 592.41V241.582C313.031 224.209 327.205 210 344.521 210H590.535C607.857 210 622.031 224.209 622.031 241.582V592.41C622.031 609.784 607.857 624 590.535 624Z" fill="white" fill-opacity="0.1"/>
<path d="M590.535 621H344.521V627H590.535V621ZM344.521 621C328.871 621 316.031 608.136 316.031 592.41H310.031C310.031 611.432 325.539 627 344.521 627V621ZM316.031 592.41V241.582H310.031V592.41H316.031ZM316.031 241.582C316.031 225.858 328.87 213 344.521 213V207C325.54 207 310.031 222.56 310.031 241.582H316.031ZM344.521 213H590.535V207H344.521V213ZM590.535 213C606.193 213 619.031 225.858 619.031 241.582H625.031C625.031 222.559 609.522 207 590.535 207V213ZM619.031 241.582V592.41H625.031V241.582H619.031ZM619.031 592.41C619.031 608.136 606.192 621 590.535 621V627C609.523 627 625.031 611.433 625.031 592.41H619.031Z" fill="url(#paint0_linear_506_9574)" mask="url(#path-26-inside-1_506_9574)"/>
</g>
<g id="Fill 3" filter="url(#filter1_b_506_9574)">
<mask id="path-28-inside-2_506_9574" fill="white">
<path fill-rule="evenodd" clip-rule="evenodd" d="M569.535 639H323.521C306.205 639 292.031 624.784 292.031 607.41V256.582C292.031 239.209 306.205 225 323.521 225H569.535C586.857 225 601.031 239.209 601.031 256.582V607.41C601.031 624.784 586.857 639 569.535 639Z"/>
</mask>
<path fill-rule="evenodd" clip-rule="evenodd" d="M569.535 639H323.521C306.205 639 292.031 624.784 292.031 607.41V256.582C292.031 239.209 306.205 225 323.521 225H569.535C586.857 225 601.031 239.209 601.031 256.582V607.41C601.031 624.784 586.857 639 569.535 639Z" fill="white" fill-opacity="0.1"/>
<path d="M569.535 636H323.521V642H569.535V636ZM323.521 636C307.871 636 295.031 623.136 295.031 607.41H289.031C289.031 626.432 304.539 642 323.521 642V636ZM295.031 607.41V256.582H289.031V607.41H295.031ZM295.031 256.582C295.031 240.858 307.87 228 323.521 228V222C304.54 222 289.031 237.56 289.031 256.582H295.031ZM323.521 228H569.535V222H323.521V228ZM569.535 228C585.193 228 598.031 240.858 598.031 256.582H604.031C604.031 237.559 588.522 222 569.535 222V228ZM598.031 256.582V607.41H604.031V256.582H598.031ZM598.031 607.41C598.031 623.136 585.192 636 569.535 636V642C588.523 642 604.031 626.433 604.031 607.41H598.031Z" fill="url(#paint1_linear_506_9574)" mask="url(#path-28-inside-2_506_9574)"/>
</g>
<g id="Fill 8" filter="url(#filter2_b_506_9574)">
<mask id="path-30-inside-3_506_9574" fill="white">
<path fill-rule="evenodd" clip-rule="evenodd" d="M549.108 650.841H302.586C285.234 650.841 271.031 636.685 271.031 619.383V270.007C271.031 252.705 285.234 238.556 302.586 238.556H549.108C566.467 238.556 580.67 252.705 580.67 270.007V619.383C580.67 636.685 566.467 650.841 549.108 650.841Z"/>
</mask>
<path fill-rule="evenodd" clip-rule="evenodd" d="M549.108 650.841H302.586C285.234 650.841 271.031 636.685 271.031 619.383V270.007C271.031 252.705 285.234 238.556 302.586 238.556H549.108C566.467 238.556 580.67 252.705 580.67 270.007V619.383C580.67 636.685 566.467 650.841 549.108 650.841Z" fill="white" fill-opacity="0.1"/>
<path d="M549.108 647.841H302.586V653.841H549.108V647.841ZM302.586 647.841C286.882 647.841 274.031 635.019 274.031 619.383H268.031C268.031 638.35 283.586 653.841 302.586 653.841V647.841ZM274.031 619.383V270.007H268.031V619.383H274.031ZM274.031 270.007C274.031 254.372 286.882 241.556 302.586 241.556V235.556C283.587 235.556 268.031 251.039 268.031 270.007H274.031ZM302.586 241.556H549.108V235.556H302.586V241.556ZM549.108 241.556C564.82 241.556 577.67 254.372 577.67 270.007H583.67C583.67 251.038 568.114 235.556 549.108 235.556V241.556ZM577.67 270.007V619.383H583.67V270.007H577.67ZM577.67 619.383C577.67 635.019 564.819 647.841 549.108 647.841V653.841C568.114 653.841 583.67 638.351 583.67 619.383H577.67Z" fill="url(#paint2_linear_506_9574)" mask="url(#path-30-inside-3_506_9574)"/>
</g>
<path id="Fill 11" opacity="0.5" fill-rule="evenodd" clip-rule="evenodd" d="M513.575 345H331.488C326.288 345 322.031 340.951 322.031 336.003C322.031 331.049 326.288 327 331.488 327H513.575C518.775 327 523.031 331.049 523.031 336.003C523.031 340.951 518.775 345 513.575 345Z" fill="#E0E2EE"/>
<path id="Fill 13" opacity="0.5" fill-rule="evenodd" clip-rule="evenodd" d="M513.575 399H331.488C326.288 399 322.031 394.951 322.031 390.003C322.031 385.049 326.288 381 331.488 381H513.575C518.775 381 523.031 385.049 523.031 390.003C523.031 394.951 518.775 399 513.575 399Z" fill="#E0E2EE"/>
<path id="Fill 15" opacity="0.5" fill-rule="evenodd" clip-rule="evenodd" d="M513.575 453H331.488C326.288 453 322.031 448.951 322.031 444.003C322.031 439.056 326.288 435 331.488 435H513.575C518.775 435 523.031 439.056 523.031 444.003C523.031 448.951 518.775 453 513.575 453Z" fill="#E0E2EE"/>
<path id="Fill 17" opacity="0.5" fill-rule="evenodd" clip-rule="evenodd" d="M513.575 507H331.488C326.288 507 322.031 502.951 322.031 498.003C322.031 493.049 326.288 489 331.488 489H513.575C518.775 489 523.031 493.049 523.031 498.003C523.031 502.951 518.775 507 513.575 507Z" fill="#E0E2EE"/>
<path id="Fill 19" opacity="0.5" fill-rule="evenodd" clip-rule="evenodd" d="M426.534 561H331.528C326.306 561 322.031 556.951 322.031 552.003C322.031 547.049 326.306 543 331.528 543H426.534C431.757 543 436.031 547.049 436.031 552.003C436.031 556.951 431.757 561 426.534 561Z" fill="#E0E2EE"/>
</g>
<g id="search_2">
<path id="Fill 21" fill-rule="evenodd" clip-rule="evenodd" d="M618.296 491.21C581.886 527.614 525.519 531.721 484.596 503.615C479.367 499.958 474.389 495.851 469.747 491.21C467.357 488.829 465.105 486.371 462.982 483.783C458.738 478.615 455.019 473.104 451.973 467.409C446.606 457.791 442.957 447.585 440.964 437.036C434.535 403.952 444.148 368.342 469.747 342.755C495.407 317.091 531.023 307.542 564.112 313.908C574.656 315.962 584.871 319.61 594.491 324.916C600.194 328.03 605.63 331.748 610.806 335.992C613.387 338.106 615.845 340.366 618.227 342.755C622.877 347.396 627.046 352.366 630.634 357.602C658.753 398.51 654.638 454.875 618.296 491.21Z" fill="white" fill-opacity="0.1"/>
<path id="Fill 23" fill-rule="evenodd" clip-rule="evenodd" d="M608.108 484.041C570.228 521.927 508.841 521.92 470.954 484.041C433.116 446.203 433.116 384.809 471.003 346.929C508.841 309.091 570.228 309.091 608.065 346.929C645.945 384.809 645.945 446.203 608.108 484.041ZM627.548 327.467C578.926 278.844 500.136 278.844 451.514 327.467C402.899 376.082 402.856 454.921 451.471 503.543C495.723 547.781 565.082 551.771 613.867 515.449C618.631 511.896 623.22 507.914 627.597 503.543C631.968 499.166 635.95 494.577 639.496 489.813C675.818 441.021 671.793 371.711 627.548 327.467Z" fill="#9A95A6"/>
<path id="Fill 27" fill-rule="evenodd" clip-rule="evenodd" d="M642.184 486L755.952 599.768C763.175 606.992 763.174 618.703 755.95 625.925C748.727 633.147 737.018 633.146 729.796 625.923L616.031 512.152C620.893 508.527 625.569 504.463 630.042 500.004C634.502 495.545 638.566 490.862 642.184 486Z" fill="#9A95A6"/>
</g>
</g>
</g>
<defs>
<filter id="filter0_b_506_9574" x="271.031" y="168" width="393" height="498" filterUnits="userSpaceOnUse" color-interpolation-filters="sRGB">
<feFlood flood-opacity="0" result="BackgroundImageFix"/>
<feGaussianBlur in="BackgroundImageFix" stdDeviation="7"/>
<feComposite in2="SourceAlpha" operator="in" result="effect1_backgroundBlur_506_9574"/>
<feBlend mode="normal" in="SourceGraphic" in2="effect1_backgroundBlur_506_9574" result="shape"/>
</filter>
<filter id="filter1_b_506_9574" x="250.031" y="183" width="393" height="498" filterUnits="userSpaceOnUse" color-interpolation-filters="sRGB">
<feFlood flood-opacity="0" result="BackgroundImageFix"/>
<feGaussianBlur in="BackgroundImageFix" stdDeviation="7"/>
<feComposite in2="SourceAlpha" operator="in" result="effect1_backgroundBlur_506_9574"/>
<feBlend mode="normal" in="SourceGraphic" in2="effect1_backgroundBlur_506_9574" result="shape"/>
</filter>
<filter id="filter2_b_506_9574" x="229.031" y="196.556" width="393.639" height="496.286" filterUnits="userSpaceOnUse" color-interpolation-filters="sRGB">
<feFlood flood-opacity="0" result="BackgroundImageFix"/>
<feGaussianBlur in="BackgroundImageFix" stdDeviation="7"/>
<feComposite in2="SourceAlpha" operator="in" result="effect1_backgroundBlur_506_9574"/>
<feBlend mode="normal" in="SourceGraphic" in2="effect1_backgroundBlur_506_9574" result="shape"/>
</filter>
<linearGradient id="paint0_linear_506_9574" x1="408.984" y1="219.713" x2="671.792" y2="477.48" gradientUnits="userSpaceOnUse">
<stop stop-color="white" stop-opacity="0.4"/>
<stop offset="1" stop-color="white" stop-opacity="0.1"/>
</linearGradient>
<linearGradient id="paint1_linear_506_9574" x1="387.984" y1="234.713" x2="650.792" y2="492.48" gradientUnits="userSpaceOnUse">
<stop stop-color="white" stop-opacity="0.4"/>
<stop offset="1" stop-color="white" stop-opacity="0.1"/>
</linearGradient>
<linearGradient id="paint2_linear_506_9574" x1="367.182" y1="248.229" x2="628.928" y2="506.555" gradientUnits="userSpaceOnUse">
<stop stop-color="white" stop-opacity="0.4"/>
<stop offset="1" stop-color="white" stop-opacity="0.1"/>
</linearGradient>
</defs>
</svg>
