<svg width="36" height="36" viewBox="0 0 36 36" fill="none" xmlns="http://www.w3.org/2000/svg">
<g clip-path="url(#clip0_480_14732)">
<path d="M18 36C27.9411 36 36 27.9411 36 18C36 8.05888 27.9411 0 18 0C8.05888 0 0 8.05888 0 18C0 27.9411 8.05888 36 18 36Z" fill="url(#paint0_linear_480_14732)"/>
<path d="M21.6379 9H14.3621C12.9406 9.00188 11.5778 9.56742 10.5726 10.5726C9.56742 11.5778 9.00188 12.9406 9 14.3621V21.6379C9.00188 23.0594 9.56742 24.4222 10.5726 25.4274C11.5778 26.4326 12.9406 26.9981 14.3621 27H21.6379C23.0596 26.9987 24.4228 26.4334 25.4281 25.4281C26.4334 24.4228 26.9987 23.0596 27 21.6379V14.3621C26.9981 12.9406 26.4326 11.5778 25.4274 10.5726C24.4222 9.56742 23.0594 9.00188 21.6379 9ZM25.1905 21.6379C25.1905 22.5801 24.8162 23.4837 24.15 24.15C23.4837 24.8162 22.5801 25.1905 21.6379 25.1905H14.3621C13.4199 25.1905 12.5163 24.8162 11.85 24.15C11.1838 23.4837 10.8095 22.5801 10.8095 21.6379V14.3621C10.8095 13.4199 11.1838 12.5163 11.85 11.85C12.5163 11.1838 13.4199 10.8095 14.3621 10.8095H21.6379C22.5801 10.8095 23.4837 11.1838 24.15 11.85C24.8162 12.5163 25.1905 13.4199 25.1905 14.3621V21.6379Z" fill="white"/>
<path d="M18.0005 13.3457C17.0793 13.3452 16.1788 13.618 15.4127 14.1294C14.6466 14.6409 14.0494 15.3681 13.6967 16.219C13.344 17.07 13.2516 18.0064 13.4312 18.9098C13.6107 19.8133 14.0543 20.6432 14.7056 21.2945C15.3569 21.9459 16.1868 22.3894 17.0903 22.569C17.9937 22.7486 18.9302 22.6562 19.7811 22.3034C20.632 21.9507 21.3592 21.3535 21.8707 20.5875C22.3821 19.8214 22.6549 18.9208 22.6544 17.9997C22.6532 16.7657 22.1624 15.5827 21.2899 14.7102C20.4174 13.8377 19.2344 13.347 18.0005 13.3457ZM18.0005 20.8418C17.4384 20.8418 16.8889 20.6751 16.4215 20.3628C15.9541 20.0505 15.5898 19.6066 15.3747 19.0873C15.1596 18.568 15.1033 17.9965 15.213 17.4452C15.3227 16.8939 15.5933 16.3875 15.9908 15.99C16.3883 15.5925 16.8947 15.3218 17.446 15.2122C17.9973 15.1025 18.5688 15.1588 19.0881 15.3739C19.6074 15.589 20.0513 15.9533 20.3636 16.4207C20.6759 16.888 20.8426 17.4375 20.8426 17.9997C20.8426 18.7534 20.5432 19.4763 20.0102 20.0093C19.4772 20.5423 18.7543 20.8418 18.0005 20.8418Z" fill="white"/>
<path d="M22.6823 14.4974C23.318 14.4974 23.8334 13.9821 23.8334 13.3464C23.8334 12.7107 23.318 12.1953 22.6823 12.1953C22.0466 12.1953 21.5312 12.7107 21.5312 13.3464C21.5312 13.9821 22.0466 14.4974 22.6823 14.4974Z" fill="white"/>
</g>
<defs>
<linearGradient id="paint0_linear_480_14732" x1="18" y1="35.8342" x2="18" y2="2.43947" gradientUnits="userSpaceOnUse">
<stop stop-color="#E09B3D"/>
<stop offset="0.24" stop-color="#C74C4D"/>
<stop offset="0.65" stop-color="#C21975"/>
<stop offset="1" stop-color="#7024C4"/>
</linearGradient>
<clipPath id="clip0_480_14732">
<rect width="36" height="36" fill="white"/>
</clipPath>
</defs>
</svg>
