<svg width="51" height="50" viewBox="0 0 51 50" fill="none" xmlns="http://www.w3.org/2000/svg">
<g id="Frame 2131331149" clip-path="url(#clip0_483_15212)">
<g id="Group 2131330100">
<g id="Rectangle 41927" filter="url(#filter0_f_483_15212)">
<rect x="5" y="4" width="42" height="10" rx="5" transform="rotate(90 5 4)" fill="#FFD600"/>
<rect x="5" y="4" width="42" height="10" rx="5" transform="rotate(90 5 4)" fill="#E900FD"/>
</g>
<g id="Rectangle 41929" filter="url(#filter1_f_483_15212)">
<rect x="5" y="4" width="42" height="10" rx="5" transform="rotate(90 5 4)" fill="#FFD600"/>
<rect x="5" y="4" width="42" height="10" rx="5" transform="rotate(90 5 4)" fill="#E900FD"/>
</g>
<g id="Rectangle 41928">
<rect x="5" y="4" width="42" height="10" rx="5" transform="rotate(90 5 4)" fill="#FFD600"/>
<rect x="5" y="4" width="42" height="10" rx="5" transform="rotate(90 5 4)" fill="#E900FD"/>
</g>
</g>
</g>
<defs>
<filter id="filter0_f_483_15212" x="-11" y="-2" width="22" height="54" filterUnits="userSpaceOnUse" color-interpolation-filters="sRGB">
<feFlood flood-opacity="0" result="BackgroundImageFix"/>
<feBlend mode="normal" in="SourceGraphic" in2="BackgroundImageFix" result="shape"/>
<feGaussianBlur stdDeviation="3" result="effect1_foregroundBlur_483_15212"/>
</filter>
<filter id="filter1_f_483_15212" x="-21" y="-12" width="42" height="74" filterUnits="userSpaceOnUse" color-interpolation-filters="sRGB">
<feFlood flood-opacity="0" result="BackgroundImageFix"/>
<feBlend mode="normal" in="SourceGraphic" in2="BackgroundImageFix" result="shape"/>
<feGaussianBlur stdDeviation="8" result="effect1_foregroundBlur_483_15212"/>
</filter>
<clipPath id="clip0_483_15212">
<rect width="51" height="50" fill="white"/>
</clipPath>
</defs>
</svg>
