<svg width="118" height="118" viewBox="0 0 118 118" fill="none" xmlns="http://www.w3.org/2000/svg">
<path d="M5.61905 0H0V5.61905H5.61905V0Z" fill="white"/>
<path d="M5.61905 5.61914H0V11.2382H5.61905V5.61914Z" fill="white"/>
<path d="M5.61905 11.2383H0V16.8573H5.61905V11.2383Z" fill="white"/>
<path d="M5.61905 16.8569H0V22.476H5.61905V16.8569Z" fill="white"/>
<path d="M5.61905 22.4761H0V28.0951H5.61905V22.4761Z" fill="white"/>
<path d="M5.61905 28.0952H0V33.7143H5.61905V28.0952Z" fill="white"/>
<path d="M5.61905 33.7144H0V39.3334H5.61905V33.7144Z" fill="white"/>
<path d="M5.61905 61.8096H0V67.4286H5.61905V61.8096Z" fill="white"/>
<path d="M5.61905 78.6665H0V84.2856H5.61905V78.6665Z" fill="white"/>
<path d="M5.61905 84.2856H0V89.9047H5.61905V84.2856Z" fill="white"/>
<path d="M5.61905 89.9048H0V95.5238H5.61905V89.9048Z" fill="white"/>
<path d="M5.61905 95.5239H0V101.143H5.61905V95.5239Z" fill="white"/>
<path d="M5.61905 101.143H0V106.762H5.61905V101.143Z" fill="white"/>
<path d="M5.61905 106.762H0V112.381H5.61905V106.762Z" fill="white"/>
<path d="M5.61905 112.381H0V118H5.61905V112.381Z" fill="white"/>
<path d="M11.2382 0H5.61914V5.61905H11.2382V0Z" fill="white"/>
<path d="M11.2382 33.7144H5.61914V39.3334H11.2382V33.7144Z" fill="white"/>
<path d="M11.2382 44.9521H5.61914V50.5712H11.2382V44.9521Z" fill="white"/>
<path d="M11.2382 61.8096H5.61914V67.4286H11.2382V61.8096Z" fill="white"/>
<path d="M11.2382 67.4287H5.61914V73.0478H11.2382V67.4287Z" fill="white"/>
<path d="M11.2382 78.6665H5.61914V84.2856H11.2382V78.6665Z" fill="white"/>
<path d="M11.2382 112.381H5.61914V118H11.2382V112.381Z" fill="white"/>
<path d="M16.8571 0H11.238V5.61905H16.8571V0Z" fill="white"/>
<path d="M16.8571 11.2383H11.238V16.8573H16.8571V11.2383Z" fill="white"/>
<path d="M16.8571 16.8569H11.238V22.476H16.8571V16.8569Z" fill="white"/>
<path d="M16.8571 22.4761H11.238V28.0951H16.8571V22.4761Z" fill="white"/>
<path d="M16.8571 33.7144H11.238V39.3334H16.8571V33.7144Z" fill="white"/>
<path d="M16.8571 50.5713H11.238V56.1903H16.8571V50.5713Z" fill="white"/>
<path d="M16.8571 61.8096H11.238V67.4286H16.8571V61.8096Z" fill="white"/>
<path d="M16.8571 78.6665H11.238V84.2856H16.8571V78.6665Z" fill="white"/>
<path d="M16.8571 89.9048H11.238V95.5238H16.8571V89.9048Z" fill="white"/>
<path d="M16.8571 95.5239H11.238V101.143H16.8571V95.5239Z" fill="white"/>
<path d="M16.8571 101.143H11.238V106.762H16.8571V101.143Z" fill="white"/>
<path d="M16.8571 112.381H11.238V118H16.8571V112.381Z" fill="white"/>
<path d="M22.4762 0H16.8572V5.61905H22.4762V0Z" fill="white"/>
<path d="M22.4762 11.2383H16.8572V16.8573H22.4762V11.2383Z" fill="white"/>
<path d="M22.4762 16.8569H16.8572V22.476H22.4762V16.8569Z" fill="white"/>
<path d="M22.4762 22.4761H16.8572V28.0951H22.4762V22.4761Z" fill="white"/>
<path d="M22.4762 33.7144H16.8572V39.3334H22.4762V33.7144Z" fill="white"/>
<path d="M22.4762 78.6665H16.8572V84.2856H22.4762V78.6665Z" fill="white"/>
<path d="M22.4762 89.9048H16.8572V95.5238H22.4762V89.9048Z" fill="white"/>
<path d="M22.4762 95.5239H16.8572V101.143H22.4762V95.5239Z" fill="white"/>
<path d="M22.4762 101.143H16.8572V106.762H22.4762V101.143Z" fill="white"/>
<path d="M22.4762 112.381H16.8572V118H22.4762V112.381Z" fill="white"/>
<path d="M28.0951 0H22.4761V5.61905H28.0951V0Z" fill="white"/>
<path d="M28.0951 11.2383H22.4761V16.8573H28.0951V11.2383Z" fill="white"/>
<path d="M28.0951 16.8569H22.4761V22.476H28.0951V16.8569Z" fill="white"/>
<path d="M28.0951 22.4761H22.4761V28.0951H28.0951V22.4761Z" fill="white"/>
<path d="M28.0951 33.7144H22.4761V39.3334H28.0951V33.7144Z" fill="white"/>
<path d="M28.0951 50.5713H22.4761V56.1903H28.0951V50.5713Z" fill="white"/>
<path d="M28.0951 61.8096H22.4761V67.4286H28.0951V61.8096Z" fill="white"/>
<path d="M28.0951 67.4287H22.4761V73.0478H28.0951V67.4287Z" fill="white"/>
<path d="M28.0951 78.6665H22.4761V84.2856H28.0951V78.6665Z" fill="white"/>
<path d="M28.0951 89.9048H22.4761V95.5238H28.0951V89.9048Z" fill="white"/>
<path d="M28.0951 95.5239H22.4761V101.143H28.0951V95.5239Z" fill="white"/>
<path d="M28.0951 101.143H22.4761V106.762H28.0951V101.143Z" fill="white"/>
<path d="M28.0951 112.381H22.4761V118H28.0951V112.381Z" fill="white"/>
<path d="M33.7143 0H28.0952V5.61905H33.7143V0Z" fill="white"/>
<path d="M33.7143 33.7144H28.0952V39.3334H33.7143V33.7144Z" fill="white"/>
<path d="M33.7143 56.1904H28.0952V61.8095H33.7143V56.1904Z" fill="white"/>
<path d="M33.7143 67.4287H28.0952V73.0478H33.7143V67.4287Z" fill="white"/>
<path d="M33.7143 78.6665H28.0952V84.2856H33.7143V78.6665Z" fill="white"/>
<path d="M33.7143 112.381H28.0952V118H33.7143V112.381Z" fill="white"/>
<path d="M39.3334 0H33.7144V5.61905H39.3334V0Z" fill="white"/>
<path d="M39.3334 5.61914H33.7144V11.2382H39.3334V5.61914Z" fill="white"/>
<path d="M39.3334 11.2383H33.7144V16.8573H39.3334V11.2383Z" fill="white"/>
<path d="M39.3334 16.8569H33.7144V22.476H39.3334V16.8569Z" fill="white"/>
<path d="M39.3334 22.4761H33.7144V28.0951H39.3334V22.4761Z" fill="white"/>
<path d="M39.3334 28.0952H33.7144V33.7143H39.3334V28.0952Z" fill="white"/>
<path d="M39.3334 33.7144H33.7144V39.3334H39.3334V33.7144Z" fill="white"/>
<path d="M39.3334 44.9521H33.7144V50.5712H39.3334V44.9521Z" fill="white"/>
<path d="M39.3334 56.1904H33.7144V61.8095H39.3334V56.1904Z" fill="white"/>
<path d="M39.3334 67.4287H33.7144V73.0478H39.3334V67.4287Z" fill="white"/>
<path d="M39.3334 78.6665H33.7144V84.2856H39.3334V78.6665Z" fill="white"/>
<path d="M39.3334 84.2856H33.7144V89.9047H39.3334V84.2856Z" fill="white"/>
<path d="M39.3334 89.9048H33.7144V95.5238H39.3334V89.9048Z" fill="white"/>
<path d="M39.3334 95.5239H33.7144V101.143H39.3334V95.5239Z" fill="white"/>
<path d="M39.3334 101.143H33.7144V106.762H39.3334V101.143Z" fill="white"/>
<path d="M39.3334 106.762H33.7144V112.381H39.3334V106.762Z" fill="white"/>
<path d="M39.3334 112.381H33.7144V118H39.3334V112.381Z" fill="white"/>
<path d="M44.9523 44.9521H39.3333V50.5712H44.9523V44.9521Z" fill="white"/>
<path d="M50.5714 0H44.9524V5.61905H50.5714V0Z" fill="white"/>
<path d="M50.5714 5.61914H44.9524V11.2382H50.5714V5.61914Z" fill="white"/>
<path d="M50.5714 33.7144H44.9524V39.3334H50.5714V33.7144Z" fill="white"/>
<path d="M50.5714 44.9521H44.9524V50.5712H50.5714V44.9521Z" fill="white"/>
<path d="M50.5714 56.1904H44.9524V61.8095H50.5714V56.1904Z" fill="white"/>
<path d="M50.5714 61.8096H44.9524V67.4286H50.5714V61.8096Z" fill="white"/>
<path d="M50.5714 67.4287H44.9524V73.0478H50.5714V67.4287Z" fill="white"/>
<path d="M50.5714 73.0479H44.9524V78.6669H50.5714V73.0479Z" fill="white"/>
<path d="M50.5714 78.6665H44.9524V84.2856H50.5714V78.6665Z" fill="white"/>
<path d="M50.5714 106.762H44.9524V112.381H50.5714V106.762Z" fill="white"/>
<path d="M56.1906 0H50.5715V5.61905H56.1906V0Z" fill="white"/>
<path d="M56.1906 22.4761H50.5715V28.0951H56.1906V22.4761Z" fill="white"/>
<path d="M56.1906 44.9521H50.5715V50.5712H56.1906V44.9521Z" fill="white"/>
<path d="M56.1906 56.1904H50.5715V61.8095H56.1906V56.1904Z" fill="white"/>
<path d="M56.1906 84.2856H50.5715V89.9047H56.1906V84.2856Z" fill="white"/>
<path d="M56.1906 95.5239H50.5715V101.143H56.1906V95.5239Z" fill="white"/>
<path d="M56.1906 101.143H50.5715V106.762H56.1906V101.143Z" fill="white"/>
<path d="M56.1906 106.762H50.5715V112.381H56.1906V106.762Z" fill="white"/>
<path d="M56.1906 112.381H50.5715V118H56.1906V112.381Z" fill="white"/>
<path d="M61.8095 5.61914H56.1904V11.2382H61.8095V5.61914Z" fill="white"/>
<path d="M61.8095 16.8569H56.1904V22.476H61.8095V16.8569Z" fill="white"/>
<path d="M61.8095 22.4761H56.1904V28.0951H61.8095V22.4761Z" fill="white"/>
<path d="M61.8095 28.0952H56.1904V33.7143H61.8095V28.0952Z" fill="white"/>
<path d="M61.8095 33.7144H56.1904V39.3334H61.8095V33.7144Z" fill="white"/>
<path d="M61.8095 50.5713H56.1904V56.1903H61.8095V50.5713Z" fill="white"/>
<path d="M61.8095 56.1904H56.1904V61.8095H61.8095V56.1904Z" fill="white"/>
<path d="M61.8095 61.8096H56.1904V67.4286H61.8095V61.8096Z" fill="white"/>
<path d="M61.8095 73.0479H56.1904V78.6669H61.8095V73.0479Z" fill="white"/>
<path d="M61.8095 78.6665H56.1904V84.2856H61.8095V78.6665Z" fill="white"/>
<path d="M61.8095 106.762H56.1904V112.381H61.8095V106.762Z" fill="white"/>
<path d="M61.8095 112.381H56.1904V118H61.8095V112.381Z" fill="white"/>
<path d="M67.4286 28.0952H61.8096V33.7143H67.4286V28.0952Z" fill="white"/>
<path d="M67.4286 39.3335H61.8096V44.9525H67.4286V39.3335Z" fill="white"/>
<path d="M67.4286 44.9521H61.8096V50.5712H67.4286V44.9521Z" fill="white"/>
<path d="M67.4286 61.8096H61.8096V67.4286H67.4286V61.8096Z" fill="white"/>
<path d="M67.4286 78.6665H61.8096V84.2856H67.4286V78.6665Z" fill="white"/>
<path d="M67.4286 89.9048H61.8096V95.5238H67.4286V89.9048Z" fill="white"/>
<path d="M67.4286 112.381H61.8096V118H67.4286V112.381Z" fill="white"/>
<path d="M73.0475 0H67.4285V5.61905H73.0475V0Z" fill="white"/>
<path d="M73.0475 5.61914H67.4285V11.2382H73.0475V5.61914Z" fill="white"/>
<path d="M73.0475 11.2383H67.4285V16.8573H73.0475V11.2383Z" fill="white"/>
<path d="M73.0475 16.8569H67.4285V22.476H73.0475V16.8569Z" fill="white"/>
<path d="M73.0475 22.4761H67.4285V28.0951H73.0475V22.4761Z" fill="white"/>
<path d="M73.0475 28.0952H67.4285V33.7143H73.0475V28.0952Z" fill="white"/>
<path d="M73.0475 33.7144H67.4285V39.3334H73.0475V33.7144Z" fill="white"/>
<path d="M73.0475 50.5713H67.4285V56.1903H73.0475V50.5713Z" fill="white"/>
<path d="M73.0475 56.1904H67.4285V61.8095H73.0475V56.1904Z" fill="white"/>
<path d="M73.0475 84.2856H67.4285V89.9047H73.0475V84.2856Z" fill="white"/>
<path d="M73.0475 95.5239H67.4285V101.143H73.0475V95.5239Z" fill="white"/>
<path d="M78.6667 44.9521H73.0476V50.5712H78.6667V44.9521Z" fill="white"/>
<path d="M78.6667 50.5713H73.0476V56.1903H78.6667V50.5713Z" fill="white"/>
<path d="M78.6667 61.8096H73.0476V67.4286H78.6667V61.8096Z" fill="white"/>
<path d="M78.6667 67.4287H73.0476V73.0478H78.6667V67.4287Z" fill="white"/>
<path d="M78.6667 78.6665H73.0476V84.2856H78.6667V78.6665Z" fill="white"/>
<path d="M78.6667 84.2856H73.0476V89.9047H78.6667V84.2856Z" fill="white"/>
<path d="M78.6667 95.5239H73.0476V101.143H78.6667V95.5239Z" fill="white"/>
<path d="M84.2858 0H78.6667V5.61905H84.2858V0Z" fill="white"/>
<path d="M84.2858 5.61914H78.6667V11.2382H84.2858V5.61914Z" fill="white"/>
<path d="M84.2858 11.2383H78.6667V16.8573H84.2858V11.2383Z" fill="white"/>
<path d="M84.2858 16.8569H78.6667V22.476H84.2858V16.8569Z" fill="white"/>
<path d="M84.2858 22.4761H78.6667V28.0951H84.2858V22.4761Z" fill="white"/>
<path d="M84.2858 28.0952H78.6667V33.7143H84.2858V28.0952Z" fill="white"/>
<path d="M84.2858 33.7144H78.6667V39.3334H84.2858V33.7144Z" fill="white"/>
<path d="M84.2858 56.1904H78.6667V61.8095H84.2858V56.1904Z" fill="white"/>
<path d="M84.2858 73.0479H78.6667V78.6669H84.2858V73.0479Z" fill="white"/>
<path d="M84.2858 84.2856H78.6667V89.9047H84.2858V84.2856Z" fill="white"/>
<path d="M84.2858 89.9048H78.6667V95.5238H84.2858V89.9048Z" fill="white"/>
<path d="M84.2858 95.5239H78.6667V101.143H84.2858V95.5239Z" fill="white"/>
<path d="M89.9047 0H84.2856V5.61905H89.9047V0Z" fill="white"/>
<path d="M89.9047 33.7144H84.2856V39.3334H89.9047V33.7144Z" fill="white"/>
<path d="M89.9047 56.1904H84.2856V61.8095H89.9047V56.1904Z" fill="white"/>
<path d="M89.9047 61.8096H84.2856V67.4286H89.9047V61.8096Z" fill="white"/>
<path d="M89.9047 67.4287H84.2856V73.0478H89.9047V67.4287Z" fill="white"/>
<path d="M89.9047 84.2856H84.2856V89.9047H89.9047V84.2856Z" fill="white"/>
<path d="M89.9047 89.9048H84.2856V95.5238H89.9047V89.9048Z" fill="white"/>
<path d="M89.9047 112.381H84.2856V118H89.9047V112.381Z" fill="white"/>
<path d="M95.5238 0H89.9048V5.61905H95.5238V0Z" fill="white"/>
<path d="M95.5238 11.2383H89.9048V16.8573H95.5238V11.2383Z" fill="white"/>
<path d="M95.5238 16.8569H89.9048V22.476H95.5238V16.8569Z" fill="white"/>
<path d="M95.5238 22.4761H89.9048V28.0951H95.5238V22.4761Z" fill="white"/>
<path d="M95.5238 33.7144H89.9048V39.3334H95.5238V33.7144Z" fill="white"/>
<path d="M95.5238 73.0479H89.9048V78.6669H95.5238V73.0479Z" fill="white"/>
<path d="M95.5238 84.2856H89.9048V89.9047H95.5238V84.2856Z" fill="white"/>
<path d="M95.5238 95.5239H89.9048V101.143H95.5238V95.5239Z" fill="white"/>
<path d="M95.5238 101.143H89.9048V106.762H95.5238V101.143Z" fill="white"/>
<path d="M95.5238 106.762H89.9048V112.381H95.5238V106.762Z" fill="white"/>
<path d="M101.143 0H95.5239V5.61905H101.143V0Z" fill="white"/>
<path d="M101.143 11.2383H95.5239V16.8573H101.143V11.2383Z" fill="white"/>
<path d="M101.143 16.8569H95.5239V22.476H101.143V16.8569Z" fill="white"/>
<path d="M101.143 22.4761H95.5239V28.0951H101.143V22.4761Z" fill="white"/>
<path d="M101.143 33.7144H95.5239V39.3334H101.143V33.7144Z" fill="white"/>
<path d="M101.143 56.1904H95.5239V61.8095H101.143V56.1904Z" fill="white"/>
<path d="M101.143 61.8096H95.5239V67.4286H101.143V61.8096Z" fill="white"/>
<path d="M101.143 67.4287H95.5239V73.0478H101.143V67.4287Z" fill="white"/>
<path d="M101.143 84.2856H95.5239V89.9047H101.143V84.2856Z" fill="white"/>
<path d="M101.143 95.5239H95.5239V101.143H101.143V95.5239Z" fill="white"/>
<path d="M101.143 106.762H95.5239V112.381H101.143V106.762Z" fill="white"/>
<path d="M101.143 112.381H95.5239V118H101.143V112.381Z" fill="white"/>
<path d="M106.762 0H101.143V5.61905H106.762V0Z" fill="white"/>
<path d="M106.762 11.2383H101.143V16.8573H106.762V11.2383Z" fill="white"/>
<path d="M106.762 16.8569H101.143V22.476H106.762V16.8569Z" fill="white"/>
<path d="M106.762 22.4761H101.143V28.0951H106.762V22.4761Z" fill="white"/>
<path d="M106.762 33.7144H101.143V39.3334H106.762V33.7144Z" fill="white"/>
<path d="M106.762 56.1904H101.143V61.8095H106.762V56.1904Z" fill="white"/>
<path d="M106.762 61.8096H101.143V67.4286H106.762V61.8096Z" fill="white"/>
<path d="M106.762 73.0479H101.143V78.6669H106.762V73.0479Z" fill="white"/>
<path d="M106.762 84.2856H101.143V89.9047H106.762V84.2856Z" fill="white"/>
<path d="M106.762 95.5239H101.143V101.143H106.762V95.5239Z" fill="white"/>
<path d="M106.762 101.143H101.143V106.762H106.762V101.143Z" fill="white"/>
<path d="M106.762 106.762H101.143V112.381H106.762V106.762Z" fill="white"/>
<path d="M112.381 0H106.762V5.61905H112.381V0Z" fill="white"/>
<path d="M112.381 33.7144H106.762V39.3334H112.381V33.7144Z" fill="white"/>
<path d="M112.381 44.9521H106.762V50.5712H112.381V44.9521Z" fill="white"/>
<path d="M112.381 50.5713H106.762V56.1903H112.381V50.5713Z" fill="white"/>
<path d="M112.381 56.1904H106.762V61.8095H112.381V56.1904Z" fill="white"/>
<path d="M112.381 61.8096H106.762V67.4286H112.381V61.8096Z" fill="white"/>
<path d="M112.381 67.4287H106.762V73.0478H112.381V67.4287Z" fill="white"/>
<path d="M112.381 78.6665H106.762V84.2856H112.381V78.6665Z" fill="white"/>
<path d="M112.381 101.143H106.762V106.762H112.381V101.143Z" fill="white"/>
<path d="M112.381 112.381H106.762V118H112.381V112.381Z" fill="white"/>
<path d="M118 0H112.381V5.61905H118V0Z" fill="white"/>
<path d="M118 5.61914H112.381V11.2382H118V5.61914Z" fill="white"/>
<path d="M118 11.2383H112.381V16.8573H118V11.2383Z" fill="white"/>
<path d="M118 16.8569H112.381V22.476H118V16.8569Z" fill="white"/>
<path d="M118 22.4761H112.381V28.0951H118V22.4761Z" fill="white"/>
<path d="M118 28.0952H112.381V33.7143H118V28.0952Z" fill="white"/>
<path d="M118 33.7144H112.381V39.3334H118V33.7144Z" fill="white"/>
<path d="M118 44.9521H112.381V50.5712H118V44.9521Z" fill="white"/>
<path d="M118 61.8096H112.381V67.4286H118V61.8096Z" fill="white"/>
<path d="M118 67.4287H112.381V73.0478H118V67.4287Z" fill="white"/>
<path d="M118 73.0479H112.381V78.6669H118V73.0479Z" fill="white"/>
<path d="M118 89.9048H112.381V95.5238H118V89.9048Z" fill="white"/>
<path d="M118 101.143H112.381V106.762H118V101.143Z" fill="white"/>
</svg>
