<svg width="1062" height="870" viewBox="0 0 1062 870" fill="none" xmlns="http://www.w3.org/2000/svg">
<g id="No Results">
<g id="circle">
<path id="Stroke 1" d="M34.0378 399V408" stroke="#D2D8DF" stroke-opacity="0.2" stroke-width="2.921" stroke-linecap="round"/>
<g id="Group 8">
<path id="Stroke 2" d="M13.823 403.875L21.1773 411.446" stroke="#D2D8DF" stroke-opacity="0.2" stroke-width="2.921" stroke-linecap="round"/>
<path id="Stroke 4" d="M5.22144 424.028H15.6203" stroke="#D2D8DF" stroke-opacity="0.2" stroke-width="2.921" stroke-linecap="round"/>
<path id="Stroke 6" d="M12.9792 444.539L20.3335 436.969" stroke="#D2D8DF" stroke-opacity="0.2" stroke-width="2.921" stroke-linecap="round"/>
</g>
<path id="Stroke 9" d="M34.0378 447V438" stroke="#D2D8DF" stroke-opacity="0.2" stroke-width="2.921" stroke-linecap="round"/>
<path id="Stroke 10" d="M49.0378 441L43.0378 435" stroke="#D2D8DF" stroke-opacity="0.2" stroke-width="2.921" stroke-linecap="round"/>
<path id="Stroke 11" d="M61.0378 426H52.0378" stroke="#D2D8DF" stroke-opacity="0.2" stroke-width="2.921" stroke-linecap="round"/>
<path id="Stroke 12" d="M55.0378 405L49.0378 411" stroke="#D2D8DF" stroke-opacity="0.2" stroke-width="2.921" stroke-linecap="round"/>
<path id="Stroke 13" d="M517.038 6V12" stroke="#D2D8DF" stroke-opacity="0.2" stroke-width="2.921" stroke-linecap="round"/>
<path id="Stroke 15" d="M499.038 24H505.038" stroke="#D2D8DF" stroke-opacity="0.2" stroke-width="2.921" stroke-linecap="round"/>
<path id="Stroke 16" d="M517.038 42V36" stroke="#D2D8DF" stroke-opacity="0.2" stroke-width="2.921" stroke-linecap="round"/>
<path id="Stroke 17" d="M532.038 24H526.038" stroke="#D2D8DF" stroke-opacity="0.2" stroke-width="2.921" stroke-linecap="round"/>
<path id="Stroke 18" d="M169.038 258V267" stroke="#D2D8DF" stroke-opacity="0.2" stroke-width="2.921" stroke-linecap="round"/>
<path id="Stroke 19" d="M142.038 285H151.038" stroke="#D2D8DF" stroke-opacity="0.2" stroke-width="2.921" stroke-linecap="round"/>
<path id="Stroke 20" d="M169.038 309V300" stroke="#D2D8DF" stroke-opacity="0.2" stroke-width="2.921" stroke-linecap="round"/>
<path id="Stroke 21" d="M193.038 285H184.038" stroke="#D2D8DF" stroke-opacity="0.2" stroke-width="2.921" stroke-linecap="round"/>
<g id="Group 42">
<path id="Stroke 22" d="M814.799 585.117C821.969 585.117 827.783 590.933 827.783 598.105C827.783 605.278 821.969 611.092 814.799 611.092C807.63 611.092 801.815 605.278 801.815 598.105" stroke="#D2D8DF" stroke-opacity="0.2" stroke-width="2.921" stroke-linecap="round"/>
<path id="Fill 26" fill-rule="evenodd" clip-rule="evenodd" d="M874.219 467.29C881.929 464.885 893.746 455.457 896.482 445.312C898.962 454.28 909.361 464.885 918.744 465.688C908.182 469.428 898.084 480.537 896.482 489.265C895.392 480.369 881.425 468.587 874.219 467.29Z" fill="#EBECEE" fill-opacity="0.2"/>
<path id="Fill 28" fill-rule="evenodd" clip-rule="evenodd" d="M82.8523 581.116C86.7083 579.914 92.6145 575.201 93.9821 570.129C95.2225 574.61 100.421 579.914 105.112 580.317C99.8323 582.184 94.7844 587.74 93.9821 592.104C93.4371 587.656 86.4536 581.764 82.8523 581.116Z" fill="#EBECEE" fill-opacity="0.2"/>
<path id="Fill 30" fill-rule="evenodd" clip-rule="evenodd" d="M154.41 163.791C154.41 169.355 149.902 173.862 144.342 173.862C138.78 173.862 134.274 169.355 134.274 163.791C134.274 158.23 138.78 153.721 144.342 153.721C149.902 153.721 154.41 158.23 154.41 163.791Z" fill="#484848"/>
<path id="Fill 32" fill-rule="evenodd" clip-rule="evenodd" d="M826.695 190.832C826.695 200.128 819.159 207.663 809.868 207.663C800.571 207.663 793.038 200.128 793.038 190.832C793.038 181.536 800.571 174 809.868 174C819.159 174 826.695 181.536 826.695 190.832Z" fill="#EBECEE" fill-opacity="0.2"/>
<path id="Fill 34" fill-rule="evenodd" clip-rule="evenodd" d="M1059.78 145.229C1059.78 152.604 1053.8 158.58 1046.43 158.58C1039.06 158.58 1033.08 152.604 1033.08 145.229C1033.08 137.853 1039.06 131.877 1046.43 131.877C1053.8 131.877 1059.78 137.853 1059.78 145.229Z" fill="#EBECEE" fill-opacity="0.2"/>
<path id="Stroke 36" fill-rule="evenodd" clip-rule="evenodd" d="M342.568 768.803C342.568 773.452 338.801 777.22 334.153 777.22C329.508 777.22 325.741 773.452 325.741 768.803C325.741 764.154 329.508 760.386 334.153 760.386C338.801 760.386 342.568 764.154 342.568 768.803Z" stroke="#D2D8DF" stroke-opacity="0.2" stroke-width="2.921" stroke-linecap="round"/>
<path id="Stroke 38" fill-rule="evenodd" clip-rule="evenodd" d="M337.562 99.0948C337.562 104.659 333.054 109.165 327.494 109.165C321.934 109.165 317.427 104.659 317.427 99.0948C317.427 93.5336 321.934 89.0244 327.494 89.0244C333.054 89.0244 337.562 93.5336 337.562 99.0948Z" stroke="#D2D8DF" stroke-opacity="0.2" stroke-width="2.921" stroke-linecap="round"/>
<path id="Stroke 40" fill-rule="evenodd" clip-rule="evenodd" d="M594.37 862.008C587.937 864.457 580.737 861.224 578.29 854.791C575.842 848.356 579.071 841.152 585.507 838.706C591.938 836.258 599.138 839.488 601.586 845.923C604.036 852.358 600.804 859.56 594.37 862.008Z" stroke="#D2D8DF" stroke-opacity="0.2" stroke-width="2.921" stroke-linecap="round"/>
</g>
</g>
<g id="search">
<g id="documents">
<g id="Fill 1" filter="url(#filter0_b_457_2424)">
<mask id="path-26-inside-1_457_2424" fill="white">
<path fill-rule="evenodd" clip-rule="evenodd" d="M590.535 624H344.521C327.206 624 313.032 609.784 313.032 592.41V241.582C313.032 224.209 327.206 210 344.521 210H590.535C607.858 210 622.032 224.209 622.032 241.582V592.41C622.032 609.784 607.858 624 590.535 624Z"/>
</mask>
<path fill-rule="evenodd" clip-rule="evenodd" d="M590.535 624H344.521C327.206 624 313.032 609.784 313.032 592.41V241.582C313.032 224.209 327.206 210 344.521 210H590.535C607.858 210 622.032 224.209 622.032 241.582V592.41C622.032 609.784 607.858 624 590.535 624Z" fill="white" fill-opacity="0.1"/>
<path d="M590.535 621H344.521V627H590.535V621ZM344.521 621C328.871 621 316.032 608.136 316.032 592.41H310.032C310.032 611.432 325.54 627 344.521 627V621ZM316.032 592.41V241.582H310.032V592.41H316.032ZM316.032 241.582C316.032 225.858 328.871 213 344.521 213V207C325.541 207 310.032 222.56 310.032 241.582H316.032ZM344.521 213H590.535V207H344.521V213ZM590.535 213C606.194 213 619.032 225.858 619.032 241.582H625.032C625.032 222.559 609.523 207 590.535 207V213ZM619.032 241.582V592.41H625.032V241.582H619.032ZM619.032 592.41C619.032 608.136 606.193 621 590.535 621V627C609.523 627 625.032 611.433 625.032 592.41H619.032Z" fill="url(#paint0_linear_457_2424)" mask="url(#path-26-inside-1_457_2424)"/>
</g>
<g id="Fill 3" filter="url(#filter1_b_457_2424)">
<mask id="path-28-inside-2_457_2424" fill="white">
<path fill-rule="evenodd" clip-rule="evenodd" d="M569.535 639H323.521C306.206 639 292.032 624.784 292.032 607.41V256.582C292.032 239.209 306.206 225 323.521 225H569.535C586.858 225 601.032 239.209 601.032 256.582V607.41C601.032 624.784 586.858 639 569.535 639Z"/>
</mask>
<path fill-rule="evenodd" clip-rule="evenodd" d="M569.535 639H323.521C306.206 639 292.032 624.784 292.032 607.41V256.582C292.032 239.209 306.206 225 323.521 225H569.535C586.858 225 601.032 239.209 601.032 256.582V607.41C601.032 624.784 586.858 639 569.535 639Z" fill="white" fill-opacity="0.1"/>
<path d="M569.535 636H323.521V642H569.535V636ZM323.521 636C307.871 636 295.032 623.136 295.032 607.41H289.032C289.032 626.432 304.54 642 323.521 642V636ZM295.032 607.41V256.582H289.032V607.41H295.032ZM295.032 256.582C295.032 240.858 307.871 228 323.521 228V222C304.541 222 289.032 237.56 289.032 256.582H295.032ZM323.521 228H569.535V222H323.521V228ZM569.535 228C585.194 228 598.032 240.858 598.032 256.582H604.032C604.032 237.559 588.523 222 569.535 222V228ZM598.032 256.582V607.41H604.032V256.582H598.032ZM598.032 607.41C598.032 623.136 585.193 636 569.535 636V642C588.523 642 604.032 626.433 604.032 607.41H598.032Z" fill="url(#paint1_linear_457_2424)" mask="url(#path-28-inside-2_457_2424)"/>
</g>
<g id="Fill 8" filter="url(#filter2_b_457_2424)">
<mask id="path-30-inside-3_457_2424" fill="white">
<path fill-rule="evenodd" clip-rule="evenodd" d="M549.109 650.841H302.587C285.235 650.841 271.032 636.685 271.032 619.383V270.007C271.032 252.705 285.235 238.556 302.587 238.556H549.109C566.468 238.556 580.671 252.705 580.671 270.007V619.383C580.671 636.685 566.468 650.841 549.109 650.841Z"/>
</mask>
<path fill-rule="evenodd" clip-rule="evenodd" d="M549.109 650.841H302.587C285.235 650.841 271.032 636.685 271.032 619.383V270.007C271.032 252.705 285.235 238.556 302.587 238.556H549.109C566.468 238.556 580.671 252.705 580.671 270.007V619.383C580.671 636.685 566.468 650.841 549.109 650.841Z" fill="white" fill-opacity="0.1"/>
<path d="M549.109 647.841H302.587V653.841H549.109V647.841ZM302.587 647.841C286.883 647.841 274.032 635.019 274.032 619.383H268.032C268.032 638.35 283.587 653.841 302.587 653.841V647.841ZM274.032 619.383V270.007H268.032V619.383H274.032ZM274.032 270.007C274.032 254.372 286.882 241.556 302.587 241.556V235.556C283.588 235.556 268.032 251.039 268.032 270.007H274.032ZM302.587 241.556H549.109V235.556H302.587V241.556ZM549.109 241.556C564.821 241.556 577.671 254.372 577.671 270.007H583.671C583.671 251.038 568.114 235.556 549.109 235.556V241.556ZM577.671 270.007V619.383H583.671V270.007H577.671ZM577.671 619.383C577.671 635.019 564.82 647.841 549.109 647.841V653.841C568.115 653.841 583.671 638.351 583.671 619.383H577.671Z" fill="url(#paint2_linear_457_2424)" mask="url(#path-30-inside-3_457_2424)"/>
</g>
<path id="Fill 11" opacity="0.5" fill-rule="evenodd" clip-rule="evenodd" d="M513.575 345H331.489C326.289 345 322.032 340.951 322.032 336.003C322.032 331.049 326.289 327 331.489 327H513.575C518.775 327 523.032 331.049 523.032 336.003C523.032 340.951 518.775 345 513.575 345Z" fill="#E0E2EE"/>
<path id="Fill 13" opacity="0.5" fill-rule="evenodd" clip-rule="evenodd" d="M513.575 399H331.489C326.289 399 322.032 394.951 322.032 390.003C322.032 385.049 326.289 381 331.489 381H513.575C518.775 381 523.032 385.049 523.032 390.003C523.032 394.951 518.775 399 513.575 399Z" fill="#E0E2EE"/>
<path id="Fill 15" opacity="0.5" fill-rule="evenodd" clip-rule="evenodd" d="M513.575 453H331.489C326.289 453 322.032 448.951 322.032 444.003C322.032 439.056 326.289 435 331.489 435H513.575C518.775 435 523.032 439.056 523.032 444.003C523.032 448.951 518.775 453 513.575 453Z" fill="#E0E2EE"/>
<path id="Fill 17" opacity="0.5" fill-rule="evenodd" clip-rule="evenodd" d="M513.575 507H331.489C326.289 507 322.032 502.951 322.032 498.003C322.032 493.049 326.289 489 331.489 489H513.575C518.775 489 523.032 493.049 523.032 498.003C523.032 502.951 518.775 507 513.575 507Z" fill="#E0E2EE"/>
<path id="Fill 19" opacity="0.5" fill-rule="evenodd" clip-rule="evenodd" d="M426.535 561H331.529C326.307 561 322.032 556.951 322.032 552.003C322.032 547.049 326.307 543 331.529 543H426.535C431.757 543 436.032 547.049 436.032 552.003C436.032 556.951 431.757 561 426.535 561Z" fill="#E0E2EE"/>
</g>
<g id="search_2">
<path id="Fill 21" fill-rule="evenodd" clip-rule="evenodd" d="M618.297 491.21C581.887 527.614 525.519 531.721 484.597 503.615C479.367 499.958 474.39 495.851 469.748 491.21C467.358 488.829 465.106 486.371 462.983 483.783C458.738 478.615 455.02 473.104 451.974 467.409C446.607 457.791 442.957 447.585 440.965 437.036C434.536 403.952 444.148 368.342 469.748 342.755C495.408 317.091 531.024 307.542 564.113 313.908C574.657 315.962 584.872 319.61 594.492 324.916C600.195 328.03 605.631 331.748 610.807 335.992C613.388 338.106 615.846 340.366 618.228 342.755C622.878 347.396 627.046 352.366 630.635 357.602C658.753 398.51 654.638 454.875 618.297 491.21Z" fill="white" fill-opacity="0.1"/>
<path id="Fill 23" fill-rule="evenodd" clip-rule="evenodd" d="M608.108 484.041C570.229 521.927 508.842 521.92 470.955 484.041C433.117 446.203 433.117 384.809 471.004 346.929C508.842 309.091 570.229 309.091 608.066 346.929C645.946 384.809 645.946 446.203 608.108 484.041ZM627.549 327.467C578.927 278.844 500.136 278.844 451.514 327.467C402.899 376.082 402.857 454.921 451.472 503.543C495.724 547.781 565.083 551.771 613.867 515.449C618.632 511.896 623.221 507.914 627.598 503.543C631.968 499.166 635.951 494.577 639.496 489.813C675.818 441.021 671.794 371.711 627.549 327.467Z" fill="#9A95A6"/>
<path id="Fill 27" fill-rule="evenodd" clip-rule="evenodd" d="M642.184 486L755.952 599.768C763.176 606.992 763.175 618.703 755.951 625.925C748.728 633.147 737.018 633.146 729.797 625.923L616.032 512.152C620.894 508.527 625.569 504.463 630.043 500.004C634.503 495.545 638.566 490.862 642.184 486Z" fill="#9A95A6"/>
</g>
</g>
</g>
<defs>
<filter id="filter0_b_457_2424" x="271.032" y="168" width="393" height="498" filterUnits="userSpaceOnUse" color-interpolation-filters="sRGB">
<feFlood flood-opacity="0" result="BackgroundImageFix"/>
<feGaussianBlur in="BackgroundImageFix" stdDeviation="7"/>
<feComposite in2="SourceAlpha" operator="in" result="effect1_backgroundBlur_457_2424"/>
<feBlend mode="normal" in="SourceGraphic" in2="effect1_backgroundBlur_457_2424" result="shape"/>
</filter>
<filter id="filter1_b_457_2424" x="250.032" y="183" width="393" height="498" filterUnits="userSpaceOnUse" color-interpolation-filters="sRGB">
<feFlood flood-opacity="0" result="BackgroundImageFix"/>
<feGaussianBlur in="BackgroundImageFix" stdDeviation="7"/>
<feComposite in2="SourceAlpha" operator="in" result="effect1_backgroundBlur_457_2424"/>
<feBlend mode="normal" in="SourceGraphic" in2="effect1_backgroundBlur_457_2424" result="shape"/>
</filter>
<filter id="filter2_b_457_2424" x="229.032" y="196.556" width="393.639" height="496.286" filterUnits="userSpaceOnUse" color-interpolation-filters="sRGB">
<feFlood flood-opacity="0" result="BackgroundImageFix"/>
<feGaussianBlur in="BackgroundImageFix" stdDeviation="7"/>
<feComposite in2="SourceAlpha" operator="in" result="effect1_backgroundBlur_457_2424"/>
<feBlend mode="normal" in="SourceGraphic" in2="effect1_backgroundBlur_457_2424" result="shape"/>
</filter>
<linearGradient id="paint0_linear_457_2424" x1="408.985" y1="219.713" x2="671.792" y2="477.48" gradientUnits="userSpaceOnUse">
<stop stop-color="white" stop-opacity="0.4"/>
<stop offset="1" stop-color="white" stop-opacity="0.1"/>
</linearGradient>
<linearGradient id="paint1_linear_457_2424" x1="387.985" y1="234.713" x2="650.792" y2="492.48" gradientUnits="userSpaceOnUse">
<stop stop-color="white" stop-opacity="0.4"/>
<stop offset="1" stop-color="white" stop-opacity="0.1"/>
</linearGradient>
<linearGradient id="paint2_linear_457_2424" x1="367.183" y1="248.229" x2="628.929" y2="506.555" gradientUnits="userSpaceOnUse">
<stop stop-color="white" stop-opacity="0.4"/>
<stop offset="1" stop-color="white" stop-opacity="0.1"/>
</linearGradient>
</defs>
</svg>
