<svg width="36" height="36" viewBox="0 0 36 36" fill="none" xmlns="http://www.w3.org/2000/svg">
<g id="Telegram">
<rect width="36" height="36" rx="18" fill="url(#paint0_linear_480_14727)"/>
<path id="Vector" fill-rule="evenodd" clip-rule="evenodd" d="M8.14851 17.81C13.3959 15.5239 16.8949 14.0167 18.6457 13.2885C23.6445 11.2093 24.6832 10.8481 25.3602 10.8362C25.5091 10.8336 25.8421 10.8705 26.0577 11.0455C26.2398 11.1932 26.2899 11.3928 26.3139 11.5329C26.3379 11.673 26.3677 11.9922 26.344 12.2415C26.0731 15.0877 24.901 21.9948 24.3047 25.1826C24.0524 26.5315 23.5555 26.9838 23.0746 27.028C22.0293 27.1242 21.2355 26.3372 20.2231 25.6736C18.6389 24.6351 17.7439 23.9886 16.2061 22.9752C14.4289 21.8041 15.581 21.1605 16.5938 20.1085C16.8588 19.8332 21.4644 15.6441 21.5536 15.2641C21.5647 15.2165 21.5751 15.0394 21.4698 14.9458C21.3646 14.8523 21.2092 14.8843 21.0971 14.9097C20.9382 14.9458 18.4074 16.6186 13.5046 19.9281C12.7863 20.4214 12.1356 20.6617 11.5526 20.6491C10.9099 20.6352 9.67363 20.2857 8.75458 19.987C7.62733 19.6206 6.73141 19.4268 6.80942 18.8045C6.85006 18.4804 7.29642 18.1489 8.14851 17.81Z" fill="white"/>
</g>
<defs>
<linearGradient id="paint0_linear_480_14727" x1="18" y1="0" x2="18" y2="35.733" gradientUnits="userSpaceOnUse">
<stop stop-color="#2AABEE"/>
<stop offset="1" stop-color="#229ED9"/>
</linearGradient>
</defs>
</svg>
