<svg width="36" height="36" viewBox="0 0 36 36" fill="none" xmlns="http://www.w3.org/2000/svg">
<g clip-path="url(#clip0_480_14760)">
<path d="M18 36C27.9411 36 36 27.9411 36 18C36 8.05888 27.9411 0 18 0C8.05888 0 0 8.05888 0 18C0 27.9411 8.05888 36 18 36Z" fill="#00A6DE"/>
<path d="M26.9639 12.5521C26.5384 13.1912 26.0186 13.7621 25.422 14.2455C25.3468 14.3081 25.2866 14.3868 25.2456 14.4757C25.2046 14.5646 25.184 14.6615 25.1852 14.7594V14.8186C25.1782 16.1022 24.9424 17.3742 24.4889 18.5749C24.0215 19.8352 23.3271 20.9992 22.4402 22.0092C21.2483 23.366 19.715 24.3792 17.9994 24.9436C16.8721 25.3095 15.6935 25.4926 14.5083 25.486C12.6281 25.4858 10.7815 24.9881 9.15572 24.0436C9.09746 24.0105 9.0516 23.9593 9.0251 23.8977C8.9986 23.8362 8.9929 23.7677 9.00888 23.7026C9.02527 23.6385 9.06262 23.5818 9.11499 23.5415C9.16736 23.5011 9.23172 23.4795 9.29782 23.4799H9.74782C11.1767 23.4835 12.5739 23.0595 13.7599 22.2626C13.0531 22.1481 12.3917 21.8408 11.8484 21.3744C11.3051 20.908 10.9011 20.3007 10.681 19.6194C10.6697 19.5853 10.6677 19.5488 10.6751 19.5136C10.6824 19.4785 10.699 19.4459 10.7231 19.4192C10.7471 19.3925 10.7778 19.3726 10.812 19.3616C10.8462 19.3506 10.8827 19.3489 10.9178 19.3565C11.1334 19.3971 11.3522 19.4177 11.5715 19.4181H11.6544C10.9713 19.1043 10.3937 18.5993 9.99148 17.9642C9.58925 17.3291 9.37958 16.5911 9.38782 15.8394C9.38807 15.8042 9.39742 15.7697 9.41496 15.7392C9.4325 15.7088 9.45764 15.6833 9.48793 15.6655C9.51822 15.6476 9.55262 15.6378 9.58779 15.6372C9.62296 15.6365 9.65769 15.645 9.68861 15.6618C9.96646 15.8169 10.2646 15.9325 10.5744 16.0052C9.96205 15.3994 9.56817 14.6074 9.45458 13.7535C9.34099 12.8996 9.51411 12.0322 9.94677 11.2873C9.96314 11.2587 9.98621 11.2345 10.014 11.2168C10.0418 11.199 10.0734 11.1883 10.1063 11.1855C10.1391 11.1827 10.1722 11.1879 10.2025 11.2007C10.2329 11.2135 10.2597 11.2335 10.2807 11.2589C11.1361 12.3181 12.1956 13.1946 13.3962 13.8366C14.5968 14.4786 15.9141 14.873 17.2699 14.9963H17.2889C17.3088 14.9957 17.3284 14.9911 17.3465 14.9827C17.3645 14.9743 17.3807 14.9623 17.394 14.9474C17.4073 14.9326 17.4174 14.9152 17.4238 14.8963C17.4302 14.8774 17.4326 14.8574 17.431 14.8376C17.3781 14.3623 17.4086 13.8814 17.521 13.4165C17.6738 12.7847 17.9875 12.2031 18.4315 11.7283C18.8756 11.2535 19.4349 10.9017 20.0552 10.7071C20.4531 10.5827 20.8675 10.5189 21.2844 10.5176C22.2297 10.5165 23.1428 10.861 23.8518 11.4863C23.9436 11.5684 24.0625 11.614 24.1857 11.6142C24.2257 11.6133 24.2655 11.6077 24.3041 11.5976C24.9703 11.4293 25.6085 11.1652 26.1989 10.8136C26.2342 10.7918 26.2754 10.7815 26.3168 10.784C26.3583 10.7866 26.3979 10.8018 26.4303 10.8278C26.4627 10.8537 26.4863 10.889 26.4979 10.9289C26.5095 10.9688 26.5084 11.0112 26.4949 11.0505C26.2978 11.6705 25.9466 12.2303 25.4741 12.6776C25.8998 12.5761 26.3152 12.4358 26.7152 12.2584C26.7547 12.2431 26.7979 12.2406 26.8389 12.251C26.8799 12.2615 26.9166 12.2845 26.944 12.3168C26.9713 12.3491 26.9879 12.3891 26.9915 12.4312C26.9951 12.4734 26.9854 12.5156 26.9639 12.5521Z" fill="white"/>
</g>
<defs>
<clipPath id="clip0_480_14760">
<rect width="36" height="36" fill="white"/>
</clipPath>
</defs>
</svg>
