<svg width="36" height="36" viewBox="0 0 36 36" fill="none" xmlns="http://www.w3.org/2000/svg">
<g clip-path="url(#clip0_480_14749)">
<path d="M18 36C27.9411 36 36 27.9411 36 18C36 8.05888 27.9411 0 18 0C8.05888 0 0 8.05888 0 18C0 27.9411 8.05888 36 18 36Z" fill="#2AA81A"/>
<path d="M24.3504 11.6509C22.8526 10.1361 20.8625 9.20674 18.7396 9.03059C16.6166 8.85444 14.5006 9.44311 12.7736 10.6903C11.0466 11.9375 9.82241 13.7611 9.32206 15.8318C8.82171 17.9024 9.07817 20.0838 10.0451 21.9819L9.09776 26.5814C9.08762 26.6274 9.08723 26.6749 9.09661 26.721C9.10599 26.7671 9.12494 26.8107 9.15224 26.8491C9.19132 26.9071 9.2472 26.9518 9.31238 26.9772C9.37756 27.0026 9.44894 27.0074 9.51697 26.9912L14.017 25.923C15.9099 26.8646 18.0756 27.104 20.1285 26.5985C22.1814 26.093 23.9883 24.8754 25.2277 23.1625C26.467 21.4496 27.0583 19.3526 26.8964 17.2445C26.7344 15.1365 25.8297 13.1544 24.3433 11.6509H24.3504ZM22.9436 22.8701C21.9077 23.9042 20.5737 24.5875 19.1293 24.8242C17.6849 25.0608 16.2026 24.8388 14.8909 24.1893L14.2609 23.8767L11.497 24.5304V24.4948L12.0796 21.7072L11.7717 21.1009C11.101 19.7856 10.8642 18.2917 11.0953 16.8335C11.3263 15.3753 12.0133 14.0278 13.0578 12.9843C14.3692 11.6743 16.147 10.9384 18.0007 10.9384C19.8543 10.9384 21.6321 11.6743 22.9436 12.9843L22.9743 13.0269C24.2687 14.3412 24.9913 16.1136 24.9846 17.9582C24.978 19.8028 24.2426 21.57 22.9388 22.8748L22.9436 22.8701Z" fill="white"/>
<path d="M22.7004 20.8435C22.3618 21.3764 21.8241 22.0278 21.1539 22.1912C19.9697 22.4754 18.1673 22.1912 15.9102 20.1046L15.8818 20.0785C13.9183 18.2454 13.3973 16.7177 13.5133 15.5075C13.582 14.8183 14.1552 14.1977 14.6383 13.7904C14.7152 13.7256 14.8061 13.6797 14.9038 13.6563C15.0015 13.633 15.1034 13.6328 15.2012 13.6558C15.299 13.6788 15.39 13.7244 15.4671 13.7889C15.5441 13.8534 15.605 13.935 15.6449 14.0272L16.372 15.6709C16.4195 15.7767 16.4373 15.8934 16.4235 16.0086C16.4098 16.1237 16.3649 16.233 16.2939 16.3246L15.9244 16.7983C15.8476 16.8966 15.8019 17.0156 15.793 17.14C15.7841 17.2645 15.8126 17.3887 15.8747 17.497C16.2256 18.0142 16.6455 18.4812 17.1228 18.8849C17.6363 19.379 18.2187 19.7963 18.8518 20.1235C18.9673 20.1701 19.0941 20.1812 19.216 20.1555C19.3379 20.1298 19.4494 20.0684 19.5362 19.9791L19.9602 19.548C20.0408 19.4613 20.144 19.3985 20.2581 19.3668C20.3722 19.335 20.4929 19.3354 20.6068 19.368L22.3357 19.863C22.4337 19.8909 22.5237 19.9414 22.5985 20.0106C22.6733 20.0797 22.7308 20.1655 22.7663 20.2609C22.8018 20.3564 22.8144 20.4589 22.8029 20.5601C22.7915 20.6613 22.7564 20.7584 22.7004 20.8435Z" fill="white"/>
</g>
<defs>
<clipPath id="clip0_480_14749">
<rect width="36" height="36" fill="white"/>
</clipPath>
</defs>
</svg>
