<svg width="35" height="36" viewBox="0 0 35 36" fill="none" xmlns="http://www.w3.org/2000/svg">
<g id="Crypto Logos / Bitcoin">
<rect y="0.549683" width="34.9006" height="34.9006" rx="17.4503" fill="#F6931A"/>
<path id="Vector" d="M23.8424 18.6266C24.1688 18.7995 24.4797 19.0002 24.7715 19.2267C25.7903 20.0344 26.221 21.0849 26.057 22.3725C25.9485 23.3275 25.611 24.2421 25.0732 25.0386C24.4119 25.9994 23.473 26.5186 22.3405 26.7131C21.4016 26.8749 20.4637 26.8225 19.5269 26.6967C19.1859 26.6519 18.8471 26.594 18.5093 26.5317C18.4 26.5109 18.3661 26.5459 18.341 26.6498C18.083 27.7013 17.8152 28.7506 17.5594 29.8033C17.5233 29.9519 17.4796 29.9782 17.3299 29.9377C16.7385 29.7781 16.1417 29.6328 15.546 29.4896C15.4367 29.4655 15.4246 29.4349 15.4498 29.3322C15.7143 28.2872 15.9712 27.24 16.2368 26.195C16.2663 26.077 16.2554 26.0278 16.1275 25.9972C15.6662 25.8835 15.2064 25.7633 14.748 25.6365C14.6311 25.6037 14.5972 25.6365 14.5698 25.7458C14.3119 26.7973 14.0452 27.8478 13.7883 28.8993C13.7588 29.0174 13.7249 29.037 13.6079 29.0086C13.006 28.8527 12.4015 28.7022 11.7945 28.5572C11.6852 28.5309 11.6699 28.485 11.6951 28.3812C11.9618 27.3264 12.2197 26.2694 12.4886 25.2113C12.5236 25.0746 12.4952 25.0298 12.3618 24.9926C11.0501 24.6647 9.74828 24.3368 8.44096 24.0089C8.34805 23.9859 8.31963 23.963 8.36335 23.8646C8.68253 23.1359 8.9977 22.4072 9.30886 21.6784C9.34821 21.5855 9.3974 21.5877 9.48048 21.6107C9.93082 21.7287 10.3801 21.8511 10.8337 21.9517C11.3999 22.0774 11.7344 21.8555 11.8743 21.2959C12.305 19.5681 12.7364 17.8406 13.1685 16.1136C13.4964 14.8019 13.8244 13.4902 14.1523 12.1785C14.2845 11.6473 14.0058 11.1357 13.4604 10.9258C13.0355 10.7811 12.6017 10.6639 12.1618 10.575C12.0328 10.5433 11.9049 10.5094 11.7748 10.4853C11.7038 10.4722 11.694 10.4449 11.7104 10.376C11.882 9.69504 12.0536 9.01405 12.2186 8.33087C12.2471 8.20845 12.3203 8.2478 12.387 8.2642C12.9051 8.39209 13.421 8.52544 13.9402 8.65224C14.7251 8.84244 15.5033 9.06214 16.2925 9.23813C16.4226 9.26764 16.4718 9.25124 16.5057 9.11352C16.7571 8.07618 17.0194 7.03668 17.2708 6.00481C17.3025 5.87473 17.3419 5.83757 17.4785 5.87364C18.071 6.03104 18.6667 6.1786 19.2624 6.3207C19.3881 6.35131 19.4001 6.39941 19.3717 6.51637C19.1116 7.54058 18.8591 8.56698 18.6 9.5912C18.5727 9.7005 18.5836 9.7322 18.6995 9.75843C19.163 9.86009 19.6264 9.9694 20.0866 10.0864C20.2189 10.1213 20.256 10.0787 20.2855 9.96065C20.5304 8.95939 20.7818 7.96032 21.0256 6.95906C21.0594 6.82134 21.0977 6.77215 21.2551 6.81478C21.841 6.97327 22.4323 7.11756 23.0226 7.25857C23.1385 7.28589 23.1614 7.32415 23.1319 7.44111C22.8674 8.48609 22.6127 9.53326 22.3449 10.5771C22.311 10.7105 22.3449 10.7499 22.463 10.7958C23.2832 11.063 24.064 11.4387 24.7846 11.9129C25.4613 12.3753 26.022 12.9393 26.3259 13.7186C26.6538 14.5723 26.5893 15.4315 26.3335 16.2863C25.9728 17.4967 25.1796 18.2618 23.9539 18.5817C23.9124 18.5883 23.885 18.6036 23.8424 18.6266ZM19.0919 23.7859H19.234C19.7456 23.7695 20.2484 23.7137 20.7151 23.4875C21.8946 22.9147 22.147 21.345 21.2157 20.3897C20.6692 19.8322 19.9893 19.5152 19.2777 19.2507C18.4033 18.9228 17.4818 18.7348 16.5724 18.5151C16.4401 18.4834 16.415 18.5249 16.3876 18.6364C16.0327 20.0785 15.6735 21.5192 15.3099 22.9584C15.2803 23.0743 15.3164 23.1027 15.4192 23.1268C15.8094 23.2208 16.1963 23.3268 16.5866 23.4219C17.4052 23.6332 18.2447 23.7534 19.0897 23.7804L19.0919 23.7859ZM20.0341 16.9432C20.315 16.9482 20.5956 16.924 20.8714 16.8711C21.6005 16.718 22.1274 16.3245 22.3394 15.5889C22.5515 14.8533 22.3777 14.1898 21.7929 13.6585C21.4828 13.3853 21.1307 13.1638 20.7501 13.0027C19.9008 12.6234 18.9946 12.4332 18.0917 12.2299C17.9824 12.2047 17.9737 12.2725 17.9551 12.3479C17.8239 12.8755 17.6917 13.4035 17.5583 13.9318C17.367 14.697 17.1768 15.4698 16.9801 16.2371C16.9517 16.3464 16.9702 16.3945 17.0894 16.4207C17.3167 16.4688 17.5386 16.5377 17.7649 16.5934C18.5104 16.7683 19.2591 16.9345 20.032 16.9378L20.0341 16.9432Z" fill="white"/>
</g>
</svg>
