<svg width="26" height="26" viewBox="0 0 26 26" fill="none" xmlns="http://www.w3.org/2000/svg">
<g id="Group">
<g id="Group_2">
<path id="Path" d="M12.9972 18.5022C12.7221 18.5022 12.497 18.7273 12.5 19.0024C12.5 19.2775 12.7251 19.5026 13.0002 19.5026C13.2754 19.5026 13.5004 19.2775 13.5004 19.0024C13.5004 18.7273 13.2754 18.5022 12.9972 18.5022" stroke="white" stroke-width="1.5" stroke-linecap="round" stroke-linejoin="round"/>
<path id="Path_2" d="M12.9972 12.4998C12.7221 12.4998 12.497 12.7248 12.5 13C12.5 13.2751 12.7251 13.5002 13.0002 13.5002C13.2754 13.5002 13.5004 13.2751 13.5004 13C13.5004 12.7248 13.2754 12.4998 12.9972 12.4998" stroke="white" stroke-width="1.5" stroke-linecap="round" stroke-linejoin="round"/>
<path id="Path_3" d="M12.9972 6.49731C12.7221 6.49731 12.497 6.72241 12.5 6.99752C12.5 7.27264 12.7251 7.49773 13.0002 7.49773C13.2754 7.49773 13.5004 7.27264 13.5004 6.99752C13.5004 6.72241 13.2754 6.49731 12.9972 6.49731" stroke="white" stroke-width="1.5" stroke-linecap="round" stroke-linejoin="round"/>
</g>
</g>
</svg>
