<svg width="24" height="24" viewBox="0 0 24 24" fill="none" xmlns="http://www.w3.org/2000/svg">
<g id="Group">
<g id="Group_2">
<path id="Path" fill-rule="evenodd" clip-rule="evenodd" d="M3 6.8V6.8C3 7.4 3.3 7.9 3.8 8.3L9.8 12.4C11.2 13.3 12.9 13.3 14.3 12.4L20.3 8.4C20.7 7.9 21 7.4 21 6.8V6.8C21 5.8 20.2 5 19.2 5H4.8C3.8 5 3 5.8 3 6.8Z" stroke="white" stroke-width="1.5" stroke-linecap="round" stroke-linejoin="round"/>
<path id="Path_2" d="M3 7V17C3 18.1 3.9 19 5 19H19C20.1 19 21 18.1 21 17V7" stroke="white" stroke-width="1.5" stroke-linecap="round" stroke-linejoin="round"/>
<path id="Path_3" d="M3.58984 18.4124L9.68384 12.3184" stroke="white" stroke-width="1.5" stroke-linecap="round" stroke-linejoin="round"/>
<path id="Path_4" d="M14.3594 12.3594L20.4114 18.4114" stroke="white" stroke-width="1.5" stroke-linecap="round" stroke-linejoin="round"/>
</g>
</g>
</svg>
