<svg width="25" height="24" viewBox="0 0 25 24" fill="none" xmlns="http://www.w3.org/2000/svg">
<g id="Frame 2131331373">
<g id="01.facebook">
<path id="icon" d="M16.4131 10.2971L16.1146 12.8029C16.1018 12.9193 16.0462 13.0268 15.9587 13.1046C15.8713 13.1825 15.758 13.2252 15.6409 13.2245H13.0357V20.6613C13.0363 20.7501 13.0018 20.8355 12.9397 20.899C12.8776 20.9624 12.7929 20.9988 12.7041 21H10.0491C10.0049 20.9994 9.96132 20.9901 9.92076 20.9726C9.88019 20.9551 9.84346 20.9298 9.81267 20.8982C9.78188 20.8665 9.75763 20.8291 9.7413 20.788C9.72498 20.747 9.7169 20.7031 9.71752 20.6589L9.73174 13.2245H7.75884C7.63321 13.2245 7.51273 13.1746 7.42389 13.0857C7.33506 12.9969 7.28516 12.8764 7.28516 12.7508V10.245C7.28516 10.1194 7.33506 9.99889 7.42389 9.91006C7.51273 9.82122 7.63321 9.77132 7.75884 9.77132H9.71989V7.34132C9.71989 4.53 11.392 3 13.8409 3H15.847C15.9726 3 16.0931 3.04991 16.1819 3.13874C16.2708 3.22757 16.3207 3.34806 16.3207 3.47368V5.58395C16.3207 5.70958 16.2708 5.83006 16.1819 5.91889C16.0931 6.00773 15.9726 6.05763 15.847 6.05763H14.6178C13.2867 6.07895 13.0357 6.71605 13.0357 7.66816V9.76421H15.9512C16.0177 9.76535 16.0833 9.78049 16.1435 9.80864C16.2038 9.83679 16.2575 9.87732 16.301 9.9276C16.3446 9.97787 16.3771 10.0368 16.3964 10.1004C16.4157 10.1641 16.4214 10.2311 16.4131 10.2971Z" fill="white"/>
</g>
</g>
</svg>
