<svg width="25" height="24" viewBox="0 0 25 24" fill="none" xmlns="http://www.w3.org/2000/svg">
<g id="Frame 2131331376">
<g id="10.linkedin">
<g id="icon">
<path id="Vector" d="M8.63169 5.45605C8.63216 5.94248 8.48831 6.41812 8.21836 6.82277C7.9484 7.22742 7.56447 7.54289 7.11516 7.72925C6.66584 7.91562 6.17134 7.9645 5.69423 7.86972C5.21713 7.77494 4.77886 7.54075 4.4349 7.19679C4.09094 6.85283 3.85675 6.41456 3.76197 5.93745C3.66718 5.46035 3.71607 4.96585 3.90243 4.51653C4.0888 4.06722 4.40427 3.68329 4.80892 3.41333C5.21357 3.14338 5.6892 2.99953 6.17563 3C6.82683 3.00063 7.45117 3.25959 7.91163 3.72005C8.3721 4.18052 8.63106 4.80486 8.63169 5.45605Z" fill="white"/>
<path id="Vector_2" d="M7.46844 8.9375H4.88212C4.54595 8.9375 4.27344 9.21002 4.27344 9.54618V20.3912C4.27344 20.7274 4.54595 20.9999 4.88212 20.9999H7.46844C7.80461 20.9999 8.07712 20.7274 8.07712 20.3912V9.54618C8.07712 9.21002 7.80461 8.9375 7.46844 8.9375Z" fill="white"/>
<path id="Vector_3" d="M21.598 15.19V20.4408C21.598 20.5891 21.5391 20.7312 21.4343 20.8361C21.3295 20.9409 21.1873 20.9998 21.0391 20.9998H18.2633C18.115 20.9998 17.9729 20.9409 17.868 20.8361C17.7632 20.7312 17.7043 20.5891 17.7043 20.4408V15.3535C17.7043 14.5932 17.9246 12.0377 15.7196 12.0377C14.0096 12.0377 13.6614 13.795 13.588 14.5837V20.4527C13.5849 20.598 13.5253 20.7365 13.4219 20.8386C13.3184 20.9408 13.1792 20.9986 13.0338 20.9998H10.348C10.2745 21.0001 10.2017 20.9858 10.1337 20.9579C10.0658 20.9299 10.004 20.8887 9.95208 20.8368C9.90012 20.7848 9.85896 20.723 9.83098 20.6551C9.803 20.5871 9.78875 20.5143 9.78907 20.4408V9.49871C9.78876 9.42511 9.80298 9.35218 9.83093 9.28409C9.85888 9.216 9.90001 9.1541 9.95194 9.10195C10.0039 9.04979 10.0656 9.00841 10.1336 8.98017C10.2015 8.95193 10.2744 8.9374 10.348 8.9374H13.0338C13.1083 8.93614 13.1823 8.94973 13.2515 8.97738C13.3207 9.00502 13.3837 9.04617 13.4369 9.09842C13.49 9.15067 13.5322 9.21297 13.561 9.2817C13.5898 9.35042 13.6046 9.4242 13.6046 9.49871V10.4461C14.2393 9.49871 15.182 8.75977 17.188 8.75977C21.6241 8.7574 21.598 12.9092 21.598 15.19Z" fill="white"/>
</g>
</g>
</g>
</svg>
