<svg width="25" height="24" viewBox="0 0 25 24" fill="none" xmlns="http://www.w3.org/2000/svg">
<g id="Frame 2131331377">
<g id="05.instagram">
<g id="icon">
<path id="Vector" d="M16.4953 3H9.21953C7.79799 3.00188 6.43521 3.56742 5.43002 4.5726C4.42484 5.57778 3.8593 6.94056 3.85742 8.36211V15.6379C3.8593 17.0594 4.42484 18.4222 5.43002 19.4274C6.43521 20.4326 7.79799 20.9981 9.21953 21H16.4953C17.9171 20.9987 19.2802 20.4334 20.2855 19.4281C21.2908 18.4228 21.8562 17.0596 21.8574 15.6379V8.36211C21.8555 6.94056 21.29 5.57778 20.2848 4.5726C19.2796 3.56742 17.9169 3.00188 16.4953 3ZM20.0479 15.6379C20.0479 16.5801 19.6737 17.4837 19.0074 18.15C18.3412 18.8162 17.4375 19.1905 16.4953 19.1905H9.21953C8.27731 19.1905 7.37368 18.8162 6.70744 18.15C6.04119 17.4837 5.6669 16.5801 5.6669 15.6379V8.36211C5.6669 7.41989 6.04119 6.51626 6.70744 5.85002C7.37368 5.18377 8.27731 4.80947 9.21953 4.80947H16.4953C17.4375 4.80947 18.3412 5.18377 19.0074 5.85002C19.6737 6.51626 20.0479 7.41989 20.0479 8.36211V15.6379Z" fill="white"/>
<path id="Vector_2" d="M12.8599 7.3457C11.9387 7.34524 11.0381 7.61799 10.2721 8.12945C9.50597 8.64091 8.90879 9.3681 8.55607 10.219C8.20335 11.07 8.11094 12.0064 8.29053 12.9098C8.47012 13.8133 8.91364 14.6432 9.56498 15.2945C10.2163 15.9459 11.0462 16.3894 11.9497 16.569C12.8531 16.7486 13.7896 16.6562 14.6405 16.3034C15.4914 15.9507 16.2186 15.3535 16.7301 14.5875C17.2415 13.8214 17.5143 12.9208 17.5138 11.9997C17.5126 10.7657 17.0218 9.58271 16.1493 8.7102C15.2768 7.83769 14.0938 7.34696 12.8599 7.3457ZM12.8599 14.8418C12.2977 14.8418 11.7483 14.6751 11.2809 14.3628C10.8135 14.0505 10.4492 13.6066 10.2341 13.0873C10.019 12.568 9.9627 11.9965 10.0724 11.4452C10.182 10.8939 10.4527 10.3875 10.8502 9.98998C11.2477 9.5925 11.7541 9.32182 12.3054 9.21216C12.8567 9.10249 13.4282 9.15878 13.9475 9.37389C14.4668 9.589 14.9107 9.95328 15.223 10.4207C15.5353 10.888 15.702 11.4375 15.702 11.9997C15.702 12.7534 15.4025 13.4763 14.8695 14.0093C14.3365 14.5423 13.6136 14.8418 12.8599 14.8418Z" fill="white"/>
<path id="Vector_3" d="M17.5397 8.49742C18.1754 8.49742 18.6908 7.98207 18.6908 7.34636C18.6908 6.71066 18.1754 6.19531 17.5397 6.19531C16.904 6.19531 16.3887 6.71066 16.3887 7.34636C16.3887 7.98207 16.904 8.49742 17.5397 8.49742Z" fill="white"/>
</g>
</g>
</g>
</svg>
