<svg width="1062" height="870" viewBox="0 0 1062 870" fill="none" xmlns="http://www.w3.org/2000/svg">
<g id="No Results">
<g id="circle">
<path id="Stroke 1" d="M34.8164 399V408" stroke="#D2D8DF" stroke-opacity="0.2" stroke-width="2.921" stroke-linecap="round"/>
<g id="Group 8">
<path id="Stroke 2" d="M14.6016 403.875L21.9558 411.446" stroke="#D2D8DF" stroke-opacity="0.2" stroke-width="2.921" stroke-linecap="round"/>
<path id="Stroke 4" d="M6 424.028H16.3989" stroke="#D2D8DF" stroke-opacity="0.2" stroke-width="2.921" stroke-linecap="round"/>
<path id="Stroke 6" d="M13.7578 444.539L21.1121 436.969" stroke="#D2D8DF" stroke-opacity="0.2" stroke-width="2.921" stroke-linecap="round"/>
</g>
<path id="Stroke 9" d="M34.8164 447V438" stroke="#D2D8DF" stroke-opacity="0.2" stroke-width="2.921" stroke-linecap="round"/>
<path id="Stroke 10" d="M49.8164 441L43.8164 435" stroke="#D2D8DF" stroke-opacity="0.2" stroke-width="2.921" stroke-linecap="round"/>
<path id="Stroke 11" d="M61.8164 426H52.8164" stroke="#D2D8DF" stroke-opacity="0.2" stroke-width="2.921" stroke-linecap="round"/>
<path id="Stroke 12" d="M55.8164 405L49.8164 411" stroke="#D2D8DF" stroke-opacity="0.2" stroke-width="2.921" stroke-linecap="round"/>
<path id="Stroke 13" d="M517.816 6V12" stroke="#D2D8DF" stroke-opacity="0.2" stroke-width="2.921" stroke-linecap="round"/>
<path id="Stroke 15" d="M499.816 24H505.816" stroke="#D2D8DF" stroke-opacity="0.2" stroke-width="2.921" stroke-linecap="round"/>
<path id="Stroke 16" d="M517.816 42V36" stroke="#D2D8DF" stroke-opacity="0.2" stroke-width="2.921" stroke-linecap="round"/>
<path id="Stroke 17" d="M532.816 24H526.816" stroke="#D2D8DF" stroke-opacity="0.2" stroke-width="2.921" stroke-linecap="round"/>
<path id="Stroke 18" d="M169.816 258V267" stroke="#D2D8DF" stroke-opacity="0.2" stroke-width="2.921" stroke-linecap="round"/>
<path id="Stroke 19" d="M142.816 285H151.816" stroke="#D2D8DF" stroke-opacity="0.2" stroke-width="2.921" stroke-linecap="round"/>
<path id="Stroke 20" d="M169.816 309V300" stroke="#D2D8DF" stroke-opacity="0.2" stroke-width="2.921" stroke-linecap="round"/>
<path id="Stroke 21" d="M193.816 285H184.816" stroke="#D2D8DF" stroke-opacity="0.2" stroke-width="2.921" stroke-linecap="round"/>
<g id="Group 42">
<path id="Stroke 22" d="M815.578 585.117C822.747 585.117 828.562 590.933 828.562 598.105C828.562 605.278 822.747 611.092 815.578 611.092C808.408 611.092 802.594 605.278 802.594 598.105" stroke="#D2D8DF" stroke-opacity="0.2" stroke-width="2.921" stroke-linecap="round"/>
<path id="Fill 26" fill-rule="evenodd" clip-rule="evenodd" d="M874.998 467.29C882.707 464.885 894.525 455.457 897.26 445.312C899.741 454.28 910.14 464.885 919.523 465.688C908.961 469.428 898.862 480.537 897.26 489.265C896.17 480.369 882.203 468.587 874.998 467.29Z" fill="#EBECEE" fill-opacity="0.2"/>
<path id="Fill 28" fill-rule="evenodd" clip-rule="evenodd" d="M83.6309 581.116C87.4868 579.914 93.393 575.201 94.7607 570.129C96.001 574.61 101.199 579.914 105.891 580.317C100.611 582.184 95.563 587.74 94.7607 592.104C94.2157 587.656 87.2321 581.764 83.6309 581.116Z" fill="#EBECEE" fill-opacity="0.2"/>
<path id="Fill 30" fill-rule="evenodd" clip-rule="evenodd" d="M155.188 163.791C155.188 169.355 150.68 173.862 145.121 173.862C139.558 173.862 135.053 169.355 135.053 163.791C135.053 158.23 139.558 153.721 145.121 153.721C150.68 153.721 155.188 158.23 155.188 163.791Z" fill="#484848"/>
<path id="Fill 32" fill-rule="evenodd" clip-rule="evenodd" d="M827.473 190.832C827.473 200.128 819.937 207.663 810.646 207.663C801.35 207.663 793.816 200.128 793.816 190.832C793.816 181.536 801.35 174 810.646 174C819.937 174 827.473 181.536 827.473 190.832Z" fill="#EBECEE" fill-opacity="0.2"/>
<path id="Fill 34" fill-rule="evenodd" clip-rule="evenodd" d="M1060.56 145.229C1060.56 152.604 1054.58 158.58 1047.21 158.58C1039.84 158.58 1033.86 152.604 1033.86 145.229C1033.86 137.853 1039.84 131.877 1047.21 131.877C1054.58 131.877 1060.56 137.853 1060.56 145.229Z" fill="#EBECEE" fill-opacity="0.2"/>
<path id="Stroke 36" fill-rule="evenodd" clip-rule="evenodd" d="M343.347 768.803C343.347 773.452 339.58 777.22 334.932 777.22C330.286 777.22 326.52 773.452 326.52 768.803C326.52 764.154 330.286 760.386 334.932 760.386C339.58 760.386 343.347 764.154 343.347 768.803Z" stroke="#D2D8DF" stroke-opacity="0.2" stroke-width="2.921" stroke-linecap="round"/>
<path id="Stroke 38" fill-rule="evenodd" clip-rule="evenodd" d="M338.341 99.0948C338.341 104.659 333.833 109.165 328.273 109.165C322.713 109.165 318.205 104.659 318.205 99.0948C318.205 93.5336 322.713 89.0244 328.273 89.0244C333.833 89.0244 338.341 93.5336 338.341 99.0948Z" stroke="#D2D8DF" stroke-opacity="0.2" stroke-width="2.921" stroke-linecap="round"/>
<path id="Stroke 40" fill-rule="evenodd" clip-rule="evenodd" d="M595.149 862.008C588.716 864.457 581.516 861.224 579.068 854.791C576.621 848.356 579.85 841.152 586.286 838.706C592.717 836.258 599.917 839.488 602.364 845.923C604.814 852.358 601.582 859.56 595.149 862.008Z" stroke="#D2D8DF" stroke-opacity="0.2" stroke-width="2.921" stroke-linecap="round"/>
</g>
</g>
<g id="search">
<g id="documents">
<g id="Fill 1" filter="url(#filter0_b_515_14130)">
<mask id="path-26-inside-1_515_14130" fill="white">
<path fill-rule="evenodd" clip-rule="evenodd" d="M591.314 624H345.3C327.984 624 313.811 609.784 313.811 592.41V241.582C313.811 224.209 327.984 210 345.3 210H591.314C608.637 210 622.811 224.209 622.811 241.582V592.41C622.811 609.784 608.637 624 591.314 624Z"/>
</mask>
<path fill-rule="evenodd" clip-rule="evenodd" d="M591.314 624H345.3C327.984 624 313.811 609.784 313.811 592.41V241.582C313.811 224.209 327.984 210 345.3 210H591.314C608.637 210 622.811 224.209 622.811 241.582V592.41C622.811 609.784 608.637 624 591.314 624Z" fill="white" fill-opacity="0.1"/>
<path d="M591.314 621H345.3V627H591.314V621ZM345.3 621C329.65 621 316.811 608.136 316.811 592.41H310.811C310.811 611.432 326.319 627 345.3 627V621ZM316.811 592.41V241.582H310.811V592.41H316.811ZM316.811 241.582C316.811 225.858 329.649 213 345.3 213V207C326.32 207 310.811 222.56 310.811 241.582H316.811ZM345.3 213H591.314V207H345.3V213ZM591.314 213C606.972 213 619.811 225.858 619.811 241.582H625.811C625.811 222.559 610.301 207 591.314 207V213ZM619.811 241.582V592.41H625.811V241.582H619.811ZM619.811 592.41C619.811 608.136 606.972 621 591.314 621V627C610.302 627 625.811 611.433 625.811 592.41H619.811Z" fill="url(#paint0_linear_515_14130)" mask="url(#path-26-inside-1_515_14130)"/>
</g>
<g id="Fill 3" filter="url(#filter1_b_515_14130)">
<mask id="path-28-inside-2_515_14130" fill="white">
<path fill-rule="evenodd" clip-rule="evenodd" d="M570.314 639H324.3C306.984 639 292.811 624.784 292.811 607.41V256.582C292.811 239.209 306.984 225 324.3 225H570.314C587.637 225 601.811 239.209 601.811 256.582V607.41C601.811 624.784 587.637 639 570.314 639Z"/>
</mask>
<path fill-rule="evenodd" clip-rule="evenodd" d="M570.314 639H324.3C306.984 639 292.811 624.784 292.811 607.41V256.582C292.811 239.209 306.984 225 324.3 225H570.314C587.637 225 601.811 239.209 601.811 256.582V607.41C601.811 624.784 587.637 639 570.314 639Z" fill="white" fill-opacity="0.1"/>
<path d="M570.314 636H324.3V642H570.314V636ZM324.3 636C308.65 636 295.811 623.136 295.811 607.41H289.811C289.811 626.432 305.319 642 324.3 642V636ZM295.811 607.41V256.582H289.811V607.41H295.811ZM295.811 256.582C295.811 240.858 308.649 228 324.3 228V222C305.32 222 289.811 237.56 289.811 256.582H295.811ZM324.3 228H570.314V222H324.3V228ZM570.314 228C585.972 228 598.811 240.858 598.811 256.582H604.811C604.811 237.559 589.301 222 570.314 222V228ZM598.811 256.582V607.41H604.811V256.582H598.811ZM598.811 607.41C598.811 623.136 585.972 636 570.314 636V642C589.302 642 604.811 626.433 604.811 607.41H598.811Z" fill="url(#paint1_linear_515_14130)" mask="url(#path-28-inside-2_515_14130)"/>
</g>
<g id="Fill 8" filter="url(#filter2_b_515_14130)">
<mask id="path-30-inside-3_515_14130" fill="white">
<path fill-rule="evenodd" clip-rule="evenodd" d="M549.888 650.841H303.365C286.014 650.841 271.811 636.685 271.811 619.383V270.007C271.811 252.705 286.014 238.556 303.365 238.556H549.888C567.246 238.556 581.449 252.705 581.449 270.007V619.383C581.449 636.685 567.246 650.841 549.888 650.841Z"/>
</mask>
<path fill-rule="evenodd" clip-rule="evenodd" d="M549.888 650.841H303.365C286.014 650.841 271.811 636.685 271.811 619.383V270.007C271.811 252.705 286.014 238.556 303.365 238.556H549.888C567.246 238.556 581.449 252.705 581.449 270.007V619.383C581.449 636.685 567.246 650.841 549.888 650.841Z" fill="white" fill-opacity="0.1"/>
<path d="M549.888 647.841H303.365V653.841H549.888V647.841ZM303.365 647.841C287.662 647.841 274.811 635.019 274.811 619.383H268.811C268.811 638.35 284.366 653.841 303.365 653.841V647.841ZM274.811 619.383V270.007H268.811V619.383H274.811ZM274.811 270.007C274.811 254.372 287.661 241.556 303.365 241.556V235.556C284.366 235.556 268.811 251.039 268.811 270.007H274.811ZM303.365 241.556H549.888V235.556H303.365V241.556ZM549.888 241.556C565.599 241.556 578.449 254.372 578.449 270.007H584.449C584.449 251.038 568.893 235.556 549.888 235.556V241.556ZM578.449 270.007V619.383H584.449V270.007H578.449ZM578.449 619.383C578.449 635.019 565.599 647.841 549.888 647.841V653.841C568.894 653.841 584.449 638.351 584.449 619.383H578.449Z" fill="url(#paint2_linear_515_14130)" mask="url(#path-30-inside-3_515_14130)"/>
</g>
<path id="Fill 11" opacity="0.5" fill-rule="evenodd" clip-rule="evenodd" d="M514.354 345H332.267C327.067 345 322.811 340.951 322.811 336.003C322.811 331.049 327.067 327 332.267 327H514.354C519.554 327 523.811 331.049 523.811 336.003C523.811 340.951 519.554 345 514.354 345Z" fill="#E0E2EE"/>
<path id="Fill 13" opacity="0.5" fill-rule="evenodd" clip-rule="evenodd" d="M514.354 399H332.267C327.067 399 322.811 394.951 322.811 390.003C322.811 385.049 327.067 381 332.267 381H514.354C519.554 381 523.811 385.049 523.811 390.003C523.811 394.951 519.554 399 514.354 399Z" fill="#E0E2EE"/>
<path id="Fill 15" opacity="0.5" fill-rule="evenodd" clip-rule="evenodd" d="M514.354 453H332.267C327.067 453 322.811 448.951 322.811 444.003C322.811 439.056 327.067 435 332.267 435H514.354C519.554 435 523.811 439.056 523.811 444.003C523.811 448.951 519.554 453 514.354 453Z" fill="#E0E2EE"/>
<path id="Fill 17" opacity="0.5" fill-rule="evenodd" clip-rule="evenodd" d="M514.354 507H332.267C327.067 507 322.811 502.951 322.811 498.003C322.811 493.049 327.067 489 332.267 489H514.354C519.554 489 523.811 493.049 523.811 498.003C523.811 502.951 519.554 507 514.354 507Z" fill="#E0E2EE"/>
<path id="Fill 19" opacity="0.5" fill-rule="evenodd" clip-rule="evenodd" d="M427.314 561H332.308C327.085 561 322.811 556.951 322.811 552.003C322.811 547.049 327.085 543 332.308 543H427.314C432.536 543 436.811 547.049 436.811 552.003C436.811 556.951 432.536 561 427.314 561Z" fill="#E0E2EE"/>
</g>
<g id="search_2">
<path id="Fill 21" fill-rule="evenodd" clip-rule="evenodd" d="M619.075 491.21C582.665 527.614 526.298 531.721 485.376 503.615C480.146 499.958 475.168 495.851 470.526 491.21C468.136 488.829 465.884 486.371 463.762 483.783C459.517 478.615 455.799 473.104 452.752 467.409C447.385 457.791 443.736 447.585 441.743 437.036C435.315 403.952 444.927 368.342 470.526 342.755C496.187 317.091 531.803 307.542 564.892 313.908C575.435 315.962 585.651 319.61 595.27 324.916C600.973 328.03 606.409 331.748 611.586 335.992C614.166 338.106 616.625 340.366 619.007 342.755C623.656 347.396 627.825 352.366 631.413 357.602C659.532 398.51 655.417 454.875 619.075 491.21Z" fill="white" fill-opacity="0.1"/>
<path id="Fill 23" fill-rule="evenodd" clip-rule="evenodd" d="M608.887 484.041C571.007 521.927 509.62 521.92 471.733 484.041C433.896 446.203 433.896 384.809 471.783 346.929C509.62 309.091 571.007 309.091 608.845 346.929C646.725 384.809 646.725 446.203 608.887 484.041ZM628.327 327.467C579.705 278.844 500.915 278.844 452.293 327.467C403.678 376.082 403.636 454.921 452.251 503.543C496.502 547.781 565.862 551.771 614.646 515.449C619.411 511.896 623.999 507.914 628.377 503.543C632.747 499.166 636.729 494.577 640.275 489.813C676.597 441.021 672.572 371.711 628.327 327.467Z" fill="#9A95A6"/>
<path id="Fill 27" fill-rule="evenodd" clip-rule="evenodd" d="M642.963 486L756.731 599.768C763.954 606.992 763.954 618.703 756.729 625.925C749.506 633.147 737.797 633.146 730.575 625.923L616.811 512.152C621.673 508.527 626.348 504.463 630.822 500.004C635.281 495.545 639.345 490.862 642.963 486Z" fill="#9A95A6"/>
</g>
</g>
</g>
<defs>
<filter id="filter0_b_515_14130" x="271.811" y="168" width="393" height="498" filterUnits="userSpaceOnUse" color-interpolation-filters="sRGB">
<feFlood flood-opacity="0" result="BackgroundImageFix"/>
<feGaussianBlur in="BackgroundImageFix" stdDeviation="7"/>
<feComposite in2="SourceAlpha" operator="in" result="effect1_backgroundBlur_515_14130"/>
<feBlend mode="normal" in="SourceGraphic" in2="effect1_backgroundBlur_515_14130" result="shape"/>
</filter>
<filter id="filter1_b_515_14130" x="250.811" y="183" width="393" height="498" filterUnits="userSpaceOnUse" color-interpolation-filters="sRGB">
<feFlood flood-opacity="0" result="BackgroundImageFix"/>
<feGaussianBlur in="BackgroundImageFix" stdDeviation="7"/>
<feComposite in2="SourceAlpha" operator="in" result="effect1_backgroundBlur_515_14130"/>
<feBlend mode="normal" in="SourceGraphic" in2="effect1_backgroundBlur_515_14130" result="shape"/>
</filter>
<filter id="filter2_b_515_14130" x="229.811" y="196.556" width="393.639" height="496.286" filterUnits="userSpaceOnUse" color-interpolation-filters="sRGB">
<feFlood flood-opacity="0" result="BackgroundImageFix"/>
<feGaussianBlur in="BackgroundImageFix" stdDeviation="7"/>
<feComposite in2="SourceAlpha" operator="in" result="effect1_backgroundBlur_515_14130"/>
<feBlend mode="normal" in="SourceGraphic" in2="effect1_backgroundBlur_515_14130" result="shape"/>
</filter>
<linearGradient id="paint0_linear_515_14130" x1="409.763" y1="219.713" x2="672.571" y2="477.48" gradientUnits="userSpaceOnUse">
<stop stop-color="white" stop-opacity="0.4"/>
<stop offset="1" stop-color="white" stop-opacity="0.1"/>
</linearGradient>
<linearGradient id="paint1_linear_515_14130" x1="388.763" y1="234.713" x2="651.571" y2="492.48" gradientUnits="userSpaceOnUse">
<stop stop-color="white" stop-opacity="0.4"/>
<stop offset="1" stop-color="white" stop-opacity="0.1"/>
</linearGradient>
<linearGradient id="paint2_linear_515_14130" x1="367.962" y1="248.229" x2="629.707" y2="506.555" gradientUnits="userSpaceOnUse">
<stop stop-color="white" stop-opacity="0.4"/>
<stop offset="1" stop-color="white" stop-opacity="0.1"/>
</linearGradient>
</defs>
</svg>
