<svg width="36" height="36" viewBox="0 0 36 36" fill="none" xmlns="http://www.w3.org/2000/svg">
<g id="Telegram">
<path id="Vector" fill-rule="evenodd" clip-rule="evenodd" d="M8.14814 17.8099C13.3955 15.5237 16.8946 14.0165 18.6453 13.2883C23.6441 11.2092 24.6828 10.848 25.3599 10.8361C25.5088 10.8334 25.8417 10.8703 26.0574 11.0453C26.2395 11.1931 26.2896 11.3927 26.3135 11.5328C26.3375 11.6729 26.3674 11.992 26.3436 12.2414C26.0728 15.0876 24.9006 21.9947 24.3043 25.1825C24.052 26.5314 23.5552 26.9836 23.0742 27.0279C22.0289 27.1241 21.2351 26.3371 20.2227 25.6734C18.6385 24.635 17.7435 23.9885 16.2057 22.9751C14.4286 21.804 15.5806 21.1603 16.5934 20.1084C16.8585 19.8331 21.4641 15.644 21.5532 15.2639C21.5644 15.2164 21.5747 15.0393 21.4695 14.9457C21.3642 14.8522 21.2089 14.8842 21.0968 14.9096C20.9379 14.9457 18.407 16.6184 13.5043 19.928C12.7859 20.4212 12.1352 20.6616 11.5522 20.649C10.9095 20.6351 9.67326 20.2856 8.75421 19.9869C7.62696 19.6204 6.73104 19.4267 6.80906 18.8044C6.84969 18.4803 7.29605 18.1488 8.14814 17.8099Z" fill="white"/>
</g>
</svg>
