<svg width="25" height="24" viewBox="0 0 25 24" fill="none" xmlns="http://www.w3.org/2000/svg">
<g id="Frame 2131331374">
<path id="Vector" fill-rule="evenodd" clip-rule="evenodd" d="M3.77156 10.974C9.01893 8.6878 12.518 7.1806 14.2688 6.45239C19.2676 4.37323 20.3063 4.01205 20.9833 4.00013C21.1322 3.9975 21.4651 4.03441 21.6808 4.2094C21.8629 4.35716 21.913 4.55677 21.937 4.69686C21.9609 4.83696 21.9908 5.1561 21.9671 5.40546C21.6962 8.25169 20.524 15.1587 19.9277 18.3465C19.6754 19.6954 19.1786 20.1477 18.6976 20.192C17.6523 20.2881 16.8586 19.5012 15.8461 18.8375C14.2619 17.799 13.3669 17.1526 11.8291 16.1392C10.052 14.9681 11.204 14.3244 12.2168 13.2725C12.4819 12.9972 17.0875 8.80803 17.1766 8.42801C17.1878 8.38048 17.1981 8.20332 17.0929 8.10977C16.9876 8.01622 16.8323 8.04821 16.7202 8.07365C16.5613 8.10972 14.0305 9.7825 9.12768 13.092C8.40931 13.5853 7.75864 13.8256 7.17565 13.813C6.53296 13.7992 5.29667 13.4497 4.37762 13.1509C3.25037 12.7845 2.35446 12.5908 2.43247 11.9685C2.4731 11.6443 2.91947 11.3128 3.77156 10.974Z" fill="white"/>
</g>
</svg>
