<svg width="25" height="26" viewBox="0 0 25 26" fill="none" xmlns="http://www.w3.org/2000/svg">
<g id="Crypto Logos / Tether">
<rect y="0.5" width="25" height="25" rx="12.5" fill="#26A07B"/>
<path id="Vector" d="M12.491 6.24525C14.3382 6.24525 16.1855 6.24525 18.0384 6.24525C18.2032 6.24525 18.2487 6.28503 18.2487 6.4527C18.2487 7.26264 18.2487 8.06974 18.2487 8.87684C18.2487 9.03314 18.2032 9.06724 18.0554 9.06439C16.7737 9.06439 15.4977 9.06439 14.2075 9.06439C14.0399 9.06439 14.0057 9.10987 14.0086 9.26618C14.02 9.75309 14.02 10.239 14.0086 10.7241C14.0086 10.8775 14.0398 10.9258 14.2047 10.9344C15.5542 10.9789 16.8958 11.1598 18.2089 11.4743C18.6404 11.5745 19.0583 11.7262 19.4536 11.9262C19.6128 12.0048 19.7571 12.1106 19.8799 12.2388C19.9267 12.2806 19.9641 12.3319 19.9897 12.3892C20.0153 12.4465 20.0286 12.5085 20.0286 12.5713C20.0286 12.6341 20.0153 12.6961 19.9897 12.7534C19.9641 12.8107 19.9267 12.8619 19.8799 12.9038C19.6395 13.1378 19.3475 13.312 19.0274 13.4125C18.2482 13.6892 17.441 13.8798 16.6203 13.9809C15.8089 14.105 14.9909 14.1809 14.1706 14.2082C14.0171 14.2082 14.0171 14.2878 14.0171 14.4015C14.0171 16.243 14.0171 18.0959 14.0171 19.9261C14.0171 20.1137 13.9688 20.1534 13.7869 20.1534C12.9003 20.1534 12.0107 20.1534 11.1241 20.1534C10.9735 20.1534 10.945 20.1108 10.945 19.9716C10.945 18.1471 10.945 16.3254 10.945 14.5009C10.945 14.2167 10.945 14.2167 10.6608 14.2167C9.33361 14.1582 8.01532 13.9697 6.72483 13.654C6.23739 13.5485 5.77009 13.3652 5.34083 13.1112C4.77246 12.756 4.77246 12.361 5.34083 12.0114C5.91375 11.6881 6.53898 11.4678 7.18806 11.3606C8.3719 11.1131 9.57448 10.9658 10.783 10.9202C10.9223 10.9202 10.9536 10.8747 10.9507 10.744C10.9507 10.2495 10.9507 9.75782 10.9507 9.26618C10.9507 9.10703 10.9195 9.05304 10.7461 9.05588C9.46725 9.05588 8.18841 9.05588 6.9124 9.05588C6.73904 9.05588 6.70778 9.00188 6.70778 8.84274C6.70778 8.04132 6.70778 7.2399 6.70778 6.43565C6.70778 6.25945 6.76462 6.23389 6.92092 6.23389C8.77952 6.2481 10.6353 6.24525 12.491 6.24525ZM12.5905 13.7365C13.5602 13.7467 14.5297 13.705 15.4949 13.6114C16.3583 13.541 17.214 13.3965 18.0526 13.1795C18.3903 13.1023 18.7136 12.9719 19.0103 12.7929C19.3883 12.5457 19.3826 12.2843 19.0103 12.037C18.826 11.9142 18.625 11.8185 18.4135 11.7528C17.0118 11.3669 15.5673 11.1578 14.1137 11.1305C13.9802 11.1305 14.0029 11.2043 14.0029 11.2811C14.0029 11.8495 14.0029 12.4349 14.0029 13.0118C14.0029 13.1425 13.9716 13.1965 13.8352 13.2022C12.9173 13.2363 11.9994 13.242 11.0814 13.2022C10.9621 13.2022 10.9337 13.1539 10.9337 13.0402C10.9337 12.4548 10.9337 11.8722 10.9337 11.2896C10.9337 11.1589 10.8967 11.1305 10.7688 11.1333C10.1379 11.1617 9.50704 11.2157 8.87898 11.2896C8.08081 11.3693 7.29256 11.5283 6.5259 11.7642C6.29922 11.8274 6.08289 11.9231 5.88364 12.0484C5.53977 12.2843 5.54261 12.54 5.88364 12.7759C6.01658 12.863 6.15855 12.9354 6.30708 12.9919C6.80878 13.1765 7.32761 13.3107 7.85591 13.3926C9.42084 13.6469 11.0052 13.7619 12.5905 13.7365Z" fill="white"/>
</g>
</svg>
