<svg width="24" height="24" viewBox="0 0 24 24" fill="none" xmlns="http://www.w3.org/2000/svg">
<g id="Frame 2131331378">
<g id="02.twitter">
<path id="icon" d="M20.9639 7.03448C20.5384 7.67359 20.0186 8.24454 19.422 8.7279C19.3468 8.79057 19.2866 8.86922 19.2456 8.95813C19.2046 9.04703 19.184 9.14396 19.1852 9.24184V9.30105C19.1782 10.5846 18.9424 11.8566 18.4889 13.0574C18.0215 14.3176 17.3271 15.4816 16.4402 16.4916C15.2483 17.8485 13.715 18.8617 11.9994 19.4261C10.8721 19.7919 9.69352 19.975 8.50835 19.9684C6.62815 19.9682 4.78147 19.4706 3.15572 18.5261C3.09746 18.4929 3.0516 18.4417 3.0251 18.3802C2.9986 18.3186 2.9929 18.2501 3.00888 18.185C3.02527 18.121 3.06262 18.0642 3.11499 18.0239C3.16736 17.9836 3.23172 17.9619 3.29782 17.9624H3.74782C5.17668 17.9659 6.57394 17.5419 7.75993 16.745C7.05314 16.6306 6.39166 16.3232 5.84838 15.8568C5.30511 15.3905 4.90114 14.7832 4.68098 14.1018C4.66971 14.0677 4.66766 14.0312 4.67505 13.9961C4.68244 13.9609 4.699 13.9283 4.72305 13.9016C4.74711 13.8749 4.77779 13.8551 4.812 13.8441C4.84621 13.833 4.88272 13.8313 4.91782 13.839C5.13336 13.8795 5.35218 13.9001 5.57151 13.9005H5.6544C4.97129 13.5867 4.39371 13.0817 3.99148 12.4466C3.58925 11.8115 3.37958 11.0735 3.38782 10.3218C3.38807 10.2867 3.39742 10.2522 3.41496 10.2217C3.4325 10.1912 3.45764 10.1658 3.48793 10.1479C3.51822 10.13 3.55262 10.1202 3.58779 10.1196C3.62296 10.119 3.65769 10.1274 3.68861 10.1442C3.96646 10.2993 4.2646 10.4149 4.5744 10.4876C3.96205 9.88179 3.56817 9.08979 3.45458 8.23591C3.34099 7.38203 3.51411 6.5146 3.94677 5.76974C3.96314 5.74113 3.98621 5.71692 4.01399 5.69919C4.04177 5.68146 4.07345 5.67074 4.10629 5.66794C4.13913 5.66515 4.17216 5.67036 4.20254 5.68314C4.23292 5.69592 4.25975 5.71589 4.28072 5.74132C5.13615 6.80048 6.19558 7.67706 7.39617 8.31905C8.59676 8.96105 9.91406 9.35539 11.2699 9.47869H11.2889C11.3088 9.47811 11.3284 9.47348 11.3465 9.46509C11.3645 9.4567 11.3807 9.44471 11.394 9.42987C11.4073 9.41502 11.4174 9.39763 11.4238 9.37874C11.4302 9.35985 11.4326 9.33987 11.431 9.32C11.3781 8.84469 11.4086 8.3638 11.521 7.89895C11.6738 7.26709 11.9875 6.6855 12.4315 6.21073C12.8756 5.73596 13.4349 5.38414 14.0552 5.18948C14.4531 5.06517 14.8675 5.0013 15.2844 5C16.2297 4.99891 17.1428 5.34343 17.8518 5.96869C17.9436 6.05086 18.0625 6.09638 18.1857 6.09658C18.2257 6.09573 18.2655 6.09016 18.3041 6.08C18.9703 5.91167 19.6085 5.64761 20.1989 5.29606C20.2342 5.27426 20.2754 5.26392 20.3168 5.26645C20.3583 5.26899 20.3979 5.28426 20.4303 5.31019C20.4627 5.33613 20.4863 5.37144 20.4979 5.41131C20.5095 5.45118 20.5084 5.49365 20.4949 5.5329C20.2978 6.15291 19.9466 6.71276 19.4741 7.16C19.8998 7.05852 20.3152 6.9182 20.7152 6.74079C20.7547 6.72555 20.7979 6.72299 20.8389 6.73345C20.8799 6.74391 20.9166 6.76689 20.944 6.79918C20.9713 6.83148 20.9879 6.87149 20.9915 6.91365C20.9951 6.95582 20.9854 6.99805 20.9639 7.03448Z" fill="white"/>
</g>
</g>
</svg>
