<svg width="300" height="113" viewBox="0 0 300 113" fill="none" xmlns="http://www.w3.org/2000/svg">
<g filter="url(#filter0_b_274_2380)">
<mask id="path-1-inside-1_274_2380" fill="white">
<path fill-rule="evenodd" clip-rule="evenodd" d="M83.4054 0C84.8937 6.39581 90.3049 11.2551 96.9843 11.923C97.7549 12.0001 98.6699 12.0001 100.5 12.0001H200.5C202.33 12.0001 203.245 12.0001 204.016 11.923C210.695 11.2551 216.106 6.39581 217.595 0H270C284.142 0 291.213 0 295.607 4.3934C300 8.7868 300 15.8579 300 30V83C300 97.1421 300 104.213 295.607 108.607C291.213 113 284.142 113 270 113H30C15.8579 113 8.7868 113 4.3934 108.607C0 104.213 0 97.1421 0 83V30C0 15.8579 0 8.7868 4.3934 4.3934C8.7868 0 15.8579 0 30 0H83.4054Z"/>
</mask>
<path fill-rule="evenodd" clip-rule="evenodd" d="M83.4054 0C84.8937 6.39581 90.3049 11.2551 96.9843 11.923C97.7549 12.0001 98.6699 12.0001 100.5 12.0001H200.5C202.33 12.0001 203.245 12.0001 204.016 11.923C210.695 11.2551 216.106 6.39581 217.595 0H270C284.142 0 291.213 0 295.607 4.3934C300 8.7868 300 15.8579 300 30V83C300 97.1421 300 104.213 295.607 108.607C291.213 113 284.142 113 270 113H30C15.8579 113 8.7868 113 4.3934 108.607C0 104.213 0 97.1421 0 83V30C0 15.8579 0 8.7868 4.3934 4.3934C8.7868 0 15.8579 0 30 0H83.4054Z" fill="#580060" fill-opacity="0.2"/>
<path d="M83.4054 0L84.9179 -0.351955L84.6385 -1.55294H83.4054V0ZM96.9843 11.923L97.1388 10.3778L96.9843 11.923ZM204.016 11.923L204.17 13.4682V13.4682L204.016 11.923ZM217.595 0V-1.55294H216.362L216.082 -0.351953L217.595 0ZM295.607 4.3934L294.509 5.49149L295.607 4.3934ZM295.607 108.607L296.705 109.705V109.705L295.607 108.607ZM4.3934 108.607L3.2953 109.705H3.2953L4.3934 108.607ZM4.3934 4.3934L5.49149 5.49149L4.3934 4.3934ZM81.8929 0.351955C83.5301 7.38811 89.4818 12.7335 96.8298 13.4682L97.1388 10.3778C91.128 9.77673 86.2572 5.40351 84.9179 -0.351955L81.8929 0.351955ZM96.8298 13.4682C97.6969 13.5549 98.7075 13.553 100.5 13.553V10.4471C98.6324 10.4471 97.8129 10.4452 97.1388 10.3778L96.8298 13.4682ZM100.5 13.553H200.5V10.4471H100.5V13.553ZM200.5 13.553C202.293 13.553 203.303 13.5549 204.17 13.4682L203.861 10.3778C203.187 10.4452 202.368 10.4471 200.5 10.4471V13.553ZM204.17 13.4682C211.518 12.7335 217.47 7.38811 219.107 0.351953L216.082 -0.351953C214.743 5.40351 209.872 9.77673 203.861 10.3778L204.17 13.4682ZM217.595 1.55294H270V-1.55294H217.595V1.55294ZM270 1.55294C277.115 1.55294 282.295 1.55624 286.252 2.08827C290.165 2.61429 292.648 3.63142 294.509 5.49149L296.705 3.2953C294.171 0.761974 290.923 -0.417592 286.666 -0.989918C282.454 -1.55624 277.027 -1.55294 270 -1.55294V1.55294ZM294.509 5.49149C296.369 7.35156 297.386 9.83534 297.912 13.7478C298.444 17.705 298.447 22.885 298.447 30H301.553C301.553 22.9728 301.556 17.5462 300.99 13.334C300.418 9.07708 299.238 5.82863 296.705 3.2953L294.509 5.49149ZM298.447 30V83H301.553V30H298.447ZM298.447 83C298.447 90.115 298.444 95.295 297.912 99.2522C297.386 103.165 296.369 105.648 294.509 107.509L296.705 109.705C299.238 107.171 300.418 103.923 300.99 99.666C301.556 95.4538 301.553 90.0272 301.553 83H298.447ZM294.509 107.509C292.648 109.369 290.165 110.386 286.252 110.912C282.295 111.444 277.115 111.447 270 111.447V114.553C277.027 114.553 282.454 114.556 286.666 113.99C290.923 113.418 294.171 112.238 296.705 109.705L294.509 107.509ZM270 111.447H30V114.553H270V111.447ZM30 111.447C22.885 111.447 17.705 111.444 13.7478 110.912C9.83534 110.386 7.35156 109.369 5.49149 107.509L3.2953 109.705C5.82863 112.238 9.07709 113.418 13.334 113.99C17.5462 114.556 22.9728 114.553 30 114.553V111.447ZM5.49149 107.509C3.63142 105.648 2.61429 103.165 2.08827 99.2522C1.55624 95.295 1.55294 90.115 1.55294 83H-1.55294C-1.55294 90.0272 -1.55624 95.4538 -0.989919 99.666C-0.417592 103.923 0.761974 107.171 3.2953 109.705L5.49149 107.509ZM1.55294 83V30H-1.55294V83H1.55294ZM1.55294 30C1.55294 22.885 1.55624 17.705 2.08827 13.7478C2.61429 9.83534 3.63142 7.35156 5.49149 5.49149L3.2953 3.2953C0.761974 5.82863 -0.417592 9.07708 -0.989918 13.334C-1.55624 17.5462 -1.55294 22.9728 -1.55294 30H1.55294ZM5.49149 5.49149C7.35156 3.63142 9.83534 2.61429 13.7478 2.08827C17.705 1.55624 22.885 1.55294 30 1.55294V-1.55294C22.9728 -1.55294 17.5462 -1.55624 13.334 -0.989918C9.07708 -0.417592 5.82863 0.761975 3.2953 3.2953L5.49149 5.49149ZM30 1.55294H83.4054V-1.55294H30V1.55294Z" fill="url(#paint0_linear_274_2380)" mask="url(#path-1-inside-1_274_2380)"/>
</g>
<defs>
<filter id="filter0_b_274_2380" x="-161.506" y="-161.506" width="623.012" height="436.012" filterUnits="userSpaceOnUse" color-interpolation-filters="sRGB">
<feFlood flood-opacity="0" result="BackgroundImageFix"/>
<feGaussianBlur in="BackgroundImageFix" stdDeviation="80.7529"/>
<feComposite in2="SourceAlpha" operator="in" result="effect1_backgroundBlur_274_2380"/>
<feBlend mode="normal" in="SourceGraphic" in2="effect1_backgroundBlur_274_2380" result="shape"/>
</filter>
<linearGradient id="paint0_linear_274_2380" x1="81.8985" y1="4.42764" x2="736.927" y2="59.1096" gradientUnits="userSpaceOnUse">
<stop stop-color="#E900FD" stop-opacity="0.64"/>
<stop offset="1" stop-color="#E900FD" stop-opacity="0.19"/>
</linearGradient>
</defs>
</svg>
