<svg width="300" height="113" viewBox="0 0 300 113" fill="none" xmlns="http://www.w3.org/2000/svg">
<g filter="url(#filter0_b_274_2430)">
<mask id="path-1-inside-1_274_2430" fill="white">
<path fill-rule="evenodd" clip-rule="evenodd" d="M83.4054 -5.98319e-05C84.8937 6.39575 90.3049 11.255 96.9843 11.9229C97.7549 12 98.6699 12 100.5 12H200.5C202.33 12 203.245 12 204.016 11.9229C210.695 11.255 216.106 6.39575 217.595 -5.98319e-05H270C284.142 -5.98319e-05 291.213 -5.98319e-05 295.607 4.39334C300 8.78674 300 15.8578 300 29.9999V82.9999C300 97.1421 300 104.213 295.607 108.607C291.213 113 284.142 113 270 113H30C15.8579 113 8.7868 113 4.3934 108.607C0 104.213 0 97.1421 0 82.9999V29.9999C0 15.8578 0 8.78674 4.3934 4.39334C8.7868 -5.98319e-05 15.8579 -5.98319e-05 30 -5.98319e-05H83.4054Z"/>
</mask>
<path fill-rule="evenodd" clip-rule="evenodd" d="M83.4054 -5.98319e-05C84.8937 6.39575 90.3049 11.255 96.9843 11.9229C97.7549 12 98.6699 12 100.5 12H200.5C202.33 12 203.245 12 204.016 11.9229C210.695 11.255 216.106 6.39575 217.595 -5.98319e-05H270C284.142 -5.98319e-05 291.213 -5.98319e-05 295.607 4.39334C300 8.78674 300 15.8578 300 29.9999V82.9999C300 97.1421 300 104.213 295.607 108.607C291.213 113 284.142 113 270 113H30C15.8579 113 8.7868 113 4.3934 108.607C0 104.213 0 97.1421 0 82.9999V29.9999C0 15.8578 0 8.78674 4.3934 4.39334C8.7868 -5.98319e-05 15.8579 -5.98319e-05 30 -5.98319e-05H83.4054Z" fill="#222222" fill-opacity="0.6"/>
<path d="M83.4054 -5.98319e-05L84.2427 -0.194889L84.088 -0.859709H83.4054V-5.98319e-05ZM96.9843 11.9229L97.0698 11.0676V11.0676L96.9843 11.9229ZM204.016 11.9229L204.101 12.7783V12.7783L204.016 11.9229ZM217.595 -5.98319e-05V-0.859709H216.912L216.757 -0.194888L217.595 -5.98319e-05ZM295.607 4.39334L294.999 5.0012L295.607 4.39334ZM295.607 108.607L296.214 109.214L295.607 108.607ZM4.3934 108.607L3.78553 109.214H3.78553L4.3934 108.607ZM4.3934 4.39334L5.00126 5.0012L4.3934 4.39334ZM82.5681 0.194769C84.1389 6.94505 89.8493 12.0734 96.8987 12.7783L97.0698 11.0676C90.7606 10.4367 85.6485 5.84645 84.2427 -0.194889L82.5681 0.194769ZM96.8987 12.7783C97.7228 12.8607 98.6907 12.8596 100.5 12.8596V11.1404C98.6492 11.1404 97.787 11.1393 97.0698 11.0676L96.8987 12.7783ZM100.5 12.8596H200.5V11.1404H100.5V12.8596ZM200.5 12.8596C202.309 12.8596 203.277 12.8607 204.101 12.7783L203.93 11.0676C203.213 11.1393 202.351 11.1404 200.5 11.1404V12.8596ZM204.101 12.7783C211.151 12.0734 216.861 6.94505 218.432 0.194768L216.757 -0.194888C215.352 5.84645 210.239 10.4367 203.93 11.0676L204.101 12.7783ZM217.595 0.859589H270V-0.859709H217.595V0.859589ZM270 0.859589C277.095 0.859589 282.33 0.861415 286.345 1.4011C290.334 1.93746 292.988 2.99085 294.999 5.0012L296.214 3.78547C293.831 1.40243 290.754 0.259122 286.574 -0.302868C282.418 -0.861535 277.047 -0.859709 270 -0.859709V0.859589ZM294.999 5.0012C297.009 7.01156 298.062 9.66603 298.599 13.6554C299.139 17.6695 299.14 22.9046 299.14 29.9999H300.86C300.86 22.9532 300.861 17.5816 300.303 13.4263C299.741 9.24628 298.598 6.16852 296.214 3.78547L294.999 5.0012ZM299.14 29.9999V82.9999H300.86V29.9999H299.14ZM299.14 82.9999C299.14 90.0953 299.139 95.3304 298.599 99.3445C298.062 103.334 297.009 105.988 294.999 107.999L296.214 109.214C298.598 106.831 299.741 103.754 300.303 99.5736C300.861 95.4183 300.86 90.0467 300.86 82.9999H299.14ZM294.999 107.999C292.988 110.009 290.334 111.062 286.345 111.599C282.33 112.138 277.095 112.14 270 112.14V113.86C277.047 113.86 282.418 113.861 286.574 113.303C290.754 112.741 293.831 111.597 296.214 109.214L294.999 107.999ZM270 112.14H30V113.86H270V112.14ZM30 112.14C22.9046 112.14 17.6696 112.138 13.6555 111.599C9.66609 111.062 7.01162 110.009 5.00126 107.999L3.78553 109.214C6.16858 111.597 9.24634 112.741 13.4264 113.303C17.5817 113.861 22.9532 113.86 30 113.86V112.14ZM5.00126 107.999C2.99091 105.988 1.93752 103.334 1.40116 99.3445C0.861475 95.3304 0.859649 90.0953 0.859649 82.9999H-0.859649C-0.859649 90.0467 -0.861475 95.4183 -0.302809 99.5736C0.259182 103.754 1.40249 106.831 3.78553 109.214L5.00126 107.999ZM0.859649 82.9999V29.9999H-0.859649V82.9999H0.859649ZM0.859649 29.9999C0.859649 22.9046 0.861475 17.6695 1.40116 13.6554C1.93752 9.66603 2.99091 7.01156 5.00126 5.0012L3.78553 3.78548C1.40249 6.16852 0.259182 9.24628 -0.302809 13.4263C-0.861475 17.5816 -0.859649 22.9532 -0.859649 29.9999H0.859649ZM5.00126 5.0012C7.01162 2.99085 9.66609 1.93746 13.6555 1.4011C17.6696 0.861415 22.9046 0.859589 30 0.859589V-0.859709C22.9532 -0.859709 17.5817 -0.861535 13.4264 -0.302868C9.24634 0.259122 6.16858 1.40243 3.78553 3.78548L5.00126 5.0012ZM30 0.859589H83.4054V-0.859709H30V0.859589Z" fill="url(#paint0_linear_274_2430)" mask="url(#path-1-inside-1_274_2430)"/>
</g>
<defs>
<filter id="filter0_b_274_2430" x="-42.9825" y="-42.9825" width="385.965" height="198.965" filterUnits="userSpaceOnUse" color-interpolation-filters="sRGB">
<feFlood flood-opacity="0" result="BackgroundImageFix"/>
<feGaussianBlur in="BackgroundImageFix" stdDeviation="21.4912"/>
<feComposite in2="SourceAlpha" operator="in" result="effect1_backgroundBlur_274_2430"/>
<feBlend mode="normal" in="SourceGraphic" in2="effect1_backgroundBlur_274_2430" result="shape"/>
</filter>
<linearGradient id="paint0_linear_274_2430" x1="300" y1="-2.32073e-05" x2="269.815" y2="-49.9738" gradientUnits="userSpaceOnUse">
<stop stop-color="#FFC700" stop-opacity="0.15"/>
<stop offset="1" stop-color="#FFC700" stop-opacity="0.53"/>
</linearGradient>
</defs>
</svg>
