<svg width="573" height="64" viewBox="0 0 573 64" fill="none" xmlns="http://www.w3.org/2000/svg">
<path d="M33.825 8.51918L45.0168 15.1047C45.4672 14.5541 46.0111 14.0469 46.6867 13.6784C49.6653 11.9268 53.4554 12.9413 55.172 15.9805C56.8886 19.0196 55.8475 22.8869 52.869 24.6341C52.2359 25.0503 51.5603 25.28 50.8379 25.4188V38.5856C51.5603 38.72 52.2359 38.9541 52.869 39.3226C55.8475 41.0741 56.8843 44.9847 55.172 47.9762C53.4554 51.0153 49.6653 52.0732 46.6867 50.326C46.0111 49.9575 45.4672 49.4502 45.0168 48.8996L33.825 55.4808C34.0502 56.1745 34.1861 56.9072 34.1861 57.6442C34.1861 61.1429 31.4327 64 28.0038 64C24.5748 64 21.779 61.1473 21.779 57.6442C21.779 56.9072 21.915 56.1745 22.1402 55.4808L10.9483 48.8996C10.4979 49.4502 9.95403 49.9575 9.32517 50.326C6.34662 52.0775 2.55652 51.0153 0.839924 47.9762C-0.876675 44.9847 0.117566 41.0698 3.09612 39.3226C3.72922 38.9541 4.45156 38.7243 5.12716 38.5856V25.4188C4.45156 25.28 3.72922 25.0503 3.09612 24.6341C0.117566 22.8825 -0.876675 19.0196 0.839924 15.9805C2.55652 12.9413 6.34662 11.9312 9.32517 13.6784C9.95828 14.0469 10.4979 14.5541 10.9483 15.1047L22.1402 8.51918C21.915 7.82984 21.779 7.0928 21.779 6.30808C21.779 2.80937 24.5748 0 28.0038 0C31.4327 0 34.1861 2.80937 34.1861 6.30808C34.1861 7.08847 34.0502 7.82984 33.825 8.51918ZM45.0168 23.2077L35.8135 28.64C36.2171 29.6979 36.4466 30.8034 36.4466 32C36.4466 33.1966 36.2214 34.3021 35.8135 35.3166L45.0168 40.7489C45.9643 39.5957 47.273 38.863 48.7177 38.5856V25.4188C47.3198 25.1413 45.9643 24.4043 45.0168 23.2077ZM21.2351 37.2025L12.0318 42.6349C12.5289 44.1089 12.5289 45.6263 12.0318 47.0093L23.2237 53.5949C24.1712 52.4894 25.4332 51.709 26.9246 51.4315V40.5669C24.6216 40.2417 22.5948 39.0018 21.2394 37.2025H21.2351ZM10.9483 40.7489L20.1984 35.3166C19.748 34.3021 19.5228 33.2009 19.5228 32C19.5228 30.7991 19.748 29.6979 20.1984 28.64L10.9483 23.2077C10.0007 24.4043 8.69206 25.1413 7.29414 25.4188V38.5856C8.69206 38.863 10.0007 39.5957 10.9483 40.7489ZM34.73 26.7541L43.9376 21.3218C43.4404 19.8954 43.4404 18.378 43.9376 16.995L32.7457 10.3661C31.8449 11.5193 30.5362 12.2997 29.0448 12.5772V23.4418C31.3478 23.7193 33.3746 24.9592 34.73 26.7584V26.7541ZM29.0448 40.5669V51.4315C30.532 51.709 31.8407 52.4894 32.7457 53.5949L43.9376 47.0093C43.4404 45.6263 43.4404 44.0656 43.9376 42.6349L34.73 37.2025C33.3788 39.0018 31.3478 40.2417 29.0448 40.5669ZM26.9246 23.4375V12.5728C25.4374 12.2954 24.1712 11.515 23.2237 10.4094L12.0318 16.995C12.5289 18.378 12.5289 19.8954 12.0318 21.3218L21.2351 26.7541C22.5906 24.9592 24.6174 23.7149 26.9203 23.4375H26.9246Z" fill="#BD00FF"/>
<path d="M33.825 8.51918L45.0168 15.1047C45.4672 14.5541 46.0111 14.0469 46.6867 13.6784C49.6653 11.9268 53.4554 12.9413 55.172 15.9805C56.8886 19.0196 55.8475 22.8869 52.869 24.6341C52.2359 25.0503 51.5603 25.28 50.8379 25.4188V38.5856C51.5603 38.72 52.2359 38.9541 52.869 39.3226C55.8475 41.0741 56.8843 44.9847 55.172 47.9762C53.4554 51.0153 49.6653 52.0732 46.6867 50.326C46.0111 49.9575 45.4672 49.4502 45.0168 48.8996L33.825 55.4808C34.0502 56.1745 34.1861 56.9072 34.1861 57.6442C34.1861 61.1429 31.4327 64 28.0038 64C24.5748 64 21.779 61.1473 21.779 57.6442C21.779 56.9072 21.915 56.1745 22.1402 55.4808L10.9483 48.8996C10.4979 49.4502 9.95403 49.9575 9.32517 50.326C6.34662 52.0775 2.55652 51.0153 0.839924 47.9762C-0.876675 44.9847 0.117566 41.0698 3.09612 39.3226C3.72922 38.9541 4.45156 38.7243 5.12716 38.5856V25.4188C4.45156 25.28 3.72922 25.0503 3.09612 24.6341C0.117566 22.8825 -0.876675 19.0196 0.839924 15.9805C2.55652 12.9413 6.34662 11.9312 9.32517 13.6784C9.95828 14.0469 10.4979 14.5541 10.9483 15.1047L22.1402 8.51918C21.915 7.82984 21.779 7.0928 21.779 6.30808C21.779 2.80937 24.5748 0 28.0038 0C31.4327 0 34.1861 2.80937 34.1861 6.30808C34.1861 7.08847 34.0502 7.82984 33.825 8.51918ZM45.0168 23.2077L35.8135 28.64C36.2171 29.6979 36.4466 30.8034 36.4466 32C36.4466 33.1966 36.2214 34.3021 35.8135 35.3166L45.0168 40.7489C45.9643 39.5957 47.273 38.863 48.7177 38.5856V25.4188C47.3198 25.1413 45.9643 24.4043 45.0168 23.2077ZM21.2351 37.2025L12.0318 42.6349C12.5289 44.1089 12.5289 45.6263 12.0318 47.0093L23.2237 53.5949C24.1712 52.4894 25.4332 51.709 26.9246 51.4315V40.5669C24.6216 40.2417 22.5948 39.0018 21.2394 37.2025H21.2351ZM10.9483 40.7489L20.1984 35.3166C19.748 34.3021 19.5228 33.2009 19.5228 32C19.5228 30.7991 19.748 29.6979 20.1984 28.64L10.9483 23.2077C10.0007 24.4043 8.69206 25.1413 7.29414 25.4188V38.5856C8.69206 38.863 10.0007 39.5957 10.9483 40.7489ZM34.73 26.7541L43.9376 21.3218C43.4404 19.8954 43.4404 18.378 43.9376 16.995L32.7457 10.3661C31.8449 11.5193 30.5362 12.2997 29.0448 12.5772V23.4418C31.3478 23.7193 33.3746 24.9592 34.73 26.7584V26.7541ZM29.0448 40.5669V51.4315C30.532 51.709 31.8407 52.4894 32.7457 53.5949L43.9376 47.0093C43.4404 45.6263 43.4404 44.0656 43.9376 42.6349L34.73 37.2025C33.3788 39.0018 31.3478 40.2417 29.0448 40.5669ZM26.9246 23.4375V12.5728C25.4374 12.2954 24.1712 11.515 23.2237 10.4094L12.0318 16.995C12.5289 18.378 12.5289 19.8954 12.0318 21.3218L21.2351 26.7541C22.5906 24.9592 24.6174 23.7149 26.9203 23.4375H26.9246Z" fill="url(#paint0_radial_271_435)"/>
<path d="M104.622 61C99.7712 61 95.2402 60.3057 91.0291 58.9171C86.8712 57.5285 83.1931 55.5525 79.9948 52.989C76.8498 50.4254 74.3977 47.3812 72.6386 43.8564C70.8795 40.2781 70 36.2993 70 31.9199C70 27.6473 70.9062 23.7486 72.7186 20.2238C74.531 16.6989 76.983 13.6547 80.0748 11.0912C83.2198 8.47422 86.8712 6.47145 91.0291 5.08287C95.2402 3.69429 99.7179 3 104.462 3C108.034 3 111.445 3.40055 114.697 4.20166C118.002 5.00276 121.04 6.0709 123.812 7.40608C126.637 8.68785 128.983 10.1031 130.848 11.6519L123.172 22.4669C121.68 21.2385 119.974 20.0902 118.055 19.0221C116.189 17.954 114.057 17.0994 111.658 16.4586C109.313 15.8177 106.621 15.4972 103.583 15.4972C101.184 15.4972 98.8383 15.8711 96.5462 16.6188C94.2541 17.3131 92.1485 18.3545 90.2295 19.7431C88.3105 21.1317 86.7913 22.8674 85.6719 24.9503C84.5524 27.0331 83.9927 29.4098 83.9927 32.0801C83.9927 34.8039 84.5791 37.2072 85.7518 39.2901C86.9778 41.3729 88.6037 43.1087 90.6293 44.4972C92.6549 45.8858 94.947 46.9273 97.5057 47.6216C100.064 48.3158 102.703 48.663 105.422 48.663C108.513 48.663 111.232 48.2624 113.577 47.4613C115.923 46.6068 118.002 45.5921 119.814 44.4171C121.626 43.2422 123.226 42.174 124.612 41.2127L131.008 51.7873C129.409 53.0691 127.25 54.4309 124.532 55.8729C121.866 57.3149 118.828 58.5433 115.416 59.558C112.058 60.5193 108.46 61 104.622 61Z" fill="white"/>
<path d="M172.561 60.1989V35.1243L174.16 41.2928L144.096 4.12155H161.127L182.955 32.4006H176.079L197.348 4.12155H213.1L185.834 39.1298L186.234 34.4834V60.1989H172.561Z" fill="white"/>
<path d="M231.157 60.1989V4.12155H263.061C267.965 4.12155 272.096 4.68232 275.454 5.80387C278.866 6.92541 281.425 8.50092 283.13 10.5304C284.836 12.5599 285.689 15.0166 285.689 17.9006C285.689 20.9982 284.756 23.6685 282.891 25.9116C281.025 28.1013 278.2 29.6234 274.415 30.4779L274.815 29.0359C277.214 29.57 279.452 30.4245 281.531 31.5994C283.664 32.721 285.369 34.2431 286.649 36.1657C287.981 38.0884 288.648 40.4383 288.648 43.2155C288.648 46.6335 287.928 49.4374 286.489 51.6271C285.049 53.8168 283.157 55.5525 280.812 56.8343C278.466 58.0626 275.908 58.9438 273.136 59.4779C270.417 59.9586 267.752 60.1989 265.14 60.1989H231.157ZM243.951 48.8232H265.46C267.325 48.8232 268.978 48.6096 270.417 48.1823C271.91 47.7551 273.082 47.0875 273.935 46.1796C274.841 45.2182 275.295 44.0166 275.295 42.5746C275.295 40.919 274.735 39.6639 273.615 38.8094C272.496 37.9015 271.137 37.2873 269.538 36.9669C267.938 36.593 266.446 36.4061 265.06 36.4061H243.951V48.8232ZM243.951 26.1519H263.221C264.98 26.1519 266.526 25.9383 267.858 25.5111C269.244 25.0838 270.31 24.4696 271.057 23.6685C271.856 22.8674 272.256 21.8527 272.256 20.6243C272.256 18.7551 271.323 17.4466 269.458 16.6989C267.645 15.8978 265.406 15.4972 262.741 15.4972H243.951V26.1519Z" fill="white"/>
<path d="M311.534 60.1989V4.12155H361.748V15.7376H324.727V48.5829H362.548V60.1989H311.534ZM318.73 37.2072V26.1519H358.15V37.2072H318.73Z" fill="white"/>
<path d="M387.07 60.1989V4.12155H419.533C424.01 4.12155 427.822 4.86924 430.967 6.36464C434.112 7.80663 436.511 9.8895 438.163 12.6133C439.816 15.2836 440.642 18.4346 440.642 22.0663C440.642 25.6446 439.709 28.8757 437.843 31.7597C435.978 34.5902 433.445 36.8333 430.247 38.489C427.049 40.0912 423.477 40.8923 419.533 40.8923H400.023V60.1989H387.07ZM428.168 60.1989L409.138 34.884L423.371 32.8812L444 60.1989H428.168ZM400.023 30.4779H417.934C419.533 30.4779 420.999 30.1575 422.331 29.5166C423.717 28.8757 424.81 27.9945 425.61 26.8729C426.462 25.698 426.889 24.3361 426.889 22.7873C426.889 21.2385 426.462 19.93 425.61 18.8619C424.81 17.7937 423.717 16.9659 422.331 16.3785C420.945 15.791 419.426 15.4972 417.774 15.4972H400.023V30.4779Z" fill="white"/>
<g opacity="0.5">
<path d="M458 60L485.154 4H490.904L517.819 60H513.267L492.422 16.48C491.517 14.3467 490.825 12.8 490.345 11.84C489.919 10.88 489.547 10.16 489.227 9.68C488.961 9.2 488.695 8.66667 488.429 8.08C488.162 7.44 487.79 6.4 487.311 4.96H488.429C487.843 6.72 487.364 8 486.991 8.8C486.672 9.54667 486.352 10.1867 486.033 10.72C485.713 11.2533 485.341 11.9467 484.915 12.8C484.489 13.6533 483.876 15.04 483.078 16.96L462.233 60H458ZM468.702 43.84L470.459 39.92H505.68L506.558 43.84H468.702Z" fill="white"/>
<path d="M539.776 60V55.84H554.391V8.16H539.776V4H573V8.16H558.385V55.84H573V60H539.776Z" fill="white"/>
</g>
<defs>
<radialGradient id="paint0_radial_271_435" cx="0" cy="0" r="1" gradientUnits="userSpaceOnUse" gradientTransform="translate(28) rotate(90) scale(60.16 52.64)">
<stop stop-color="#FF00E6"/>
<stop offset="1" stop-color="#7E00AA" stop-opacity="0.81"/>
</radialGradient>
</defs>
</svg>
