<svg width="537" height="60" viewBox="0 0 537 60" fill="none" xmlns="http://www.w3.org/2000/svg">
<path d="M31.4089 7.98673L41.8013 14.1607C42.2196 13.6445 42.7246 13.1689 43.3519 12.8235C46.1177 11.1814 49.6371 12.1325 51.2311 14.9817C52.8251 17.8309 51.8584 21.4564 49.0926 23.0944C48.5047 23.4846 47.8774 23.7 47.2067 23.8301V36.174C47.8774 36.3 48.5047 36.5194 49.0926 36.8649C51.8584 38.507 52.8211 42.1732 51.2311 44.9777C49.6371 47.8269 46.1177 48.8186 43.3519 47.1806C42.7246 46.8351 42.2196 46.3596 41.8013 45.8434L31.4089 52.0133C31.618 52.6636 31.7442 53.3505 31.7442 54.0415C31.7442 57.3215 29.1875 60 26.0035 60C22.8195 60 20.2233 57.3256 20.2233 54.0415C20.2233 53.3505 20.3496 52.6636 20.5587 52.0133L10.1663 45.8434C9.74803 46.3596 9.24303 46.8351 8.65909 47.1806C5.89329 48.8227 2.37391 47.8269 0.779929 44.9777C-0.814055 42.1732 0.109168 38.5029 2.87497 36.8649C3.46285 36.5194 4.13359 36.304 4.76093 36.174V23.8301C4.13359 23.7 3.46285 23.4846 2.87497 23.0944C0.109168 21.4524 -0.814055 17.8309 0.779929 14.9817C2.37391 12.1325 5.89329 11.1855 8.65909 12.8235C9.24697 13.1689 9.74803 13.6445 10.1663 14.1607L20.5587 7.98673C20.3496 7.34048 20.2233 6.6495 20.2233 5.91383C20.2233 2.63378 22.8195 0 26.0035 0C29.1875 0 31.7442 2.63378 31.7442 5.91383C31.7442 6.64544 31.618 7.34048 31.4089 7.98673ZM41.8013 21.7572L33.2554 26.85C33.6302 27.8418 33.8432 28.8782 33.8432 30C33.8432 31.1218 33.6341 32.1583 33.2554 33.1093L41.8013 38.2021C42.6812 37.121 43.8964 36.4341 45.2379 36.174V23.8301C43.9398 23.57 42.6812 22.879 41.8013 21.7572ZM19.7184 34.8774L11.1724 39.9702C11.634 41.3521 11.634 42.7747 11.1724 44.0713L21.5648 50.2452C22.4447 49.2088 23.6165 48.4772 25.0014 48.217V38.0314C22.8629 37.7266 20.9809 36.5642 19.7223 34.8774H19.7184ZM10.1663 38.2021L18.7556 33.1093C18.3374 32.1583 18.1283 31.1259 18.1283 30C18.1283 28.8741 18.3374 27.8418 18.7556 26.85L10.1663 21.7572C9.2864 22.879 8.0712 23.57 6.77313 23.8301V36.174C8.0712 36.4341 9.2864 37.121 10.1663 38.2021ZM32.2493 25.082L40.7992 19.9892C40.3375 18.6519 40.3375 17.2294 40.7992 15.9328L30.4067 9.71821C29.5703 10.7994 28.3551 11.531 26.9702 11.7911V21.9767C29.1087 22.2368 30.9907 23.3993 32.2493 25.086V25.082ZM26.9702 38.0314V48.217C28.3511 48.4772 29.5663 49.2088 30.4067 50.2452L40.7992 44.0713C40.3375 42.7747 40.3375 41.3115 40.7992 39.9702L32.2493 34.8774C30.9946 36.5642 29.1087 37.7266 26.9702 38.0314ZM25.0014 21.9726V11.787C23.6205 11.5269 22.4447 10.7953 21.5648 9.75884L11.1724 15.9328C11.634 17.2294 11.634 18.6519 11.1724 19.9892L19.7184 25.082C20.977 23.3993 22.859 22.2328 24.9974 21.9726H25.0014Z" fill="#BD00FF"/>
<path d="M31.4089 7.98673L41.8013 14.1607C42.2196 13.6445 42.7246 13.1689 43.3519 12.8235C46.1177 11.1814 49.6371 12.1325 51.2311 14.9817C52.8251 17.8309 51.8584 21.4564 49.0926 23.0944C48.5047 23.4846 47.8774 23.7 47.2067 23.8301V36.174C47.8774 36.3 48.5047 36.5194 49.0926 36.8649C51.8584 38.507 52.8211 42.1732 51.2311 44.9777C49.6371 47.8269 46.1177 48.8186 43.3519 47.1806C42.7246 46.8351 42.2196 46.3596 41.8013 45.8434L31.4089 52.0133C31.618 52.6636 31.7442 53.3505 31.7442 54.0415C31.7442 57.3215 29.1875 60 26.0035 60C22.8195 60 20.2233 57.3256 20.2233 54.0415C20.2233 53.3505 20.3496 52.6636 20.5587 52.0133L10.1663 45.8434C9.74803 46.3596 9.24303 46.8351 8.65909 47.1806C5.89329 48.8227 2.37391 47.8269 0.779929 44.9777C-0.814055 42.1732 0.109168 38.5029 2.87497 36.8649C3.46285 36.5194 4.13359 36.304 4.76093 36.174V23.8301C4.13359 23.7 3.46285 23.4846 2.87497 23.0944C0.109168 21.4524 -0.814055 17.8309 0.779929 14.9817C2.37391 12.1325 5.89329 11.1855 8.65909 12.8235C9.24697 13.1689 9.74803 13.6445 10.1663 14.1607L20.5587 7.98673C20.3496 7.34048 20.2233 6.6495 20.2233 5.91383C20.2233 2.63378 22.8195 0 26.0035 0C29.1875 0 31.7442 2.63378 31.7442 5.91383C31.7442 6.64544 31.618 7.34048 31.4089 7.98673ZM41.8013 21.7572L33.2554 26.85C33.6302 27.8418 33.8432 28.8782 33.8432 30C33.8432 31.1218 33.6341 32.1583 33.2554 33.1093L41.8013 38.2021C42.6812 37.121 43.8964 36.4341 45.2379 36.174V23.8301C43.9398 23.57 42.6812 22.879 41.8013 21.7572ZM19.7184 34.8774L11.1724 39.9702C11.634 41.3521 11.634 42.7747 11.1724 44.0713L21.5648 50.2452C22.4447 49.2088 23.6165 48.4772 25.0014 48.217V38.0314C22.8629 37.7266 20.9809 36.5642 19.7223 34.8774H19.7184ZM10.1663 38.2021L18.7556 33.1093C18.3374 32.1583 18.1283 31.1259 18.1283 30C18.1283 28.8741 18.3374 27.8418 18.7556 26.85L10.1663 21.7572C9.2864 22.879 8.0712 23.57 6.77313 23.8301V36.174C8.0712 36.4341 9.2864 37.121 10.1663 38.2021ZM32.2493 25.082L40.7992 19.9892C40.3375 18.6519 40.3375 17.2294 40.7992 15.9328L30.4067 9.71821C29.5703 10.7994 28.3551 11.531 26.9702 11.7911V21.9767C29.1087 22.2368 30.9907 23.3993 32.2493 25.086V25.082ZM26.9702 38.0314V48.217C28.3511 48.4772 29.5663 49.2088 30.4067 50.2452L40.7992 44.0713C40.3375 42.7747 40.3375 41.3115 40.7992 39.9702L32.2493 34.8774C30.9946 36.5642 29.1087 37.7266 26.9702 38.0314ZM25.0014 21.9726V11.787C23.6205 11.5269 22.4447 10.7953 21.5648 9.75884L11.1724 15.9328C11.634 17.2294 11.634 18.6519 11.1724 19.9892L19.7184 25.082C20.977 23.3993 22.859 22.2328 24.9974 21.9726H25.0014Z" fill="url(#paint0_radial_337_69166)"/>
<path d="M98.4003 57C93.8607 57 89.6205 56.3536 85.6796 55.0608C81.7886 53.768 78.3465 51.9282 75.3534 49.5414C72.4102 47.1547 70.1155 44.3204 68.4693 41.0387C66.8231 37.7072 66 34.0028 66 29.9254C66 25.9475 66.848 22.3177 68.5441 19.0359C70.2402 15.7541 72.5349 12.9199 75.4283 10.5332C78.3715 8.09668 81.7886 6.23204 85.6796 4.93923C89.6205 3.64641 93.8109 3 98.2506 3C101.593 3 104.786 3.37293 107.829 4.11878C110.921 4.86464 113.765 5.85912 116.359 7.10221C119.003 8.29558 121.198 9.61326 122.944 11.0553L115.76 21.1243C114.363 19.9807 112.767 18.9116 110.971 17.9171C109.225 16.9227 107.23 16.1271 104.985 15.5304C102.79 14.9337 100.271 14.6354 97.4275 14.6354C95.1827 14.6354 92.9878 14.9834 90.8427 15.6796C88.6976 16.326 86.7272 17.2956 84.9313 18.5884C83.1355 19.8812 81.7138 21.4972 80.6662 23.4365C79.6186 25.3757 79.0948 27.5884 79.0948 30.0746C79.0948 32.6105 79.6435 34.8481 80.741 36.7873C81.8884 38.7265 83.4098 40.3425 85.3055 41.6354C87.2011 42.9282 89.3462 43.8978 91.7406 44.5442C94.1351 45.1906 96.6044 45.5138 99.1485 45.5138C102.042 45.5138 104.586 45.1409 106.781 44.395C108.976 43.5994 110.921 42.6547 112.617 41.5608C114.314 40.4669 115.81 39.4724 117.107 38.5774L123.093 48.4227C121.597 49.616 119.576 50.884 117.032 52.2265C114.538 53.5691 111.695 54.7127 108.502 55.6575C105.359 56.5525 101.992 57 98.4003 57Z" fill="white"/>
<path d="M161.979 56.2541V32.9088L163.476 38.6519L135.341 4.0442H151.279L171.707 30.3729H165.272L185.176 4.0442H199.917L174.401 36.6381L174.775 32.3122V56.2541H161.979Z" fill="white"/>
<path d="M216.816 56.2541V4.0442H246.672C251.261 4.0442 255.127 4.5663 258.27 5.6105C261.463 6.6547 263.857 8.12155 265.454 10.0111C267.05 11.9006 267.848 14.1878 267.848 16.8729C267.848 19.7569 266.975 22.2431 265.229 24.3315C263.483 26.3702 260.839 27.7873 257.297 28.5829L257.672 27.2403C259.916 27.7376 262.012 28.5331 263.957 29.6271C265.952 30.6713 267.549 32.0884 268.746 33.8785C269.993 35.6685 270.617 37.8564 270.617 40.442C270.617 43.6243 269.943 46.2348 268.596 48.2735C267.25 50.3122 265.479 51.9282 263.284 53.1216C261.089 54.2652 258.694 55.0856 256.1 55.5829C253.556 56.0304 251.062 56.2541 248.617 56.2541H216.816ZM228.788 45.663H248.917C250.663 45.663 252.209 45.4641 253.556 45.0663C254.953 44.6685 256.05 44.047 256.848 43.2017C257.697 42.3066 258.121 41.1878 258.121 39.8453C258.121 38.3039 257.597 37.1354 256.549 36.3398C255.502 35.4945 254.23 34.9227 252.733 34.6243C251.236 34.2762 249.84 34.1022 248.543 34.1022H228.788V45.663ZM228.788 24.5553H246.822C248.468 24.5553 249.914 24.3564 251.162 23.9586C252.459 23.5608 253.456 22.989 254.155 22.2431C254.903 21.4972 255.277 20.5525 255.277 19.4088C255.277 17.6685 254.404 16.4503 252.658 15.7541C250.962 15.0083 248.867 14.6354 246.373 14.6354H228.788V24.5553Z" fill="white"/>
<path d="M292.035 56.2541V4.0442H339.026V14.8591H304.381V45.4392H339.775V56.2541H292.035ZM298.769 34.8481V24.5553H335.659V34.8481H298.769Z" fill="white"/>
<path d="M362.723 56.2541V4.0442H393.103C397.293 4.0442 400.86 4.74033 403.803 6.1326C406.746 7.47514 408.991 9.41436 410.538 11.9503C412.084 14.4365 412.857 17.3702 412.857 20.7514C412.857 24.0829 411.984 27.0912 410.238 29.7762C408.492 32.4116 406.123 34.5 403.13 36.0414C400.137 37.5332 396.794 38.279 393.103 38.279H374.845V56.2541H362.723ZM401.184 56.2541L383.375 32.6851L396.695 30.8204L416 56.2541H401.184ZM374.845 28.5829H391.606C393.103 28.5829 394.475 28.2845 395.722 27.6878C397.019 27.0912 398.041 26.2707 398.79 25.2265C399.588 24.1326 399.987 22.8646 399.987 21.4227C399.987 19.9807 399.588 18.7624 398.79 17.768C398.041 16.7735 397.019 16.0028 395.722 15.4558C394.425 14.9088 393.003 14.6354 391.457 14.6354H374.845V28.5829Z" fill="white"/>
<g opacity="0.5">
<path d="M430 56L455.265 4H460.615L485.658 56H481.422L462.027 15.5886C461.185 13.6076 460.541 12.1714 460.095 11.28C459.699 10.3886 459.352 9.72 459.055 9.27429C458.807 8.82857 458.56 8.33333 458.312 7.78857C458.064 7.19429 457.717 6.22857 457.272 4.89143H458.312C457.767 6.52572 457.321 7.71429 456.974 8.45714C456.677 9.15048 456.38 9.74476 456.083 10.24C455.785 10.7352 455.439 11.379 455.042 12.1714C454.646 12.9638 454.076 14.2514 453.333 16.0343L433.938 56H430ZM439.957 40.9943L441.592 37.3543H474.363L475.18 40.9943H439.957Z" fill="white"/>
<path d="M506.087 56V52.1371H519.686V7.86286H506.087V4H537V7.86286H523.401V52.1371H537V56H506.087Z" fill="white"/>
</g>
<defs>
<radialGradient id="paint0_radial_337_69166" cx="0" cy="0" r="1" gradientUnits="userSpaceOnUse" gradientTransform="translate(26) rotate(90) scale(56.4 48.88)">
<stop stop-color="#FF00E6"/>
<stop offset="1" stop-color="#7E00AA" stop-opacity="0.81"/>
</radialGradient>
</defs>
</svg>
