<svg width="41" height="40" viewBox="0 0 41 40" fill="none" xmlns="http://www.w3.org/2000/svg">
<g id="Instagram" clip-path="url(#clip0_222_2893)">
<path id="Subtract" fill-rule="evenodd" clip-rule="evenodd" d="M20.5 0C15.0693 0 14.3865 0.023819 12.2507 0.119095C10.1229 0.214371 8.66992 0.555776 7.39957 1.04803C6.08158 1.55617 4.97003 2.24692 3.85848 3.35848C2.74692 4.47003 2.06411 5.58952 1.54804 6.89956C1.05578 8.16991 0.714371 9.62287 0.619095 11.7586C0.523819 13.8865 0.5 14.5693 0.5 20C0.5 25.4307 0.523819 26.1135 0.619095 28.2493C0.714371 30.3771 1.05578 31.8301 1.54804 33.1084C2.05617 34.4264 2.74692 35.5379 3.85848 36.6495C4.97003 37.761 6.08952 38.4438 7.39957 38.9599C8.66992 39.4522 10.1229 39.7936 12.2586 39.8888C14.3944 39.9841 15.0693 40.0079 20.508 40.0079C25.9466 40.0079 26.6215 39.9841 28.7573 39.8888C30.8851 39.7936 32.3381 39.4522 33.6163 38.9599C34.9343 38.4518 36.0459 37.761 37.1574 36.6495C38.269 35.5379 38.9518 34.4184 39.4679 33.1084C39.9601 31.838 40.3015 30.3851 40.3968 28.2493C40.4921 26.1135 40.5159 25.4387 40.5159 20C40.5159 14.5613 40.4921 13.8865 40.3968 11.7507C40.3015 9.62287 39.9601 8.16991 39.4679 6.89162C38.9597 5.57364 38.269 4.46209 37.1574 3.35054C36.0459 2.23898 34.9264 1.55617 33.6163 1.0401C32.346 0.547836 30.893 0.206431 28.7573 0.111155C26.6136 0.023819 25.9307 0 20.5 0ZM20.5005 9.73389C14.8316 9.73389 10.2266 14.3309 10.2266 20.0078C10.2266 25.6847 14.8236 30.2817 20.5005 30.2817C26.1773 30.2817 30.7744 25.6847 30.7744 20.0078C30.7744 14.3309 26.1773 9.73389 20.5005 9.73389ZM20.5005 26.6692C16.8165 26.6692 13.8312 23.6839 13.8312 19.9999C13.8312 16.3159 16.8165 13.3306 20.5005 13.3306C24.1845 13.3306 27.1698 16.3159 27.1698 19.9999C27.1698 23.6839 24.1845 26.6692 20.5005 26.6692ZM33.5768 9.32112C33.5768 10.6454 32.5033 11.7189 31.179 11.7189C29.8548 11.7189 28.7812 10.6454 28.7812 9.32112C28.7812 7.99686 29.8548 6.92334 31.179 6.92334C32.5033 6.92334 33.5768 7.99686 33.5768 9.32112Z" fill="#E900FD"/>
</g>
<defs>
<clipPath id="clip0_222_2893">
<rect width="40" height="40" fill="white" transform="translate(0.5)"/>
</clipPath>
</defs>
</svg>
