<svg width="41" height="40" viewBox="0 0 41 40" fill="none" xmlns="http://www.w3.org/2000/svg">
<g id="LinkedIn" clip-path="url(#clip0_410_25)">
<path id="Vector" d="M37.5472 0H3.45278C2.66965 0 1.9186 0.311096 1.36485 0.864849C0.811096 1.4186 0.5 2.16965 0.5 2.95278V37.0472C0.5 37.8303 0.811096 38.5814 1.36485 39.1352C1.9186 39.6889 2.66965 40 3.45278 40H37.5472C38.3303 40 39.0814 39.6889 39.6352 39.1352C40.1889 38.5814 40.5 37.8303 40.5 37.0472V2.95278C40.5 2.16965 40.1889 1.4186 39.6352 0.864849C39.0814 0.311096 38.3303 0 37.5472 0ZM12.4222 34.075H6.40833V14.9722H12.4222V34.075ZM9.41111 12.325C8.72894 12.3212 8.06319 12.1153 7.49789 11.7335C6.93259 11.3516 6.49307 10.8109 6.2348 10.1795C5.97652 9.54808 5.91108 8.85432 6.04672 8.18576C6.18236 7.5172 6.513 6.90379 6.99693 6.42297C7.48085 5.94214 8.09636 5.61544 8.76578 5.4841C9.4352 5.35276 10.1285 5.42266 10.7583 5.68498C11.388 5.9473 11.9259 6.39028 12.3041 6.95802C12.6823 7.52576 12.8839 8.19282 12.8833 8.875C12.8898 9.33172 12.8042 9.78506 12.6317 10.208C12.4592 10.6309 12.2033 11.0148 11.8793 11.3368C11.5553 11.6587 11.1697 11.9121 10.7457 12.0819C10.3217 12.2517 9.86778 12.3344 9.41111 12.325ZM34.5889 34.0917H28.5778V23.6556C28.5778 20.5778 27.2694 19.6278 25.5806 19.6278C23.7972 19.6278 22.0472 20.9722 22.0472 23.7333V34.0917H16.0333V14.9861H21.8167V17.6333H21.8944C22.475 16.4583 24.5083 14.45 27.6111 14.45C30.9667 14.45 34.5917 16.4417 34.5917 22.275L34.5889 34.0917Z" fill="#E900FD"/>
</g>
<defs>
<clipPath id="clip0_410_25">
<rect width="40" height="40" fill="white" transform="translate(0.5)"/>
</clipPath>
</defs>
</svg>
