<svg width="374" height="50" viewBox="0 0 374 50" fill="none" xmlns="http://www.w3.org/2000/svg">
<path d="M24.1607 10.3242L32.1549 14.4402C32.4766 14.0961 32.8651 13.7791 33.3476 13.5487C35.4752 12.454 38.1824 13.0881 39.4085 14.9876C40.6347 16.887 39.8911 19.3041 37.7636 20.396C37.3113 20.6562 36.8288 20.7998 36.3128 20.8865V29.1157C36.8288 29.1997 37.3113 29.3461 37.7636 29.5764C39.8911 30.6711 40.6316 33.1152 39.4085 34.9849C38.1824 36.8843 35.4752 37.5455 33.3476 36.4535C32.8651 36.2232 32.4766 35.9061 32.1549 35.562L24.1607 39.6753C24.3215 40.1088 24.4186 40.5668 24.4186 41.0274C24.4186 43.2141 22.452 44.9998 20.0027 44.9998C17.5535 44.9998 15.5564 43.2168 15.5564 41.0274C15.5564 40.5668 15.6536 40.1088 15.8144 39.6753L7.82019 35.562C7.49848 35.9061 7.11002 36.2232 6.66084 36.4535C4.5333 37.5482 1.82609 36.8843 0.599945 34.9849C-0.626196 33.1152 0.0839754 30.6684 2.21151 29.5764C2.66373 29.3461 3.17969 29.2024 3.66225 29.1157V20.8865C3.17969 20.7998 2.66373 20.6562 2.21151 20.396C0.0839754 19.3013 -0.626196 16.887 0.599945 14.9876C1.82609 13.0881 4.5333 12.4567 6.66084 13.5487C7.11305 13.7791 7.49848 14.0961 7.82019 14.4402L15.8144 10.3242C15.6536 9.89341 15.5564 9.43276 15.5564 8.94231C15.5564 6.75561 17.5535 4.99976 20.0027 4.99976C22.452 4.99976 24.4186 6.75561 24.4186 8.94231C24.4186 9.43005 24.3215 9.89341 24.1607 10.3242ZM32.1549 19.5046L25.581 22.8998C25.8694 23.5609 26.0333 24.2519 26.0333 24.9998C26.0333 25.7476 25.8724 26.4386 25.581 27.0727L32.1549 30.4678C32.8317 29.7471 33.7664 29.2891 34.7983 29.1157V20.8865C33.7998 20.7131 32.8317 20.2524 32.1549 19.5046ZM15.168 28.2513L8.59414 31.6466C8.94923 32.5678 8.94923 33.5162 8.59414 34.3806L16.5883 38.4966C17.2651 37.8056 18.1666 37.3179 19.2318 37.1445V30.354C17.5869 30.1508 16.1392 29.3759 15.171 28.2513H15.168ZM7.82019 30.4678L14.4274 27.0727C14.1057 26.4386 13.9448 25.7503 13.9448 24.9998C13.9448 24.2492 14.1057 23.5609 14.4274 22.8998L7.82019 19.5046C7.14339 20.2524 6.20861 20.7131 5.2101 20.8865V29.1157C6.20861 29.2891 7.14339 29.7471 7.82019 30.4678ZM24.8071 21.7211L31.384 18.3259C31.0289 17.4344 31.0289 16.486 31.384 15.6216L23.3898 11.4786C22.7464 12.1993 21.8116 12.6871 20.7463 12.8605V19.6509C22.3913 19.8243 23.839 20.5993 24.8071 21.7238V21.7211ZM20.7463 30.354V37.1445C21.8086 37.3179 22.7433 37.8056 23.3898 38.4966L31.384 34.3806C31.0289 33.5162 31.0289 32.5407 31.384 31.6466L24.8071 28.2513C23.842 29.3759 22.3913 30.1508 20.7463 30.354ZM19.2318 19.6482V12.8578C18.1696 12.6844 17.2651 12.1966 16.5883 11.5057L8.59414 15.6216C8.94923 16.486 8.94923 17.4344 8.59414 18.3259L15.168 21.7211C16.1361 20.5993 17.5838 19.8216 19.2288 19.6482H19.2318Z" fill="#BD00FF"/>
<path d="M24.1607 10.3242L32.1549 14.4402C32.4766 14.0961 32.8651 13.7791 33.3476 13.5487C35.4752 12.454 38.1824 13.0881 39.4085 14.9876C40.6347 16.887 39.8911 19.3041 37.7636 20.396C37.3113 20.6562 36.8288 20.7998 36.3128 20.8865V29.1157C36.8288 29.1997 37.3113 29.3461 37.7636 29.5764C39.8911 30.6711 40.6316 33.1152 39.4085 34.9849C38.1824 36.8843 35.4752 37.5455 33.3476 36.4535C32.8651 36.2232 32.4766 35.9061 32.1549 35.562L24.1607 39.6753C24.3215 40.1088 24.4186 40.5668 24.4186 41.0274C24.4186 43.2141 22.452 44.9998 20.0027 44.9998C17.5535 44.9998 15.5564 43.2168 15.5564 41.0274C15.5564 40.5668 15.6536 40.1088 15.8144 39.6753L7.82019 35.562C7.49848 35.9061 7.11002 36.2232 6.66084 36.4535C4.5333 37.5482 1.82609 36.8843 0.599945 34.9849C-0.626196 33.1152 0.0839754 30.6684 2.21151 29.5764C2.66373 29.3461 3.17969 29.2024 3.66225 29.1157V20.8865C3.17969 20.7998 2.66373 20.6562 2.21151 20.396C0.0839754 19.3013 -0.626196 16.887 0.599945 14.9876C1.82609 13.0881 4.5333 12.4567 6.66084 13.5487C7.11305 13.7791 7.49848 14.0961 7.82019 14.4402L15.8144 10.3242C15.6536 9.89341 15.5564 9.43276 15.5564 8.94231C15.5564 6.75561 17.5535 4.99976 20.0027 4.99976C22.452 4.99976 24.4186 6.75561 24.4186 8.94231C24.4186 9.43005 24.3215 9.89341 24.1607 10.3242ZM32.1549 19.5046L25.581 22.8998C25.8694 23.5609 26.0333 24.2519 26.0333 24.9998C26.0333 25.7476 25.8724 26.4386 25.581 27.0727L32.1549 30.4678C32.8317 29.7471 33.7664 29.2891 34.7983 29.1157V20.8865C33.7998 20.7131 32.8317 20.2524 32.1549 19.5046ZM15.168 28.2513L8.59414 31.6466C8.94923 32.5678 8.94923 33.5162 8.59414 34.3806L16.5883 38.4966C17.2651 37.8056 18.1666 37.3179 19.2318 37.1445V30.354C17.5869 30.1508 16.1392 29.3759 15.171 28.2513H15.168ZM7.82019 30.4678L14.4274 27.0727C14.1057 26.4386 13.9448 25.7503 13.9448 24.9998C13.9448 24.2492 14.1057 23.5609 14.4274 22.8998L7.82019 19.5046C7.14339 20.2524 6.20861 20.7131 5.2101 20.8865V29.1157C6.20861 29.2891 7.14339 29.7471 7.82019 30.4678ZM24.8071 21.7211L31.384 18.3259C31.0289 17.4344 31.0289 16.486 31.384 15.6216L23.3898 11.4786C22.7464 12.1993 21.8116 12.6871 20.7463 12.8605V19.6509C22.3913 19.8243 23.839 20.5993 24.8071 21.7238V21.7211ZM20.7463 30.354V37.1445C21.8086 37.3179 22.7433 37.8056 23.3898 38.4966L31.384 34.3806C31.0289 33.5162 31.0289 32.5407 31.384 31.6466L24.8071 28.2513C23.842 29.3759 22.3913 30.1508 20.7463 30.354ZM19.2318 19.6482V12.8578C18.1696 12.6844 17.2651 12.1966 16.5883 11.5057L8.59414 15.6216C8.94923 16.486 8.94923 17.4344 8.59414 18.3259L15.168 21.7211C16.1361 20.5993 17.5838 19.8216 19.2288 19.6482H19.2318Z" fill="url(#paint0_radial_135_13011)"/>
<path d="M67.8 44.4998C64.7667 44.4998 61.9333 44.0664 59.3 43.1998C56.7 42.3331 54.4 41.0998 52.4 39.4998C50.4333 37.8998 48.9 35.9998 47.8 33.7998C46.7 31.5664 46.15 29.0831 46.15 26.3498C46.15 23.6831 46.7167 21.2498 47.85 19.0498C48.9833 16.8498 50.5167 14.9498 52.45 13.3498C54.4167 11.7164 56.7 10.4664 59.3 9.59975C61.9333 8.73309 64.7333 8.29975 67.7 8.29975C69.9333 8.29975 72.0667 8.54975 74.1 9.04975C76.1667 9.54975 78.0667 10.2164 79.8 11.0498C81.5667 11.8498 83.0333 12.7331 84.2 13.6998L79.4 20.4498C78.4667 19.6831 77.4 18.9664 76.2 18.2998C75.0333 17.6331 73.7 17.0998 72.2 16.6998C70.7333 16.2998 69.05 16.0998 67.15 16.0998C65.65 16.0998 64.1833 16.3331 62.75 16.7998C61.3167 17.2331 60 17.8831 58.8 18.7498C57.6 19.6164 56.65 20.6998 55.95 21.9998C55.25 23.2998 54.9 24.7831 54.9 26.4498C54.9 28.1498 55.2667 29.6498 56 30.9498C56.7667 32.2498 57.7833 33.3331 59.05 34.1998C60.3167 35.0664 61.75 35.7164 63.35 36.1498C64.95 36.5831 66.6 36.7998 68.3 36.7998C70.2333 36.7998 71.9333 36.5498 73.4 36.0498C74.8667 35.5164 76.1667 34.8831 77.3 34.1498C78.4333 33.4164 79.4333 32.7498 80.3 32.1498L84.3 38.7498C83.3 39.5498 81.95 40.3998 80.25 41.2998C78.5833 42.1998 76.6833 42.9664 74.55 43.5998C72.45 44.1998 70.2 44.4998 67.8 44.4998ZM110.284 43.9998V28.3498L111.284 32.1998L92.4838 8.99975H103.134L116.784 26.6498H112.484L125.784 8.99975H135.634L118.584 30.8498L118.834 27.9498V43.9998H110.284ZM146.926 43.9998V8.99975H166.876C169.942 8.99975 172.526 9.34975 174.626 10.0498C176.759 10.7498 178.359 11.7331 179.426 12.9998C180.492 14.2664 181.026 15.7998 181.026 17.5998C181.026 19.5331 180.442 21.1998 179.276 22.5998C178.109 23.9664 176.342 24.9164 173.976 25.4498L174.226 24.5498C175.726 24.8831 177.126 25.4164 178.426 26.1498C179.759 26.8498 180.826 27.7998 181.626 28.9998C182.459 30.1998 182.876 31.6664 182.876 33.3998C182.876 35.5331 182.426 37.2831 181.526 38.6498C180.626 40.0164 179.442 41.0998 177.976 41.8998C176.509 42.6664 174.909 43.2164 173.176 43.5498C171.476 43.8498 169.809 43.9998 168.176 43.9998H146.926ZM154.926 36.8998H168.376C169.542 36.8998 170.576 36.7664 171.476 36.4998C172.409 36.2331 173.142 35.8164 173.676 35.2498C174.242 34.6498 174.526 33.8998 174.526 32.9998C174.526 31.9664 174.176 31.1831 173.476 30.6498C172.776 30.0831 171.926 29.6998 170.926 29.4998C169.926 29.2664 168.992 29.1498 168.126 29.1498H154.926V36.8998ZM154.926 22.7498H166.976C168.076 22.7498 169.042 22.6164 169.876 22.3498C170.742 22.0831 171.409 21.6998 171.876 21.1998C172.376 20.6998 172.626 20.0664 172.626 19.2998C172.626 18.1331 172.042 17.3164 170.876 16.8498C169.742 16.3498 168.342 16.0998 166.676 16.0998H154.926V22.7498ZM197.187 43.9998V8.99975H228.587V16.2498H205.437V36.7498H229.087V43.9998H197.187ZM201.687 29.6498V22.7498H226.337V29.6498H201.687ZM244.422 43.9998V8.99975H264.722C267.522 8.99975 269.905 9.46642 271.872 10.3998C273.838 11.2998 275.338 12.5998 276.372 14.2998C277.405 15.9664 277.922 17.9331 277.922 20.1998C277.922 22.4331 277.338 24.4498 276.172 26.2498C275.005 28.0164 273.422 29.4164 271.422 30.4498C269.422 31.4498 267.188 31.9498 264.722 31.9498H252.522V43.9998H244.422ZM270.122 43.9998L258.222 28.1998L267.122 26.9498L280.022 43.9998H270.122ZM252.522 25.4498H263.722C264.722 25.4498 265.638 25.2498 266.472 24.8498C267.338 24.4498 268.022 23.8998 268.522 23.1998C269.055 22.4664 269.322 21.6164 269.322 20.6498C269.322 19.6831 269.055 18.8664 268.522 18.1998C268.022 17.5331 267.338 17.0164 266.472 16.6498C265.605 16.2831 264.655 16.0998 263.622 16.0998H252.522V25.4498Z" fill="white"/>
<path opacity="0.5" d="M291.75 43.9998L308.75 8.99975H312.35L329.2 43.9998H326.35L313.3 16.7998C312.733 15.4664 312.3 14.4998 312 13.8998C311.733 13.2998 311.5 12.8498 311.3 12.5498C311.133 12.2498 310.967 11.9164 310.8 11.5498C310.633 11.1498 310.4 10.4998 310.1 9.59975H310.8C310.433 10.6998 310.133 11.4998 309.9 11.9998C309.7 12.4664 309.5 12.8664 309.3 13.1998C309.1 13.5331 308.867 13.9664 308.6 14.4998C308.333 15.0331 307.95 15.8998 307.45 17.0998L294.4 43.9998H291.75ZM298.45 33.8998L299.55 31.4498H321.6L322.15 33.8998H298.45ZM342.946 43.9998V41.3998H352.096V11.5998H342.946V8.99975H363.746V11.5998H354.596V41.3998H363.746V43.9998H342.946Z" fill="white"/>
<defs>
<radialGradient id="paint0_radial_135_13011" cx="0" cy="0" r="1" gradientUnits="userSpaceOnUse" gradientTransform="translate(20 4.99976) rotate(90) scale(37.6)">
<stop stop-color="#FF00E6"/>
<stop offset="1" stop-color="#7E00AA" stop-opacity="0.81"/>
</radialGradient>
</defs>
</svg>
