<svg width="229" height="26" viewBox="0 0 229 26" fill="none" xmlns="http://www.w3.org/2000/svg">
<path d="M13.2884 3.46092L17.6852 6.1363C17.8621 5.91262 18.0758 5.70654 18.3412 5.55683C19.5114 4.84528 21.0003 5.25742 21.6747 6.49207C22.3491 7.72673 21.9401 9.29779 20.77 10.0076C20.5212 10.1767 20.2558 10.27 19.972 10.3264V15.6754C20.2558 15.73 20.5212 15.8251 20.77 15.9748C21.9401 16.6864 22.3474 18.275 21.6747 19.4903C21.0003 20.725 19.5114 21.1547 18.3412 20.4449C18.0758 20.2952 17.8621 20.0892 17.6852 19.8655L13.2884 22.5391C13.3768 22.8209 13.4303 23.1186 13.4303 23.418C13.4303 24.8393 12.3486 26 11.0015 26C9.6544 26 8.55603 24.8411 8.55603 23.418C8.55603 23.1186 8.60946 22.8209 8.69793 22.5391L4.30111 19.8655C4.12417 20.0892 3.91051 20.2952 3.66346 20.4449C2.49332 21.1565 1.00435 20.725 0.32997 19.4903C-0.344408 18.275 0.0461865 16.6846 1.21633 15.9748C1.46505 15.8251 1.74883 15.7317 2.01424 15.6754V10.3264C1.74883 10.27 1.46505 10.1767 1.21633 10.0076C0.0461865 9.29603 -0.344408 7.72673 0.32997 6.49207C1.00435 5.25742 2.49332 4.84704 3.66346 5.55683C3.91218 5.70654 4.12417 5.91262 4.30111 6.1363L8.69793 3.46092C8.60946 3.18087 8.55603 2.88145 8.55603 2.56266C8.55603 1.14131 9.6544 0 11.0015 0C12.3486 0 13.4303 1.14131 13.4303 2.56266C13.4303 2.87969 13.3768 3.18087 13.2884 3.46092ZM17.6852 9.42813L14.0696 11.635C14.2282 12.0648 14.3183 12.5139 14.3183 13C14.3183 13.4861 14.2298 13.9352 14.0696 14.3474L17.6852 16.5543C18.0574 16.0858 18.5715 15.7881 19.1391 15.6754V10.3264C18.5899 10.2137 18.0574 9.91424 17.6852 9.42813ZM8.34238 15.1135L4.72677 17.3204C4.92208 17.9193 4.92208 18.5357 4.72677 19.0975L9.12358 21.7729C9.49582 21.3238 9.9916 21.0068 10.5775 20.8941V16.4803C9.67278 16.3482 8.87654 15.8445 8.34405 15.1135H8.34238ZM4.30111 16.5543L7.93507 14.3474C7.75813 13.9352 7.66967 13.4879 7.66967 13C7.66967 12.5121 7.75813 12.0648 7.93507 11.635L4.30111 9.42813C3.92886 9.91424 3.41474 10.2137 2.86555 10.3264V15.6754C3.41474 15.7881 3.92886 16.0858 4.30111 16.5543ZM13.6439 10.8689L17.2612 8.66197C17.0659 8.08251 17.0659 7.46606 17.2612 6.90422L12.8644 4.21122C12.5105 4.67972 11.9964 4.99675 11.4105 5.10947V9.52324C12.3152 9.63596 13.1114 10.1397 13.6439 10.8706V10.8689ZM11.4105 16.4803V20.8941C11.9947 21.0068 12.5088 21.3238 12.8644 21.7729L17.2612 19.0975C17.0659 18.5357 17.0659 17.9016 17.2612 17.3204L13.6439 15.1135C13.1131 15.8445 12.3152 16.3482 11.4105 16.4803ZM10.5775 9.52147V5.10771C9.99327 4.99499 9.49582 4.67796 9.12358 4.22883L4.72677 6.90422C4.92208 7.46606 4.92208 8.08251 4.72677 8.66197L8.34238 10.8689C8.87487 10.1397 9.67111 9.6342 10.5758 9.52147H10.5775Z" fill="#BD00FF"/>
<path d="M13.2884 3.46092L17.6852 6.1363C17.8621 5.91262 18.0758 5.70654 18.3412 5.55683C19.5114 4.84528 21.0003 5.25742 21.6747 6.49207C22.3491 7.72673 21.9401 9.29779 20.77 10.0076C20.5212 10.1767 20.2558 10.27 19.972 10.3264V15.6754C20.2558 15.73 20.5212 15.8251 20.77 15.9748C21.9401 16.6864 22.3474 18.275 21.6747 19.4903C21.0003 20.725 19.5114 21.1547 18.3412 20.4449C18.0758 20.2952 17.8621 20.0892 17.6852 19.8655L13.2884 22.5391C13.3768 22.8209 13.4303 23.1186 13.4303 23.418C13.4303 24.8393 12.3486 26 11.0015 26C9.6544 26 8.55603 24.8411 8.55603 23.418C8.55603 23.1186 8.60946 22.8209 8.69793 22.5391L4.30111 19.8655C4.12417 20.0892 3.91051 20.2952 3.66346 20.4449C2.49332 21.1565 1.00435 20.725 0.32997 19.4903C-0.344408 18.275 0.0461865 16.6846 1.21633 15.9748C1.46505 15.8251 1.74883 15.7317 2.01424 15.6754V10.3264C1.74883 10.27 1.46505 10.1767 1.21633 10.0076C0.0461865 9.29603 -0.344408 7.72673 0.32997 6.49207C1.00435 5.25742 2.49332 4.84704 3.66346 5.55683C3.91218 5.70654 4.12417 5.91262 4.30111 6.1363L8.69793 3.46092C8.60946 3.18087 8.55603 2.88145 8.55603 2.56266C8.55603 1.14131 9.6544 0 11.0015 0C12.3486 0 13.4303 1.14131 13.4303 2.56266C13.4303 2.87969 13.3768 3.18087 13.2884 3.46092ZM17.6852 9.42813L14.0696 11.635C14.2282 12.0648 14.3183 12.5139 14.3183 13C14.3183 13.4861 14.2298 13.9352 14.0696 14.3474L17.6852 16.5543C18.0574 16.0858 18.5715 15.7881 19.1391 15.6754V10.3264C18.5899 10.2137 18.0574 9.91424 17.6852 9.42813ZM8.34238 15.1135L4.72677 17.3204C4.92208 17.9193 4.92208 18.5357 4.72677 19.0975L9.12358 21.7729C9.49582 21.3238 9.9916 21.0068 10.5775 20.8941V16.4803C9.67278 16.3482 8.87654 15.8445 8.34405 15.1135H8.34238ZM4.30111 16.5543L7.93507 14.3474C7.75813 13.9352 7.66967 13.4879 7.66967 13C7.66967 12.5121 7.75813 12.0648 7.93507 11.635L4.30111 9.42813C3.92886 9.91424 3.41474 10.2137 2.86555 10.3264V15.6754C3.41474 15.7881 3.92886 16.0858 4.30111 16.5543ZM13.6439 10.8689L17.2612 8.66197C17.0659 8.08251 17.0659 7.46606 17.2612 6.90422L12.8644 4.21122C12.5105 4.67972 11.9964 4.99675 11.4105 5.10947V9.52324C12.3152 9.63596 13.1114 10.1397 13.6439 10.8706V10.8689ZM11.4105 16.4803V20.8941C11.9947 21.0068 12.5088 21.3238 12.8644 21.7729L17.2612 19.0975C17.0659 18.5357 17.0659 17.9016 17.2612 17.3204L13.6439 15.1135C13.1131 15.8445 12.3152 16.3482 11.4105 16.4803ZM10.5775 9.52147V5.10771C9.99327 4.99499 9.49582 4.67796 9.12358 4.22883L4.72677 6.90422C4.92208 7.46606 4.92208 8.08251 4.72677 8.66197L8.34238 10.8689C8.87487 10.1397 9.67111 9.6342 10.5758 9.52147H10.5775Z" fill="url(#paint0_radial_272_496)"/>
<path d="M40.8858 26C38.9403 26 37.1231 25.6888 35.4341 25.0663C33.7665 24.4438 32.2914 23.558 31.0086 22.4088C29.7472 21.2597 28.7638 19.895 28.0583 18.3149C27.3528 16.7109 27 14.9273 27 12.9641C27 11.0488 27.3634 9.30111 28.0903 7.721C28.8172 6.14089 29.8007 4.77624 31.0407 3.62707C32.3021 2.45396 33.7665 1.55617 35.4341 0.933702C37.1231 0.311234 38.9189 0 40.8217 0C42.2541 0 43.6224 0.179558 44.9265 0.538674C46.252 0.897791 47.4706 1.37661 48.5824 1.97514C49.7155 2.54972 50.6562 3.18416 51.4044 3.87845L48.3258 8.72652C47.7272 8.17588 47.0431 7.66114 46.2734 7.18232C45.5251 6.7035 44.67 6.32044 43.7079 6.03315C42.7672 5.74586 41.6876 5.60221 40.4689 5.60221C39.5069 5.60221 38.5662 5.7698 37.6469 6.10497C36.7276 6.41621 35.8831 6.88306 35.1134 7.50553C34.3438 8.12799 33.7345 8.90608 33.2855 9.83978C32.8365 10.7735 32.6121 11.8389 32.6121 13.0359C32.6121 14.2569 32.8472 15.3343 33.3176 16.268C33.8093 17.2017 34.4614 17.9797 35.2738 18.6022C36.0862 19.2247 37.0055 19.6915 38.0317 20.0028C39.0579 20.314 40.1162 20.4696 41.2065 20.4696C42.4465 20.4696 43.5369 20.2901 44.4775 19.9309C45.4182 19.5479 46.252 19.093 46.9789 18.5663C47.7058 18.0396 48.3472 17.5608 48.9031 17.1298L51.4686 21.8702C50.8272 22.4448 49.9613 23.0553 48.871 23.7017C47.802 24.3481 46.5834 24.8987 45.2151 25.3536C43.8682 25.7845 42.4251 26 40.8858 26Z" fill="white"/>
<path d="M68.134 25.6409V14.4006L68.7754 17.1657L56.7175 0.502762H63.5481L72.303 13.1796H69.545L78.0754 0.502762H84.3929L73.4574 16.1961L73.6178 14.1133V25.6409H68.134Z" fill="white"/>
<path d="M91.6354 25.6409V0.502762H104.431C106.398 0.502762 108.055 0.754144 109.402 1.25691C110.77 1.75967 111.796 2.46593 112.48 3.37569C113.164 4.28545 113.506 5.38674 113.506 6.67956C113.506 8.06814 113.132 9.26519 112.384 10.2707C111.636 11.2523 110.503 11.9346 108.985 12.3177L109.145 11.6713C110.107 11.9107 111.005 12.2937 111.839 12.8204C112.694 13.3232 113.378 14.0055 113.891 14.8674C114.426 15.7293 114.693 16.7827 114.693 18.0276C114.693 19.5599 114.404 20.8168 113.827 21.7983C113.25 22.7799 112.491 23.558 111.55 24.1326C110.609 24.6832 109.583 25.0783 108.472 25.3177C107.381 25.5332 106.312 25.6409 105.265 25.6409H91.6354ZM96.7664 20.5414H105.393C106.141 20.5414 106.804 20.4457 107.381 20.2541C107.98 20.0626 108.45 19.7634 108.792 19.3564C109.156 18.9254 109.337 18.3867 109.337 17.7403C109.337 16.9982 109.113 16.4355 108.664 16.0525C108.215 15.6455 107.67 15.3702 107.028 15.2265C106.387 15.0589 105.788 14.9751 105.233 14.9751H96.7664V20.5414ZM96.7664 10.3785H104.495C105.201 10.3785 105.82 10.2827 106.355 10.0912C106.911 9.89963 107.338 9.62431 107.638 9.26519C107.958 8.90608 108.119 8.4512 108.119 7.90055C108.119 7.06262 107.745 6.47606 106.996 6.14088C106.269 5.78177 105.372 5.60221 104.303 5.60221H96.7664V10.3785Z" fill="white"/>
<path d="M123.872 25.6409V0.502762H144.011V5.70995H129.163V20.4337H144.332V25.6409H123.872ZM126.758 15.3343V10.3785H142.568V15.3343H126.758Z" fill="white"/>
<path d="M154.167 25.6409V0.502762H167.187C168.983 0.502762 170.511 0.837937 171.773 1.50829C173.034 2.1547 173.996 3.0884 174.659 4.30939C175.322 5.50645 175.653 6.91897 175.653 8.54696C175.653 10.151 175.279 11.5994 174.531 12.8923C173.782 14.1611 172.767 15.1667 171.484 15.9088C170.201 16.6271 168.769 16.9862 167.187 16.9862H159.362V25.6409H154.167ZM170.65 25.6409L163.018 14.2928L168.726 13.395L177 25.6409H170.65ZM159.362 12.3177H166.546C167.187 12.3177 167.775 12.174 168.309 11.8867C168.865 11.5994 169.303 11.2044 169.624 10.7017C169.966 10.175 170.137 9.56446 170.137 8.87017C170.137 8.17588 169.966 7.58932 169.624 7.1105C169.303 6.63168 168.865 6.26059 168.309 5.99724C167.753 5.73389 167.144 5.60221 166.481 5.60221H159.362V12.3177Z" fill="white"/>
<g opacity="0.5">
<path d="M182 24L193.098 2H195.448L206.448 24H204.587L196.068 6.90286C195.698 6.06476 195.415 5.45714 195.219 5.08C195.045 4.70286 194.893 4.42 194.762 4.23143C194.654 4.04286 194.545 3.83333 194.436 3.60286C194.327 3.35143 194.175 2.94286 193.979 2.37714H194.436C194.197 3.06857 194.001 3.57143 193.849 3.88571C193.718 4.17905 193.587 4.43048 193.457 4.64C193.326 4.84952 193.174 5.12191 193 5.45714C192.826 5.79238 192.576 6.33714 192.249 7.09143L183.73 24H182ZM186.374 17.6514L187.092 16.1114H201.486L201.845 17.6514H186.374Z" fill="white"/>
<path d="M215.422 24V22.3657H221.395V3.63429H215.422V2H229V3.63429H223.027V22.3657H229V24H215.422Z" fill="white"/>
</g>
<defs>
<radialGradient id="paint0_radial_272_496" cx="0" cy="0" r="1" gradientUnits="userSpaceOnUse" gradientTransform="translate(11) rotate(90) scale(24.44 20.68)">
<stop stop-color="#FF00E6"/>
<stop offset="1" stop-color="#7E00AA" stop-opacity="0.81"/>
</radialGradient>
</defs>
</svg>
