<svg width="717" height="103" viewBox="0 0 717 103" fill="none" xmlns="http://www.w3.org/2000/svg">
<path d="M86.3703 88.6732C80.1406 88.6732 74.3215 87.7832 68.9133 86.0033C63.5735 84.2233 58.8498 81.6904 54.7423 78.4043C50.7032 75.1183 47.5541 71.2161 45.295 66.6978C43.0358 62.1111 41.9062 57.0109 41.9062 51.3973C41.9062 45.9206 43.0701 40.9231 45.3977 36.4048C47.7253 31.8865 50.8744 27.9843 54.845 24.6983C58.8841 21.3438 63.5735 18.7766 68.9133 16.9967C74.3215 15.2167 80.0721 14.3268 86.1649 14.3268C90.7517 14.3268 95.1331 14.8402 99.309 15.8671C103.553 16.894 107.456 18.2632 111.016 19.9746C114.644 21.6177 117.656 23.4318 120.052 25.4171L110.194 39.2801C108.277 37.7055 106.086 36.2336 103.622 34.8645C101.226 33.4953 98.4875 32.3999 95.4069 31.5784C92.3947 30.7569 88.9375 30.3462 85.0354 30.3462C81.9547 30.3462 78.9425 30.8254 75.9988 31.7838C73.0551 32.6738 70.3509 34.0087 67.8864 35.7887C65.4219 37.5686 63.4708 39.7935 62.0332 42.4634C60.5955 45.1333 59.8767 48.1797 59.8767 51.6027C59.8767 55.0941 60.6298 58.1747 62.1359 60.8446C63.7104 63.5145 65.7984 65.7394 68.3998 67.5194C71.0013 69.2993 73.945 70.6342 77.231 71.5242C80.5171 72.4142 83.9058 72.8592 87.3972 72.8592C91.3678 72.8592 94.8592 72.3457 97.8714 71.3188C100.884 70.2235 103.553 68.9228 105.881 67.4167C108.209 65.9106 110.262 64.5414 112.042 63.3091L120.257 76.864C118.204 78.507 115.431 80.2527 111.94 82.1011C108.517 83.9495 104.615 85.524 100.233 86.8248C95.9203 88.057 91.2994 88.6732 86.3703 88.6732Z" fill="white"/>
<path d="M173.622 87.6463V55.5048L175.676 63.4118L137.065 15.7644H158.938L186.972 52.0134H178.14L205.456 15.7644H225.685L190.668 60.6392L191.182 54.6833V87.6463H173.622Z" fill="white"/>
<path d="M248.876 87.6463V15.7644H289.849C296.147 15.7644 301.453 16.4832 305.766 17.9209C310.147 19.3585 313.433 21.3781 315.624 23.9795C317.814 26.5809 318.91 29.73 318.91 33.4268C318.91 37.3974 317.712 40.8204 315.316 43.6957C312.92 46.5025 309.291 48.4535 304.431 49.5489L304.944 47.7005C308.025 48.3851 310.9 49.4804 313.57 50.9865C316.308 52.4242 318.499 54.3752 320.142 56.8398C321.853 59.3043 322.709 62.3165 322.709 65.8763C322.709 70.2577 321.785 73.8518 319.937 76.6586C318.088 79.4654 315.658 81.6904 312.646 83.3334C309.634 84.9079 306.348 86.0375 302.788 86.7221C299.296 87.3382 295.873 87.6463 292.519 87.6463H248.876ZM265.306 73.0645H292.93C295.326 73.0645 297.448 72.7907 299.296 72.243C301.213 71.6954 302.719 70.8396 303.815 69.6758C304.978 68.4436 305.56 66.9032 305.56 65.0548C305.56 62.9326 304.841 61.3238 303.404 60.2285C301.966 59.0647 300.22 58.2774 298.167 57.8666C296.113 57.3874 294.196 57.1478 292.416 57.1478H265.306V73.0645ZM265.306 44.0037H290.054C292.313 44.0037 294.299 43.7299 296.01 43.1822C297.79 42.6345 299.159 41.8473 300.118 40.8204C301.145 39.7935 301.658 38.4928 301.658 36.9182C301.658 34.5222 300.46 32.8449 298.064 31.8865C295.736 30.8596 292.861 30.3462 289.438 30.3462H265.306V44.0037Z" fill="white"/>
<path d="M352.102 87.6463V15.7644H416.59V30.6542H369.045V72.7565H417.617V87.6463H352.102ZM361.344 58.1747V44.0037H411.969V58.1747H361.344Z" fill="white"/>
<path d="M449.11 87.6463V15.7644H490.801C496.552 15.7644 501.447 16.7228 505.486 18.6397C509.525 20.4881 512.605 23.158 514.728 26.6494C516.85 30.0723 517.911 34.1114 517.911 38.7666C517.911 43.3534 516.713 47.4951 514.317 51.1919C511.921 54.8202 508.669 57.6955 504.562 59.8177C500.454 61.8715 495.867 62.8984 490.801 62.8984H465.745V87.6463H449.11ZM501.892 87.6463L477.452 55.1968L495.73 52.6295L522.224 87.6463H501.892ZM465.745 49.5489H488.748C490.801 49.5489 492.684 49.1381 494.395 48.3166C496.175 47.4951 497.579 46.3656 498.606 44.9279C499.701 43.4218 500.249 41.6761 500.249 39.6908C500.249 37.7055 499.701 36.0283 498.606 34.6591C497.579 33.2899 496.175 32.2288 494.395 31.4757C492.615 30.7227 490.664 30.3462 488.542 30.3462H465.745V49.5489Z" fill="white"/>
<g opacity="0.5">
<path d="M527.227 87.4409L562.141 15.5591H569.534L604.14 87.4409H598.287L571.485 31.5785C570.321 28.8401 569.431 26.8548 568.815 25.6225C568.268 24.3903 567.788 23.4661 567.378 22.85C567.035 22.2338 566.693 21.5492 566.351 20.7962C566.009 19.9747 565.529 18.6397 564.913 16.7913H566.351C565.598 19.0505 564.982 20.6935 564.502 21.7204C564.092 22.6788 563.681 23.5003 563.27 24.1849C562.859 24.8695 562.38 25.7595 561.833 26.8548C561.285 27.9501 560.498 29.7301 559.471 32.1946L532.669 87.4409H527.227ZM540.987 66.6979L543.246 61.6662H588.532L589.661 66.6979H540.987Z" fill="white"/>
<path d="M632.372 87.4409V82.1011H651.164V20.8989H632.372V15.5591H675.09V20.8989H656.298V82.1011H675.09V87.4409H632.372Z" fill="white"/>
</g>
</svg>
