<svg width="131" height="132" viewBox="0 0 131 132" fill="none" xmlns="http://www.w3.org/2000/svg">
<g filter="url(#filter0_b_217_2285)">
<ellipse cx="65.5" cy="66" rx="65.5" ry="66" fill="#060007" fill-opacity="0.2"/>
</g>
<g clip-path="url(#clip0_217_2285)">
<path d="M66.153 101.64C67.3507 101.64 68.3227 100.661 68.3227 99.4537V72.0556C70.4403 71.1899 71.9389 69.0998 71.9389 66.66C71.9389 63.4447 69.3439 60.83 66.153 60.83C62.9621 60.83 60.3672 63.4447 60.3672 66.66C60.3672 69.0998 61.8657 71.1899 63.9833 72.0556V99.4537C63.9833 100.661 64.9554 101.64 66.153 101.64Z" fill="#FFE500"/>
<path d="M44.3698 81.3224L53.8585 90.8836V99.4508C53.8585 100.661 54.8306 101.64 56.0282 101.64C57.2259 101.64 58.1979 100.661 58.1979 99.4537V89.98C58.1979 89.3999 57.9694 88.8431 57.5615 88.435L48.0727 78.8738V72.0585C50.1903 71.1899 51.6889 69.0998 51.6889 66.66C51.6889 63.4447 49.0939 60.83 45.903 60.83C42.7121 60.83 40.1172 63.4447 40.1172 66.66C40.1172 69.0998 41.6157 71.1899 43.7333 72.0556V79.7775C43.7333 80.3575 43.9619 80.9143 44.3698 81.3224Z" fill="#FFE500"/>
<path d="M74.738 88.435C74.3301 88.846 74.1016 89.3999 74.1016 89.98V99.4537C74.1016 100.661 75.0736 101.64 76.2713 101.64C77.4689 101.64 78.4409 100.661 78.4409 99.4537V90.8865L87.9297 81.3253C88.3376 80.9143 88.5661 80.3605 88.5661 79.7804V72.0585C90.6838 71.1899 92.1823 69.0998 92.1823 66.66C92.1823 63.4447 89.5873 60.83 86.3965 60.83C83.2056 60.83 80.6106 63.4447 80.6106 66.66C80.6106 69.0998 82.1092 71.1899 84.2268 72.0556V78.8709L74.738 88.435Z" fill="#FFE500"/>
<path d="M92.912 43.3398H80.6171V37.5098C80.6171 34.2946 78.0221 31.6798 74.8312 31.6798H57.4738C54.2829 31.6798 51.6879 34.2946 51.6879 37.5098V43.3398H39.393C35.0045 43.3398 31.4375 46.934 31.4375 51.3561V84.8786C31.4375 89.3006 35.0045 92.8948 39.393 92.8948H47.6697L40.2754 85.4441C38.771 83.9283 37.9437 81.9169 37.9437 79.7773V75.0871C35.7306 72.962 34.3304 69.98 34.3304 66.6598C34.3304 60.2293 39.5203 54.9998 45.9021 54.9998C50.2877 54.9998 54.0659 57.498 56.0273 61.133C57.9887 57.498 61.7668 54.9998 66.1525 54.9998C70.5382 54.9998 74.3163 57.498 76.2777 61.133C78.2391 57.498 82.0173 54.9998 86.4029 54.9998C92.7847 54.9998 97.9746 60.2293 97.9746 66.6598C97.9746 69.98 96.5744 72.962 94.3584 75.0871V79.7773C94.3584 81.9169 93.5311 83.9312 92.0267 85.4441L84.6353 92.8948H92.912C97.3005 92.8948 100.868 89.3006 100.868 84.8786V51.3561C100.868 46.934 97.3005 43.3398 92.912 43.3398ZM74.8312 43.3398H57.4738V37.5098H74.8312V43.3398Z" fill="#FFE500"/>
</g>
<defs>
<filter id="filter0_b_217_2285" x="-44.8708" y="-44.8708" width="220.742" height="221.742" filterUnits="userSpaceOnUse" color-interpolation-filters="sRGB">
<feFlood flood-opacity="0" result="BackgroundImageFix"/>
<feGaussianBlur in="BackgroundImageFix" stdDeviation="22.4354"/>
<feComposite in2="SourceAlpha" operator="in" result="effect1_backgroundBlur_217_2285"/>
<feBlend mode="normal" in="SourceGraphic" in2="effect1_backgroundBlur_217_2285" result="shape"/>
</filter>
<clipPath id="clip0_217_2285">
<rect width="69.43" height="69.96" fill="white" transform="translate(31.4375 31.6799)"/>
</clipPath>
</defs>
</svg>
