<svg width="41" height="40" viewBox="0 0 41 40" fill="none" xmlns="http://www.w3.org/2000/svg">
<g id="Telegram">
<path id="Vector" fill-rule="evenodd" clip-rule="evenodd" d="M3.89695 18.8222C14.2328 14.3191 21.1249 11.3503 24.5734 9.91596C34.4196 5.8206 36.4656 5.10919 37.7991 5.0857C38.0924 5.08053 38.7482 5.15322 39.173 5.49791C39.5317 5.78896 39.6303 6.18212 39.6776 6.45807C39.7248 6.73401 39.7836 7.36263 39.7369 7.85381C39.2033 13.46 36.8945 27.0649 35.72 33.344C35.223 36.0009 34.2444 36.8918 33.297 36.9789C31.238 37.1684 29.6746 35.6183 27.6804 34.3111C24.5599 32.2655 22.797 30.9922 19.7681 28.9962C16.2676 26.6894 18.5368 25.4215 20.5317 23.3495C21.0538 22.8073 30.1255 14.5559 30.3011 13.8074C30.323 13.7137 30.3434 13.3648 30.1361 13.1805C29.9288 12.9963 29.6228 13.0593 29.402 13.1094C29.0891 13.1804 24.104 16.4753 14.447 22.9941C13.032 23.9657 11.7503 24.4391 10.602 24.4143C9.33611 24.387 6.90099 23.6986 5.09073 23.1101C2.87036 22.3884 1.10566 22.0068 1.25933 20.781C1.33937 20.1426 2.21857 19.4896 3.89695 18.8222Z" fill="#E900FD"/>
</g>
</svg>
