<svg width="704" height="80" viewBox="0 0 704 80" fill="none" xmlns="http://www.w3.org/2000/svg">
<path d="M42.1772 10.649L55.9672 18.8809C56.5221 18.1927 57.1923 17.5586 58.0247 17.0979C61.6947 14.9085 66.3646 16.1767 68.4797 19.9756C70.5948 23.7745 69.3121 28.6086 65.6421 30.7926C64.8621 31.3128 64.0296 31.6001 63.1396 31.7735V48.2319C64.0296 48.3999 64.8621 48.6926 65.6421 49.1532C69.3121 51.3426 70.5896 56.2309 68.4797 59.9702C66.3646 63.7692 61.6947 65.0915 58.0247 62.9075C57.1923 62.4468 56.5221 61.8128 55.9672 61.1245L42.1772 69.3511C42.4547 70.2181 42.6222 71.134 42.6222 72.0553C42.6222 76.4287 39.2296 80 35.0047 80C30.7797 80 27.3348 76.4341 27.3348 72.0553C27.3348 71.134 27.5024 70.2181 27.7799 69.3511L13.9898 61.1245C13.4349 61.8128 12.7648 62.4468 11.9899 62.9075C8.31994 65.0969 3.65 63.7692 1.53491 59.9702C-0.580188 56.2309 0.644858 51.3372 4.31486 49.1532C5.09493 48.6926 5.98496 48.4054 6.81739 48.2319V31.7735C5.98496 31.6001 5.09493 31.3128 4.31486 30.7926C0.644858 28.6032 -0.580188 23.7745 1.53491 19.9756C3.65 16.1767 8.31994 14.914 11.9899 17.0979C12.77 17.5586 13.4349 18.1927 13.9898 18.8809L27.7799 10.649C27.5024 9.7873 27.3348 8.866 27.3348 7.8851C27.3348 3.51171 30.7797 0 35.0047 0C39.2296 0 42.6222 3.51171 42.6222 7.8851C42.6222 8.86058 42.4547 9.7873 42.1772 10.649ZM55.9672 29.0096L44.6273 35.8C45.1247 37.1223 45.4074 38.5043 45.4074 40C45.4074 41.4957 45.1299 42.8777 44.6273 44.1458L55.9672 50.9362C57.1346 49.4946 58.7471 48.5788 60.5272 48.2319V31.7735C58.8047 31.4266 57.1346 30.5054 55.9672 29.0096ZM26.6647 46.5032L15.3249 53.2936C15.9374 55.1362 15.9374 57.0329 15.3249 58.7617L29.1149 66.9936C30.2824 65.6117 31.8373 64.6362 33.6749 64.2894V50.7086C30.8373 50.3021 28.3401 48.7522 26.67 46.5032H26.6647ZM13.9898 50.9362L25.3873 44.1458C24.8323 42.8777 24.5549 41.5012 24.5549 40C24.5549 38.4988 24.8323 37.1223 25.3873 35.8L13.9898 29.0096C12.8223 30.5054 11.2099 31.4266 9.48742 31.7735V48.2319C11.2099 48.5788 12.8223 49.4946 13.9898 50.9362ZM43.2923 33.4426L54.6373 26.6522C54.0248 24.8693 54.0248 22.9725 54.6373 21.2437L40.8474 12.9576C39.7375 14.3992 38.125 15.3746 36.2874 15.7215V29.3023C39.125 29.6491 41.6222 31.199 43.2923 33.4481V33.4426ZM36.2874 50.7086V64.2894C38.1198 64.6362 39.7322 65.6117 40.8474 66.9936L54.6373 58.7617C54.0248 57.0329 54.0248 55.082 54.6373 53.2936L43.2923 46.5032C41.6275 48.7522 39.125 50.3021 36.2874 50.7086ZM33.6749 29.2968V15.716C31.8425 15.3692 30.2824 14.3937 29.1149 13.0118L15.3249 21.2437C15.9374 22.9725 15.9374 24.8693 15.3249 26.6522L26.6647 33.4426C28.3348 31.199 30.8321 29.6437 33.6697 29.2968H33.6749Z" fill="#BD00FF"/>
<path d="M42.1772 10.649L55.9672 18.8809C56.5221 18.1927 57.1923 17.5586 58.0247 17.0979C61.6947 14.9085 66.3646 16.1767 68.4797 19.9756C70.5948 23.7745 69.3121 28.6086 65.6421 30.7926C64.8621 31.3128 64.0296 31.6001 63.1396 31.7735V48.2319C64.0296 48.3999 64.8621 48.6926 65.6421 49.1532C69.3121 51.3426 70.5896 56.2309 68.4797 59.9702C66.3646 63.7692 61.6947 65.0915 58.0247 62.9075C57.1923 62.4468 56.5221 61.8128 55.9672 61.1245L42.1772 69.3511C42.4547 70.2181 42.6222 71.134 42.6222 72.0553C42.6222 76.4287 39.2296 80 35.0047 80C30.7797 80 27.3348 76.4341 27.3348 72.0553C27.3348 71.134 27.5024 70.2181 27.7799 69.3511L13.9898 61.1245C13.4349 61.8128 12.7648 62.4468 11.9899 62.9075C8.31994 65.0969 3.65 63.7692 1.53491 59.9702C-0.580188 56.2309 0.644858 51.3372 4.31486 49.1532C5.09493 48.6926 5.98496 48.4054 6.81739 48.2319V31.7735C5.98496 31.6001 5.09493 31.3128 4.31486 30.7926C0.644858 28.6032 -0.580188 23.7745 1.53491 19.9756C3.65 16.1767 8.31994 14.914 11.9899 17.0979C12.77 17.5586 13.4349 18.1927 13.9898 18.8809L27.7799 10.649C27.5024 9.7873 27.3348 8.866 27.3348 7.8851C27.3348 3.51171 30.7797 0 35.0047 0C39.2296 0 42.6222 3.51171 42.6222 7.8851C42.6222 8.86058 42.4547 9.7873 42.1772 10.649ZM55.9672 29.0096L44.6273 35.8C45.1247 37.1223 45.4074 38.5043 45.4074 40C45.4074 41.4957 45.1299 42.8777 44.6273 44.1458L55.9672 50.9362C57.1346 49.4946 58.7471 48.5788 60.5272 48.2319V31.7735C58.8047 31.4266 57.1346 30.5054 55.9672 29.0096ZM26.6647 46.5032L15.3249 53.2936C15.9374 55.1362 15.9374 57.0329 15.3249 58.7617L29.1149 66.9936C30.2824 65.6117 31.8373 64.6362 33.6749 64.2894V50.7086C30.8373 50.3021 28.3401 48.7522 26.67 46.5032H26.6647ZM13.9898 50.9362L25.3873 44.1458C24.8323 42.8777 24.5549 41.5012 24.5549 40C24.5549 38.4988 24.8323 37.1223 25.3873 35.8L13.9898 29.0096C12.8223 30.5054 11.2099 31.4266 9.48742 31.7735V48.2319C11.2099 48.5788 12.8223 49.4946 13.9898 50.9362ZM43.2923 33.4426L54.6373 26.6522C54.0248 24.8693 54.0248 22.9725 54.6373 21.2437L40.8474 12.9576C39.7375 14.3992 38.125 15.3746 36.2874 15.7215V29.3023C39.125 29.6491 41.6222 31.199 43.2923 33.4481V33.4426ZM36.2874 50.7086V64.2894C38.1198 64.6362 39.7322 65.6117 40.8474 66.9936L54.6373 58.7617C54.0248 57.0329 54.0248 55.082 54.6373 53.2936L43.2923 46.5032C41.6275 48.7522 39.125 50.3021 36.2874 50.7086ZM33.6749 29.2968V15.716C31.8425 15.3692 30.2824 14.3937 29.1149 13.0118L15.3249 21.2437C15.9374 22.9725 15.9374 24.8693 15.3249 26.6522L26.6647 33.4426C28.3348 31.199 30.8321 29.6437 33.6697 29.2968H33.6749Z" fill="url(#paint0_radial_307_668)"/>
<path d="M126.454 76C120.435 76 114.814 75.1381 109.59 73.4144C104.431 71.6906 99.868 69.2376 95.9 66.0553C91.9981 62.8729 88.956 59.0939 86.7736 54.7182C84.5912 50.2762 83.5 45.337 83.5 39.9006C83.5 34.5967 84.6243 29.7569 86.8728 25.3812C89.1213 21.0055 92.1634 17.2265 95.9992 14.0442C99.901 10.7956 104.431 8.30939 109.59 6.58564C114.814 4.86188 120.369 4 126.255 4C130.686 4 134.919 4.49724 138.953 5.49171C143.053 6.48619 146.823 7.81216 150.261 9.46961C153.766 11.0608 156.676 12.8177 158.991 14.7403L149.468 28.1657C147.616 26.6409 145.5 25.2155 143.119 23.8895C140.804 22.5635 138.159 21.5028 135.183 20.7072C132.273 19.9116 128.933 19.5138 125.164 19.5138C122.188 19.5138 119.278 19.9779 116.434 20.9061C113.591 21.768 110.978 23.0608 108.598 24.7845C106.217 26.5083 104.332 28.663 102.943 31.2486C101.554 33.8343 100.86 36.7845 100.86 40.0994C100.86 43.4807 101.587 46.4641 103.042 49.0497C104.563 51.6354 106.58 53.7901 109.094 55.5138C111.607 57.2376 114.45 58.5304 117.625 59.3923C120.799 60.2541 124.073 60.6851 127.445 60.6851C131.281 60.6851 134.654 60.1878 137.564 59.1934C140.474 58.1326 143.053 56.8729 145.301 55.4144C147.55 53.9558 149.534 52.6298 151.253 51.4365L159.189 64.5635C157.205 66.1547 154.527 67.8453 151.154 69.6354C147.848 71.4254 144.078 72.9503 139.845 74.21C135.679 75.4033 131.215 76 126.454 76Z" fill="white"/>
<path d="M210.741 75.0055V43.8785L212.725 51.5359L175.426 5.39227H196.556L223.637 40.4972H215.106L241.493 5.39227H261.035L227.208 48.8508L227.704 43.0829V75.0055H210.741Z" fill="white"/>
<path d="M283.439 75.0055V5.39227H323.019C329.104 5.39227 334.229 6.0884 338.395 7.48067C342.628 8.87293 345.802 10.8287 347.919 13.3481C350.035 15.8674 351.093 18.9171 351.093 22.4972C351.093 26.3425 349.936 29.6575 347.621 32.442C345.306 35.1602 341.801 37.0497 337.106 38.1105L337.602 36.3204C340.578 36.9834 343.355 38.0442 345.935 39.5028C348.58 40.895 350.696 42.7845 352.283 45.1713C353.937 47.558 354.763 50.4751 354.763 53.9227C354.763 58.1657 353.871 61.6464 352.085 64.3646C350.299 67.0829 347.952 69.2376 345.042 70.8287C342.132 72.3536 338.958 73.4475 335.519 74.1105C332.146 74.7072 328.839 75.0055 325.599 75.0055H283.439ZM299.311 60.884H325.995C328.31 60.884 330.36 60.6188 332.146 60.0884C333.998 59.558 335.452 58.7293 336.511 57.6022C337.635 56.4088 338.197 54.9171 338.197 53.1271C338.197 51.0718 337.503 49.5138 336.114 48.453C334.725 47.326 333.039 46.5635 331.055 46.1657C329.071 45.7017 327.219 45.4696 325.499 45.4696H299.311V60.884ZM299.311 32.7403H323.218C325.4 32.7403 327.318 32.4751 328.971 31.9448C330.691 31.4144 332.014 30.6519 332.939 29.6575C333.931 28.663 334.427 27.4033 334.427 25.8785C334.427 23.558 333.27 21.9337 330.955 21.0055C328.707 20.0111 325.929 19.5138 322.623 19.5138H299.311V32.7403Z" fill="white"/>
<path d="M383.157 75.0055V5.39227H445.455V19.8122H399.525V60.5856H446.447V75.0055H383.157ZM392.085 46.4641V32.7403H440.991V46.4641H392.085Z" fill="white"/>
<path d="M476.87 75.0055V5.39227H517.145C522.7 5.39227 527.429 6.32044 531.33 8.1768C535.232 9.96685 538.208 12.5525 540.258 15.9337C542.309 19.2486 543.334 23.1602 543.334 27.6685C543.334 32.1105 542.176 36.1215 539.862 39.7017C537.547 43.2155 534.406 46 530.438 48.0553C526.47 50.0442 522.039 51.0387 517.145 51.0387H492.94V75.0055H476.87ZM527.858 75.0055L504.249 43.5801L521.906 41.0939L547.5 75.0055H527.858ZM492.94 38.1105H515.161C517.145 38.1105 518.964 37.7127 520.617 36.9171C522.336 36.1215 523.692 35.0276 524.684 33.6354C525.742 32.1768 526.271 30.4862 526.271 28.5635C526.271 26.6409 525.742 25.0166 524.684 23.6906C523.692 22.3646 522.336 21.337 520.617 20.6077C518.897 19.8785 517.013 19.5138 514.962 19.5138H492.94V38.1105Z" fill="white"/>
<g opacity="0.5">
<path d="M561.5 75L595.029 5H602.13L635.363 75H629.742L604.004 20.6C602.886 17.9333 602.031 16 601.44 14.8C600.914 13.6 600.453 12.7 600.059 12.1C599.73 11.5 599.401 10.8333 599.073 10.1C598.744 9.3 598.284 8 597.692 6.2H599.073C598.35 8.4 597.758 10 597.298 11C596.903 11.9333 596.509 12.7333 596.114 13.4C595.72 14.0667 595.26 14.9333 594.734 16C594.208 17.0667 593.452 18.8 592.465 21.2L566.727 75H561.5ZM574.715 54.8L576.884 49.9H620.374L621.459 54.8H574.715Z" fill="white"/>
<path d="M662.476 75V69.8H680.522V10.2H662.476V5H703.5V10.2H685.453V69.8H703.5V75H662.476Z" fill="white"/>
</g>
<defs>
<radialGradient id="paint0_radial_307_668" cx="0" cy="0" r="1" gradientUnits="userSpaceOnUse" gradientTransform="translate(35) rotate(90) scale(75.2 64.86)">
<stop stop-color="#FF00E6"/>
<stop offset="1" stop-color="#7E00AA" stop-opacity="0.81"/>
</radialGradient>
</defs>
</svg>
