<svg width="41" height="40" viewBox="0 0 41 40" fill="none" xmlns="http://www.w3.org/2000/svg">
<path d="M35.595 11.9679C35.6105 12.3199 35.6105 12.6559 35.6105 13.0079C35.6259 23.68 27.7851 36 13.4464 36C9.2173 36 5.06539 34.736 1.5 32.368C2.11738 32.448 2.73477 32.48 3.35215 32.48C6.85581 32.48 10.2669 31.264 13.0297 29.008C9.69578 28.944 6.7632 26.688 5.74452 23.392C6.91755 23.632 8.12145 23.584 9.26361 23.248C5.63647 22.512 3.02803 19.1999 3.01259 15.3439C3.01259 15.3119 3.01259 15.2799 3.01259 15.2479C4.09301 15.8719 5.31235 16.2239 6.54712 16.2559C3.13607 13.8879 2.07108 9.16791 4.13932 5.4719C8.10601 10.5279 13.9403 13.5839 20.2067 13.9199C19.5739 11.1199 20.4383 8.17591 22.4602 6.1919C25.5934 3.13589 30.5325 3.2959 33.4959 6.54391C35.2401 6.1919 36.9224 5.5199 38.4504 4.5759C37.8639 6.44791 36.6446 8.03191 35.024 9.03991C36.5674 8.84791 38.08 8.41591 39.5 7.77591C38.4504 9.40792 37.1231 10.8159 35.595 11.9679Z" fill="#E900FD"/>
</svg>
