<svg width="634" height="103" viewBox="0 0 634 103" fill="none" xmlns="http://www.w3.org/2000/svg">
<path d="M44.8703 88.6733C38.6406 88.6733 32.8215 87.7833 27.4133 86.0034C22.0735 84.2235 17.3498 81.6905 13.2423 78.4044C9.20322 75.1184 6.05411 71.2163 3.79497 66.698C1.53582 62.1112 0.40625 57.011 0.40625 51.3974C0.40625 45.9207 1.57005 40.9232 3.89765 36.4049C6.22526 31.8866 9.37437 27.9845 13.345 24.6984C17.3841 21.3439 22.0735 18.7767 27.4133 16.9968C32.8215 15.2169 38.5721 14.3269 44.6649 14.3269C49.2517 14.3269 53.6331 14.8403 57.809 15.8672C62.0535 16.8941 65.9557 18.2633 69.5155 19.9748C73.1438 21.6178 76.156 23.4319 78.5521 25.4173L68.694 39.2802C66.7772 37.7056 64.5865 36.2338 62.122 34.8646C59.7259 33.4954 56.9875 32.4001 53.9069 31.5786C50.8947 30.757 47.4375 30.3463 43.5354 30.3463C40.4547 30.3463 37.4425 30.8255 34.4988 31.7839C31.5551 32.6739 28.8509 34.0088 26.3864 35.7888C23.9219 37.5687 21.9708 39.7936 20.5332 42.4635C19.0955 45.1334 18.3767 48.1798 18.3767 51.6028C18.3767 55.0942 19.1298 58.1748 20.6359 60.8447C22.2104 63.5146 24.2984 65.7395 26.8998 67.5195C29.5013 69.2994 32.445 70.6344 35.731 71.5243C39.0171 72.4143 42.4058 72.8593 45.8972 72.8593C49.8678 72.8593 53.3592 72.3458 56.3714 71.319C59.3836 70.2236 62.0535 68.9229 64.3811 67.4168C66.7087 65.9107 68.7625 64.5415 70.5424 63.3093L78.7575 76.8641C76.7037 78.5071 73.9311 80.2528 70.4397 82.1012C67.0168 83.9496 63.1146 85.5242 58.7332 86.8249C54.4203 88.0572 49.7994 88.6733 44.8703 88.6733Z" fill="white"/>
<path d="M132.122 87.6464V55.5049L134.176 63.4119L95.5651 15.7645H117.438L145.472 52.0135H136.64L163.956 15.7645H184.185L149.168 60.6394L149.682 54.6834V87.6464H132.122Z" fill="white"/>
<path d="M207.376 87.6464V15.7645H248.349C254.647 15.7645 259.953 16.4834 264.266 17.921C268.647 19.3586 271.933 21.3782 274.124 23.9796C276.314 26.5811 277.41 29.7302 277.41 33.4269C277.41 37.3976 276.212 40.8205 273.816 43.6958C271.42 46.5026 267.791 48.4537 262.931 49.549L263.444 47.7006C266.525 48.3852 269.4 49.4806 272.07 50.9867C274.808 52.4243 276.999 54.3754 278.642 56.8399C280.353 59.3044 281.209 62.3166 281.209 65.8765C281.209 70.2578 280.285 73.8519 278.437 76.6587C276.588 79.4656 274.158 81.6905 271.146 83.3335C268.134 84.908 264.848 86.0376 261.288 86.7222C257.796 87.3383 254.373 87.6464 251.019 87.6464H207.376ZM223.806 73.0647H251.43C253.826 73.0647 255.948 72.7908 257.796 72.2431C259.713 71.6955 261.219 70.8397 262.315 69.6759C263.478 68.4437 264.06 66.9034 264.06 65.055C264.06 62.9327 263.341 61.3239 261.904 60.2286C260.466 59.0648 258.72 58.2775 256.667 57.8668C254.613 57.3876 252.696 57.148 250.916 57.148H223.806V73.0647ZM223.806 44.0038H248.554C250.813 44.0038 252.799 43.73 254.51 43.1823C256.29 42.6347 257.659 41.8474 258.618 40.8205C259.645 39.7936 260.158 38.4929 260.158 36.9183C260.158 34.5223 258.96 32.845 256.564 31.8866C254.236 30.8597 251.361 30.3463 247.938 30.3463H223.806V44.0038Z" fill="white"/>
<path d="M310.602 87.6464V15.7645H375.09V30.6544H327.545V72.7566H376.117V87.6464H310.602ZM319.844 58.1748V44.0038H370.469V58.1748H319.844Z" fill="white"/>
<path d="M407.61 87.6464V15.7645H449.301C455.052 15.7645 459.947 16.723 463.986 18.6398C468.025 20.4882 471.105 23.1581 473.228 26.6495C475.35 30.0725 476.411 34.1115 476.411 38.7667C476.411 43.3535 475.213 47.4952 472.817 51.192C470.421 54.8204 467.169 57.6956 463.062 59.8179C458.954 61.8716 454.367 62.8985 449.301 62.8985H424.245V87.6464H407.61ZM460.392 87.6464L435.952 55.1969L454.23 52.6297L480.724 87.6464H460.392ZM424.245 49.549H447.248C449.301 49.549 451.184 49.1383 452.895 48.3168C454.675 47.4952 456.079 46.3657 457.106 44.928C458.201 43.4219 458.749 41.6762 458.749 39.6909C458.749 37.7056 458.201 36.0284 457.106 34.6592C456.079 33.29 454.675 32.2289 452.895 31.4759C451.115 30.7228 449.164 30.3463 447.042 30.3463H424.245V49.549Z" fill="white"/>
<g opacity="0.5">
<path d="M485.727 87.4409L520.641 15.5591H528.034L562.64 87.4409H556.787L529.985 31.5785C528.821 28.8401 527.931 26.8548 527.315 25.6225C526.768 24.3903 526.288 23.4661 525.878 22.85C525.535 22.2338 525.193 21.5492 524.851 20.7962C524.509 19.9747 524.029 18.6397 523.413 16.7913H524.851C524.098 19.0505 523.482 20.6935 523.002 21.7204C522.592 22.6788 522.181 23.5003 521.77 24.1849C521.359 24.8695 520.88 25.7595 520.333 26.8548C519.785 27.9501 518.998 29.7301 517.971 32.1946L491.169 87.4409H485.727ZM499.487 66.6979L501.746 61.6662H547.032L548.161 66.6979H499.487Z" fill="white"/>
<path d="M590.872 87.4409V82.1011H609.664V20.8989H590.872V15.5591H633.59V20.8989H614.798V82.1011H633.59V87.4409H590.872Z" fill="white"/>
</g>
</svg>
