<svg width="287" height="30" viewBox="0 0 287 30" fill="none" xmlns="http://www.w3.org/2000/svg">
<path d="M16.3085 3.99337L21.7045 7.08035C21.9217 6.82225 22.1839 6.58447 22.5097 6.41173C23.9457 5.5907 25.7731 6.06625 26.6008 7.49085C27.4284 8.91546 26.9265 10.7282 25.4904 11.5472C25.1852 11.7423 24.8594 11.85 24.5111 11.9151V18.087C24.8594 18.15 25.1852 18.2597 25.4904 18.4325C26.9265 19.2535 27.4264 21.0866 26.6008 22.4888C25.7731 23.9134 23.9457 24.4093 22.5097 23.5903C22.1839 23.4176 21.9217 23.1798 21.7045 22.9217L16.3085 26.0066C16.417 26.3318 16.4826 26.6753 16.4826 27.0207C16.4826 28.6608 15.1551 30 13.5018 30C11.8486 30 10.5006 28.6628 10.5006 27.0207C10.5006 26.6753 10.5662 26.3318 10.6747 26.0066L5.27863 22.9217C5.06148 23.1798 4.79926 23.4176 4.49607 23.5903C3.05998 24.4113 1.23261 23.9134 0.404963 22.4888C-0.422682 21.0866 0.0566834 19.2515 1.49277 18.4325C1.79802 18.2597 2.14629 18.152 2.47202 18.087V11.9151C2.14629 11.85 1.79802 11.7423 1.49277 11.5472C0.0566834 10.7262 -0.422682 8.91546 0.404963 7.49085C1.23261 6.06625 3.05998 5.59274 4.49607 6.41173C4.80131 6.58447 5.06148 6.82225 5.27863 7.08035L10.6747 3.99337C10.5662 3.67024 10.5006 3.32475 10.5006 2.95691C10.5006 1.31689 11.8486 0 13.5018 0C15.1551 0 16.4826 1.31689 16.4826 2.95691C16.4826 3.32272 16.417 3.67024 16.3085 3.99337ZM21.7045 10.8786L17.2672 13.425C17.4618 13.9209 17.5724 14.4391 17.5724 15C17.5724 15.5609 17.4639 16.0791 17.2672 16.5547L21.7045 19.1011C22.1614 18.5605 22.7924 18.217 23.4889 18.087V11.9151C22.8149 11.785 22.1614 11.4395 21.7045 10.8786ZM10.2384 17.4387L5.80104 19.9851C6.04073 20.6761 6.04073 21.3873 5.80104 22.0356L11.1971 25.1226C11.654 24.6044 12.2624 24.2386 12.9815 24.1085V19.0157C11.8711 18.8633 10.8939 18.2821 10.2404 17.4387H10.2384ZM5.27863 19.1011L9.7385 16.5547C9.52134 16.0791 9.41277 15.5629 9.41277 15C9.41277 14.4371 9.52134 13.9209 9.7385 13.425L5.27863 10.8786C4.82179 11.4395 4.19081 11.785 3.51682 11.9151V18.087C4.19081 18.217 4.82179 18.5605 5.27863 19.1011ZM16.7448 12.541L21.1842 9.99458C20.9445 9.32597 20.9445 8.61469 21.1842 7.9664L15.7881 4.8591C15.3538 5.39968 14.7228 5.76548 14.0038 5.89554V10.9883C15.1141 11.1184 16.0913 11.6996 16.7448 12.543V12.541ZM14.0038 19.0157V24.1085C14.7208 24.2386 15.3517 24.6044 15.7881 25.1226L21.1842 22.0356C20.9445 21.3873 20.9445 20.6557 21.1842 19.9851L16.7448 17.4387C16.0934 18.2821 15.1141 18.8633 14.0038 19.0157ZM12.9815 10.9863V5.89351C12.2645 5.76345 11.654 5.39764 11.1971 4.87942L5.80104 7.9664C6.04073 8.61469 6.04073 9.32597 5.80104 9.99458L10.2384 12.541C10.8919 11.6996 11.8691 11.1164 12.9794 10.9863H12.9815Z" fill="#BD00FF"/>
<path d="M16.3085 3.99337L21.7045 7.08035C21.9217 6.82225 22.1839 6.58447 22.5097 6.41173C23.9457 5.5907 25.7731 6.06625 26.6008 7.49085C27.4284 8.91546 26.9265 10.7282 25.4904 11.5472C25.1852 11.7423 24.8594 11.85 24.5111 11.9151V18.087C24.8594 18.15 25.1852 18.2597 25.4904 18.4325C26.9265 19.2535 27.4264 21.0866 26.6008 22.4888C25.7731 23.9134 23.9457 24.4093 22.5097 23.5903C22.1839 23.4176 21.9217 23.1798 21.7045 22.9217L16.3085 26.0066C16.417 26.3318 16.4826 26.6753 16.4826 27.0207C16.4826 28.6608 15.1551 30 13.5018 30C11.8486 30 10.5006 28.6628 10.5006 27.0207C10.5006 26.6753 10.5662 26.3318 10.6747 26.0066L5.27863 22.9217C5.06148 23.1798 4.79926 23.4176 4.49607 23.5903C3.05998 24.4113 1.23261 23.9134 0.404963 22.4888C-0.422682 21.0866 0.0566834 19.2515 1.49277 18.4325C1.79802 18.2597 2.14629 18.152 2.47202 18.087V11.9151C2.14629 11.85 1.79802 11.7423 1.49277 11.5472C0.0566834 10.7262 -0.422682 8.91546 0.404963 7.49085C1.23261 6.06625 3.05998 5.59274 4.49607 6.41173C4.80131 6.58447 5.06148 6.82225 5.27863 7.08035L10.6747 3.99337C10.5662 3.67024 10.5006 3.32475 10.5006 2.95691C10.5006 1.31689 11.8486 0 13.5018 0C15.1551 0 16.4826 1.31689 16.4826 2.95691C16.4826 3.32272 16.417 3.67024 16.3085 3.99337ZM21.7045 10.8786L17.2672 13.425C17.4618 13.9209 17.5724 14.4391 17.5724 15C17.5724 15.5609 17.4639 16.0791 17.2672 16.5547L21.7045 19.1011C22.1614 18.5605 22.7924 18.217 23.4889 18.087V11.9151C22.8149 11.785 22.1614 11.4395 21.7045 10.8786ZM10.2384 17.4387L5.80104 19.9851C6.04073 20.6761 6.04073 21.3873 5.80104 22.0356L11.1971 25.1226C11.654 24.6044 12.2624 24.2386 12.9815 24.1085V19.0157C11.8711 18.8633 10.8939 18.2821 10.2404 17.4387H10.2384ZM5.27863 19.1011L9.7385 16.5547C9.52134 16.0791 9.41277 15.5629 9.41277 15C9.41277 14.4371 9.52134 13.9209 9.7385 13.425L5.27863 10.8786C4.82179 11.4395 4.19081 11.785 3.51682 11.9151V18.087C4.19081 18.217 4.82179 18.5605 5.27863 19.1011ZM16.7448 12.541L21.1842 9.99458C20.9445 9.32597 20.9445 8.61469 21.1842 7.9664L15.7881 4.8591C15.3538 5.39968 14.7228 5.76548 14.0038 5.89554V10.9883C15.1141 11.1184 16.0913 11.6996 16.7448 12.543V12.541ZM14.0038 19.0157V24.1085C14.7208 24.2386 15.3517 24.6044 15.7881 25.1226L21.1842 22.0356C20.9445 21.3873 20.9445 20.6557 21.1842 19.9851L16.7448 17.4387C16.0934 18.2821 15.1141 18.8633 14.0038 19.0157ZM12.9815 10.9863V5.89351C12.2645 5.76345 11.654 5.39764 11.1971 4.87942L5.80104 7.9664C6.04073 8.61469 6.04073 9.32597 5.80104 9.99458L10.2384 12.541C10.8919 11.6996 11.8691 11.1164 12.9794 10.9863H12.9815Z" fill="url(#paint0_radial_272_608)"/>
<path d="M57.3853 29C55.0896 29 52.9452 28.6648 50.9523 27.9945C48.9845 27.3241 47.2438 26.3702 45.7302 25.1326C44.2417 23.895 43.0813 22.4254 42.2488 20.7238C41.4163 18.9963 41 17.0755 41 14.9613C41 12.8987 41.4289 11.0166 42.2866 9.31492C43.1443 7.61326 44.3048 6.14365 45.768 4.90608C47.2564 3.64273 48.9845 2.67587 50.9523 2.00553C52.9452 1.33518 55.0643 1 57.3096 1C58.9998 1 60.6144 1.19337 62.1533 1.58011C63.7174 1.96685 65.1554 2.48251 66.4672 3.12707C67.8042 3.74586 68.9143 4.4291 69.7972 5.1768L66.1645 10.3978C65.4581 9.80479 64.6508 9.25046 63.7426 8.73481C62.8596 8.21915 61.8505 7.80663 60.7153 7.49724C59.6053 7.18785 58.3313 7.03315 56.8933 7.03315C55.7581 7.03315 54.6481 7.21363 53.5633 7.57459C52.4785 7.90976 51.482 8.41252 50.5738 9.08288C49.6657 9.75322 48.9467 10.5912 48.4169 11.5967C47.8871 12.6022 47.6222 13.7495 47.6222 15.0387C47.6222 16.3536 47.8997 17.5138 48.4547 18.5193C49.035 19.5249 49.8044 20.3628 50.7631 21.0331C51.7217 21.7035 52.8065 22.2063 54.0174 22.5414C55.2283 22.8766 56.4771 23.0442 57.7637 23.0442C59.2269 23.0442 60.5135 22.8508 61.6235 22.4641C62.7335 22.0516 63.7174 21.5617 64.5751 20.9945C65.4329 20.4273 66.1897 19.9116 66.8456 19.4475L69.8729 24.5525C69.1161 25.1713 68.0944 25.8287 66.8078 26.5249C65.5464 27.221 64.1084 27.814 62.4939 28.3039C60.9045 28.768 59.2017 29 57.3853 29Z" fill="white"/>
<path d="M89.5381 28.6133V16.5083L90.2949 19.4862L76.0666 1.54144H84.1268L94.4575 15.1934H91.2031L101.269 1.54144H108.724L95.8198 18.442L96.009 16.1989V28.6133H89.5381Z" fill="white"/>
<path d="M117.27 28.6133V1.54144H132.368C134.689 1.54144 136.644 1.81215 138.234 2.35359C139.848 2.89503 141.059 3.65562 141.867 4.63536C142.674 5.6151 143.077 6.80111 143.077 8.19337C143.077 9.68877 142.636 10.9779 141.753 12.0608C140.87 13.1179 139.533 13.8527 137.742 14.2652L137.931 13.5691C139.066 13.8269 140.126 14.2394 141.11 14.8066C142.119 15.3481 142.926 16.0829 143.532 17.011C144.162 17.9392 144.478 19.0737 144.478 20.4144C144.478 22.0645 144.137 23.418 143.456 24.4751C142.775 25.5322 141.879 26.3702 140.769 26.989C139.659 27.582 138.448 28.0074 137.136 28.2652C135.85 28.4972 134.588 28.6133 133.352 28.6133H117.27ZM123.324 23.1215H133.504C134.387 23.1215 135.169 23.0184 135.85 22.8122C136.556 22.6059 137.111 22.2836 137.515 21.8453C137.944 21.3812 138.158 20.8011 138.158 20.105C138.158 19.3057 137.893 18.6998 137.363 18.2873C136.834 17.849 136.19 17.5525 135.434 17.3978C134.677 17.2173 133.97 17.1271 133.314 17.1271H123.324V23.1215ZM123.324 12.1768H132.444C133.277 12.1768 134.008 12.0737 134.639 11.8674C135.295 11.6611 135.799 11.3646 136.153 10.9779C136.531 10.5912 136.72 10.1013 136.72 9.50829C136.72 8.60589 136.279 7.97422 135.396 7.61326C134.538 7.22652 133.478 7.03315 132.217 7.03315H123.324V12.1768Z" fill="white"/>
<path d="M155.309 28.6133V1.54144H179.073V7.14917H161.553V23.0055H179.452V28.6133H155.309ZM158.715 17.5138V12.1768H177.37V17.5138H158.715Z" fill="white"/>
<path d="M191.057 28.6133V1.54144H206.421C208.54 1.54144 210.343 1.90239 211.832 2.62431C213.32 3.32044 214.456 4.32597 215.238 5.64088C216.02 6.93002 216.411 8.4512 216.411 10.2044C216.411 11.9319 215.969 13.4917 215.086 14.884C214.203 16.2505 213.005 17.3333 211.491 18.1326C209.978 18.9061 208.287 19.2928 206.421 19.2928H197.187V28.6133H191.057ZM210.507 28.6133L201.501 16.3923L208.237 15.4254L218 28.6133H210.507ZM197.187 14.2652H205.664C206.421 14.2652 207.114 14.1105 207.745 13.8011C208.401 13.4917 208.918 13.0663 209.297 12.5249C209.7 11.9576 209.902 11.3002 209.902 10.5525C209.902 9.80479 209.7 9.17311 209.297 8.65746C208.918 8.14181 208.401 7.74217 207.745 7.45856C207.089 7.17495 206.37 7.03315 205.588 7.03315H197.187V14.2652Z" fill="white"/>
<g opacity="0.5">
<path d="M232 28L244.987 2H247.737L260.609 28H258.432L248.463 7.79429C248.03 6.80381 247.699 6.08571 247.47 5.64C247.266 5.19429 247.088 4.86 246.935 4.63714C246.807 4.41429 246.68 4.16667 246.553 3.89429C246.426 3.59714 246.247 3.11429 246.018 2.44572H246.553C246.273 3.26286 246.044 3.85714 245.865 4.22857C245.713 4.57524 245.56 4.87238 245.407 5.12C245.254 5.36762 245.076 5.68952 244.872 6.08571C244.668 6.48191 244.376 7.12571 243.994 8.01714L234.024 28H232ZM237.118 20.4971L237.959 18.6771H254.803L255.223 20.4971H237.118Z" fill="white"/>
<path d="M271.11 28V26.0686H278.1V3.93143H271.11V2H287V3.93143H280.01V26.0686H287V28H271.11Z" fill="white"/>
</g>
<defs>
<radialGradient id="paint0_radial_272_608" cx="0" cy="0" r="1" gradientUnits="userSpaceOnUse" gradientTransform="translate(13.5) rotate(90) scale(28.2 25.38)">
<stop stop-color="#FF00E6"/>
<stop offset="1" stop-color="#7E00AA" stop-opacity="0.81"/>
</radialGradient>
</defs>
</svg>
