<svg width="41" height="40" viewBox="0 0 41 40" fill="none" xmlns="http://www.w3.org/2000/svg">
<g id="YouTube" clip-path="url(#clip0_222_2931)">
<g id="Group">
<path id="Subtract" fill-rule="evenodd" clip-rule="evenodd" d="M36.1506 6.85667C37.8639 7.31795 39.2148 8.66885 39.6761 10.3822C40.5328 13.5123 40.4998 20.0362 40.4998 20.0362C40.4998 20.0362 40.4998 26.5271 39.6761 29.6572C39.2148 31.3706 37.8639 32.7215 36.1506 33.1827C33.0205 34.0065 20.4999 34.0065 20.4999 34.0065C20.4999 34.0065 8.01232 34.0065 4.84924 33.1498C3.1359 32.6885 1.785 31.3376 1.32372 29.6243C0.5 26.5271 0.5 20.0032 0.5 20.0032C0.5 20.0032 0.5 13.5123 1.32372 10.3822C1.785 8.66885 3.16885 7.285 4.84924 6.82372C7.97937 6 20.4999 6 20.4999 6C20.4999 6 33.0205 6 36.1506 6.85667ZM26.9274 20.003L16.5156 25.9997V14.0063L26.9274 20.003Z" fill="#E900FD"/>
</g>
</g>
<defs>
<clipPath id="clip0_222_2931">
<rect width="40" height="40" fill="white" transform="translate(0.5)"/>
</clipPath>
</defs>
</svg>
